<?xml version="1.0" encoding="UTF-8" standalone="no"?>
<!DOCTYPE svg  PUBLIC '-//W3C//DTD SVG 1.1//EN'  'http://www.w3.org/Graphics/SVG/1.1/DTD/svg11.dtd'>
<svg xmlns="http://www.w3.org/2000/svg" version="1.1">
<defs>
<font id="TrajanPro-Bold" horiz-adv-x="632">
<font-face ascent="800" x-height="640" unicode-range="U+0020-FB02" bbox="-248.062 -284 1528 985" descent="-200" underline-thickness="50" font-weight="700" units-per-em="1000" font-family="TrajanPro" cap-height="753" panose-1="2 2 8 2 5 5 6 2 3 1" underline-position="-150"/>
<missing-glyph d="M50 605v-510l170 255zM80 50h340l-170 255zM280 350l170 -255v510zM250 395l170 255h-340zM0 0v700h500v-700h-500z" horiz-adv-x="500"/>
<glyph glyph-name=".notdef" d="M50 605v-510l170 255zM80 50h340l-170 255zM280 350l170 -255v510zM250 395l170 255h-340zM0 0v700h500v-700h-500z" horiz-adv-x="500"/>
<glyph glyph-name=".null" horiz-adv-x="0"/>
<glyph glyph-name="nonmarkingreturn" horiz-adv-x="333"/>
<glyph glyph-name="space" horiz-adv-x="300" unicode=" "/>
<glyph glyph-name="exclam" d="M158 164q-12 0 -15 36q-19 225 -25 272q-9 129 -21 180q-1 5 -4.5 14t-3.5 12q0 8 5 16q31 39 90 63q22 10 38 10q9 0 9 -13q0 -3 -2.5 -19.5t-6.5 -47t-7 -62.5q-1 -6 -20.5 -210.5t-21.5 -218.5q-3 -32 -15 -32zM160 -17q-27 0 -41 17t-14 39q0 21 14.5 39t41.5 18 q24 0 40 -14.5t16 -38.5q0 -25 -16 -42.5t-41 -17.5z" horiz-adv-x="320" unicode="!"/>
<glyph glyph-name="quotedbl" d="M251 755q28 0 39.5 -2.5t11.5 -12.5q0 -4 -6.5 -25.5t-16 -65.5t-14.5 -99q-6 -50 -14 -50t-14 50q-5 55 -14.5 99t-16 65.5t-6.5 25.5q0 10 11.5 12.5t39.5 2.5zM109 755q28 0 39.5 -2.5t11.5 -12.5q0 -4 -6.5 -25.5t-16 -65.5t-14.5 -99q-6 -50 -14 -50t-14 50 q-5 55 -14.5 99t-16 65.5t-6.5 25.5q0 10 11.5 12.5t39.5 2.5z" horiz-adv-x="360" unicode='&quot;'/>
<glyph glyph-name="numbersign" d="M393 460h-150l-24 -150h153zM571 460h-118l-22 -150h112v-81h-123l-33 -229h-59l31 229h-152l-34 -229h-60l35 229h-119v81h130l23 150h-123v82h134l32 212h61l-33 -212h151l31 212h60l-31 -212h107v-82z" horiz-adv-x="600" unicode="#"/>
<glyph glyph-name="dollar" d="M337 311l-27 -265q50 3 82.5 38.5t32.5 89.5q0 77 -88 137zM309 475l27 242q-17 0 -34.5 -4.5t-37 -15.5t-32 -35t-12.5 -57q0 -37 22.5 -65.5t66.5 -64.5zM303 0l-9 -81q-1 -6 -10 -8l-31 -6q-4 -1 -6 1.5t-1 8.5l10 85q-73 0 -126 21q-22 9 -28 16.5t-6 26.5 q0 56 15 121q6 24 15 24q8 0 7 -27v-9q0 -50 29 -82q41 -45 98 -45l32 295q-88 67 -125.5 118.5t-37.5 119.5q0 85 67 132.5t145 47.5l10 80q1 7 11 9l30 7q4 1 6.5 0t1.5 -5l-12 -91q61 0 110 -19q11 -4 14 -8.5t3 -16.5q0 -53 -12 -110q-3 -14 -11 -14q-10 0 -10 19 q-2 49 -30 77q-12 13 -33 21.5t-35 8.5l-31 -271q84 -56 125 -109.5t41 -130.5q0 -44 -15 -80.5t-38 -59t-53 -38t-57.5 -22t-52.5 -6.5z" horiz-adv-x="600" unicode="$"/>
<glyph glyph-name="percent" d="M218 416q45 0 70.5 39.5t25.5 103.5q0 59 -27.5 107.5t-70.5 48.5q-45 0 -69 -40.5t-24 -102.5q0 -59 26.5 -107.5t68.5 -48.5zM310 -4l-63 -8q-10 -1 -12 1.5t2 11.5q43 96 121 275t135.5 312t61.5 141q-143 -12 -220 -16v-2q27 -16 45.5 -54t18.5 -84q0 -77 -47 -134 t-138 -57q-87 0 -132 54t-45 122q0 77 48 134.5t141 57.5q75 0 163.5 6t149.5 11.5t69 5.5q10 0 10 -4q0 -1 -11 -29l-287 -732q-4 -11 -10 -12zM649 34q45 0 70.5 39.5t25.5 103.5q0 59 -27.5 107.5t-70.5 48.5q-45 0 -69 -40.5t-24 -102.5q0 -59 26.5 -107.5t68.5 -48.5z M645 0q-87 0 -132 54t-45 122q0 78 46 134.5t138 56.5q88 0 133.5 -54t45.5 -122q0 -77 -47 -134t-139 -57z" horiz-adv-x="868" unicode="%"/>
<glyph glyph-name="ampersand" d="M370 46q51 0 97 20t67 40q-102 88 -180 172q-82 89 -107 125q-69 -51 -69 -152q0 -91 56 -148t136 -57zM58 204q0 79 53 144t110 93q-51 68 -51 144q0 69 62 125.5t181 56.5q69 0 121 -21q17 -6 17 -26q0 -73 -11 -128q-2 -17 -12 -17q-7 0 -7 19q0 50 -29 84 q-37 45 -111 45q-39 0 -73 -28.5t-34 -85.5q0 -23 8 -47.5t16 -41.5t30.5 -46t31.5 -40t41 -45.5t39 -42.5q38 -43 176 -167q18 25 33 68.5t15 85.5q0 30 -19 46q-16 15 -49 15q-12 0 -12 8q0 10 16 10q55 0 120 -7q34 -4 34 -20q0 -57 -27 -121.5t-71 -115.5 q68 -56 139 -98q23 -14 57 -24.5t50 -10.5q14 0 14 -9t-30 -9h-77q-86 0 -129 14t-107 63q-26 -23 -47 -38.5t-74 -34t-116 -18.5q-76 0 -133 22t-87 56.5t-44 70.5t-14 72z" horiz-adv-x="830" unicode="&amp;"/>
<glyph glyph-name="quotesingle" d="M109 755q28 0 39.5 -2.5t11.5 -12.5q0 -4 -6.5 -25.5t-16 -65.5t-14.5 -99q-6 -50 -14 -50t-14 50q-5 55 -14.5 99t-16 65.5t-6.5 25.5q0 10 11.5 12.5t39.5 2.5z" horiz-adv-x="218" unicode="&apos;"/>
<glyph glyph-name="parenleft" d="M154 321q0 -245 138 -421q8 -11 8 -15q0 -7 -8 -7q-3 0 -10 5q-34 24 -69 60.5t-72 90t-60.5 126t-23.5 148.5t25.5 152t63.5 131.5t73 93t62 55.5q8 6 12 6q7 0 7 -8q0 -5 -6 -11q-47 -55 -93.5 -168t-46.5 -238z" horiz-adv-x="360" unicode="("/>
<glyph glyph-name="parenright" d="M206 303q0 245 -138 421q-8 11 -8 15q0 7 8 7q3 0 10 -5q34 -24 69 -60.5t72 -90t60.5 -126t23.5 -148.5t-25.5 -152t-63.5 -131.5t-73 -93t-62 -55.5q-8 -6 -12 -6q-7 0 -7 8q0 5 6 11q47 55 93.5 168t46.5 238z" horiz-adv-x="360" unicode=")"/>
<glyph glyph-name="asterisk" d="M185 634q-3 0 -4 -3q-4 -6 -16 -38.5t-15 -44.5q-5 -18 -5 -23q0 -8 -12 -8q-22 0 -44.5 9.5t-22.5 16.5q0 6 10 17q7 10 44.5 42t48.5 38q3 3 3 6t-4 3q-10 2 -44 2q-41 0 -46 -1q-14 -2 -17 -2q-5 0 -8.5 26t-3.5 45q0 8 2.5 10.5t10.5 2.5q20 0 59.5 -27t52.5 -41 q3 -3 7 -1q1 2 1 7q-3 31 -30 94q-6 12 -6 16q0 9 29 18.5t45 9.5q10 0 10 -11q0 -29 -33 -128q-2 -2 0 -6q1 -1 5 0q36 11 91 59q7 10 14 10q6 0 15 -30t9 -47q0 -7 -10 -8l-5 -1h-11h-14q-57 0 -85 3q-1 0 -5 -2q-2 -2 1 -7q10 -14 42 -39t42 -28q14 -3 14 -10 q0 -10 -25.5 -31t-34.5 -21q-7 0 -16 14q-22 49 -35 103q-3 6 -4 6z" horiz-adv-x="380" unicode="*"/>
<glyph glyph-name="plus" d="M509 223h-203v-204h-64v204h-202v61h202v204h64v-204h203v-61z" horiz-adv-x="549" unicode="+"/>
<glyph glyph-name="comma" d="M64 71q0 25 25.5 47t49.5 22q6 0 10 -4.5t15 -20.5q22 -32 22 -52q0 -18 -13 -48q-37 -84 -79 -133q-14 -12 -17 -12q-2 0 -5 3t-3 7q0 3 4 9.5t4 7.5q29 50 29 87q0 25 -10.5 43.5t-21 28.5t-10.5 15z" horiz-adv-x="250" unicode=","/>
<glyph glyph-name="hyphen" d="M75 315h284q32 0 32 -14q0 -10 -10 -13.5t-35 -8.5q-40 -6 -137.5 -23.5t-120.5 -24.5q-10 -3 -25 -9.5t-19 -6.5q-12 0 -8 18l15 69q2 9 6.5 11t17.5 2z" horiz-adv-x="425" unicode="-"/>
<glyph glyph-name="period" d="M124 0q-29 0 -44.5 18.5t-15.5 42.5q0 22 16 41.5t45 19.5q26 0 43.5 -16t17.5 -42q0 -27 -17 -45.5t-45 -18.5z" horiz-adv-x="250" unicode="."/>
<glyph glyph-name="slash" d="M53 -19l-35 23q-7 4 0 17l456 740q6 10 14 5l36 -22q7 -3 1 -12l-459 -745q-6 -10 -13 -6z" horiz-adv-x="542" unicode="/"/>
<glyph glyph-name="zero" d="M442 359q0 92 -15.5 171.5t-51.5 135.5t-88 56q-59 0 -94 -83t-35 -248q0 -93 14.5 -172t50.5 -135t88 -56q60 0 95.5 92t35.5 239zM559 398q0 -190 -70 -302.5t-197 -112.5q-56 0 -101 25t-72.5 64t-45.5 90t-25 98t-7 93q0 120 27.5 211t89 147t150.5 56 q57 0 102 -23.5t72.5 -60.5t45 -87t24.5 -98.5t7 -99.5z" horiz-adv-x="600" unicode="0"/>
<glyph glyph-name="one" d="M258 301l-1 159v131q0 15 -0.5 21t-4 10.5t-10.5 4.5q-8 0 -31.5 -9.5t-51 -23t-33.5 -15.5q-10 -4 -14 -4q-8 0 -8 11q0 8 10 14q2 1 52 33.5t106.5 70.5t72.5 50q19 13 26 13q12 0 12 -21q0 -1 -0.5 -14.5t-1.5 -37t-2 -53t-1.5 -71t-0.5 -84.5v-185q0 -181 4 -225 q2 -26 9.5 -37.5t30.5 -16.5q30 -6 66 -6q9 0 9 -10q0 -9 -16 -9q-44 0 -102 1.5t-65 1.5q-6 0 -70 -1.5t-101 -1.5q-17 0 -17 9q0 10 8 10q49 0 80 7q23 5 30.5 16t9.5 37q5 60 5 177v48z" horiz-adv-x="600" unicode="1"/>
<glyph glyph-name="two" d="M445 0h-392q-5 0 -9.5 4t-4.5 10q0 8 20 26q7 6 43 37.5t47 41.5t44 41t46.5 45.5t41 45.5t39.5 51.5t30.5 51.5t26.5 56.5t14.5 57t6.5 62.5q0 56 -14 96t-36.5 59t-43.5 27t-43 8q-67 0 -106 -36q-17 -17 -29.5 -46t-12.5 -50q0 -19 -13 -19q-7 0 -9 19q-6 54 -6 121 q0 12 12 20q74 38 181 38q125 0 188 -59.5t63 -153.5q0 -40 -13.5 -82t-31 -76.5t-51 -75t-57.5 -66t-67.5 -63.5t-63 -54t-60.5 -49q-4 -3 -3 -5t5 -2h68q128 0 172 6q94 11 114 89q4 16 12 16t8 -19q0 -12 -10.5 -64.5t-18.5 -78.5q-6 -20 -22 -25t-65 -5z" horiz-adv-x="600" unicode="2"/>
<glyph glyph-name="three" d="M226 -17q-109 0 -151 24q-17 9 -17 28q0 87 7 125q3 19 11 19q9 0 9 -14q0 -53 39.5 -93t110.5 -40q79 0 130 43t51 128q0 47 -19 84.5t-48 58.5t-54 32t-48 15q-32 6 -32 17t18 14q20 4 43.5 15t50 30t44 52.5t17.5 74.5q0 42 -32.5 82.5t-100.5 40.5q-59 0 -99 -31 t-40 -75q0 -15 -9 -15q-7 0 -8 14q-7 56 -7 100q0 13 14 19q82 36 177 36q67 0 115.5 -16t71 -41t31.5 -47.5t9 -43.5q0 -64 -51 -114t-95 -66v-2q30 -7 59.5 -21.5t57 -37.5t44.5 -59t17 -79q0 -108 -87 -182.5t-229 -74.5z" horiz-adv-x="600" unicode="3"/>
<glyph glyph-name="four" d="M347 275v309h-3q-125 -179 -223 -309h226zM347 197h-307q-25 0 -25 15q0 10 13 26q4 5 194.5 256.5t193.5 254.5q16 18 26 18q12 0 12 -17q0 -1 -0.5 -56t-0.5 -94v-325h77q16 0 31 5l15 5q9 0 9 -12q0 -7 -6 -30.5t-11 -32.5q-7 -13 -27 -13h-88v-36q0 -56 3 -85 q2 -26 10.5 -38.5t31.5 -17.5q19 -4 45 -4q9 0 9 -10q0 -9 -16 -9q-32 0 -83.5 1.5t-57.5 1.5q-11 0 -58.5 -1.5t-78.5 -1.5q-16 0 -16 9q0 10 8 10q23 0 47 3q26 3 35.5 17t11.5 40q3 29 3 85v36z" horiz-adv-x="600" unicode="4"/>
<glyph glyph-name="five" d="M192 -17q-56 0 -94 18q-12 6 -15.5 14t-3.5 25v34q0 68 4 92q4 18 11 18q9 0 9 -17q0 -134 136 -134q67 0 116 46t49 137q0 56 -27.5 102t-70 73t-82 42t-73.5 20q-19 3 -18 20l23 264q1 13 19 13h245q34 0 56 4q6 1 12.5 2t7.5 1q10 0 10 -19q0 -46 -13 -128 q-2 -12 -11 -12q-8 0 -8 14q0 26 -16.5 40t-71.5 14h-182l-14 -122q60 -10 115 -30t105.5 -53t80.5 -84t30 -113q0 -52 -19.5 -100.5t-57.5 -89.5t-103.5 -66t-148.5 -25z" horiz-adv-x="600" unicode="5"/>
<glyph glyph-name="six" d="M305 -17q-118 0 -191 77t-73 210q0 147 104.5 286.5t266.5 204.5q13 6 22 6q12 0 12 -9q0 -8 -25 -22q-47 -26 -90 -68t-81 -99.5t-61 -135.5t-23 -164q0 -96 40.5 -169t111.5 -73q55 0 90.5 42.5t35.5 125.5q0 97 -42.5 148.5t-98.5 51.5q-27 0 -52 -7q-3 -1 -8 -2.5 t-8.5 -2.5t-5.5 -1q-8 0 -8 10q0 8 11 15q51 36 130 36q97 0 150.5 -63t53.5 -140q0 -114 -74.5 -185.5t-186.5 -71.5z" horiz-adv-x="600" unicode="6"/>
<glyph glyph-name="seven" d="M230 750h320q24 0 24 -8q0 -9 -7 -18q-62 -88 -152.5 -317.5t-101.5 -325.5q-1 -6 -1 -14q0 -4 0.5 -11t0.5 -12q0 -15 -46.5 -38t-79.5 -23q-14 0 -14 12q0 19 7 41q24 84 111.5 273.5t182.5 348.5h-259q-67 0 -94 -18q-12 -8 -21.5 -27t-11.5 -33q-2 -13 -10 -13t-8 15 q0 22 7.5 92t7.5 72q0 14 10 14q1 0 6 -1t14 -2.5t23 -3t38 -2.5t54 -1z" horiz-adv-x="600" unicode="7"/>
<glyph glyph-name="eight" d="M417 605q0 55 -31.5 87t-78.5 32q-60 0 -91 -35.5t-31 -82.5q0 -45 31.5 -79.5t102.5 -74.5q98 44 98 153zM155 185q0 -66 42.5 -111t103.5 -45q60 0 100.5 41.5t40.5 109.5q0 29 -10 54.5t-23 43t-39.5 38t-44 32t-52.5 31.5q-118 -68 -118 -194zM293 -17 q-113 0 -182 52.5t-69 143.5q0 78 51.5 135t132.5 89q-145 75 -145 183q0 31 13.5 61.5t40.5 58t74.5 44.5t108.5 17q93 0 149 -40.5t56 -112.5q0 -70 -46 -117t-101 -68q36 -20 60 -35t56 -43t49 -65t17 -81q0 -93 -72 -157.5t-193 -64.5z" horiz-adv-x="600" unicode="8"/>
<glyph glyph-name="nine" d="M298 767q118 0 185 -77t67 -195q0 -80 -27 -155t-67 -130t-92 -103t-96.5 -77t-86.5 -49q-7 -4 -18 -4q-9 0 -9 10q0 7 12 17q43 26 85 67t83 98.5t66.5 135.5t25.5 162q0 125 -44.5 190t-107.5 65q-53 0 -86.5 -42t-33.5 -107q0 -53 15.5 -93t38.5 -59.5t43 -28t36 -8.5 q42 0 68 12q4 2 8.5 5t7 4.5t4.5 1.5q8 0 8 -9q0 -6 -5 -11q-43 -46 -132 -46q-99 0 -151.5 60t-52.5 133q0 102 70.5 167.5t185.5 65.5z" horiz-adv-x="600" unicode="9"/>
<glyph glyph-name="colon" d="M124 368q-29 0 -44.5 19t-15.5 42t15.5 42t45.5 19q26 0 43.5 -16t17.5 -42q0 -27 -17.5 -45.5t-44.5 -18.5zM124 30q-29 0 -44.5 18.5t-15.5 42.5q0 22 16 41.5t45 19.5q26 0 43.5 -16t17.5 -42q0 -27 -17 -45.5t-45 -18.5z" horiz-adv-x="250" unicode=":"/>
<glyph glyph-name="semicolon" d="M124 368q-29 0 -44.5 18.5t-15.5 41.5t15.5 42.5t45.5 19.5q26 0 43.5 -16t17.5 -42q0 -27 -17.5 -45.5t-44.5 -18.5zM64 81q0 25 25.5 47t49.5 22q6 0 10 -4.5t15 -20.5q22 -32 22 -52q0 -18 -13 -48q-37 -84 -79 -133q-14 -12 -17 -12q-2 0 -5 3t-3 7q0 3 4 9.5t4 7.5 q29 50 29 87q0 25 -10.5 43.5t-21 28.5t-10.5 15z" horiz-adv-x="250" unicode=";"/>
<glyph glyph-name="less" d="M509 19l-469 200v70l469 200v-67l-393 -168l393 -168v-67z" horiz-adv-x="549" unicode="&lt;"/>
<glyph glyph-name="equal" d="M509 128h-469v61h469v-61zM509 317h-469v61h469v-61z" horiz-adv-x="549" unicode="="/>
<glyph glyph-name="greater" d="M509 219l-469 -200v67l393 168l-393 168v67l469 -200v-70z" horiz-adv-x="549" unicode="&gt;"/>
<glyph glyph-name="question" d="M232 -17q-27 0 -41 17t-14 39q0 21 14.5 39t41.5 18q24 0 40 -14.5t16 -38.5q0 -25 -16 -42.5t-41 -17.5zM250 767q111 0 161.5 -46.5t50.5 -103.5q0 -36 -9 -68t-29.5 -62t-37 -50.5t-48 -53.5t-46.5 -51q-51 -60 -51 -88q0 -29 16 -51q8 -12 8 -18q0 -8 -9 -8 q-11 0 -51 31q-45 36 -45 63q0 24 20 51q9 12 32 39t34 41q50 68 69 112.5t19 93.5q0 51 -28.5 88t-90.5 37q-64 0 -95 -39q-32 -42 -35 -83q-2 -20 -9 -20t-10 13q-4 19 -4 117q0 9 11 16q67 40 177 40z" horiz-adv-x="532" unicode="?"/>
<glyph glyph-name="at" d="M498 476q-82 0 -122 -94q-27 -63 -27 -140q0 -53 19 -53q40 0 134 130q22 90 42 143q-18 14 -46 14zM705 161q-68 -47 -137 -47q-70 0 -77 93q0 2 -0.5 8t-0.5 9q0 24 4 44q-50 -68 -94 -109t-87 -41q-33 0 -48.5 26t-15.5 58q0 145 117 243q31 25 78 48.5t79 23.5 q28 0 54 -8q22 25 49 33q7 2 10 -3.5t1 -11.5q-21 -47 -35.5 -124t-14.5 -134q0 -91 54 -91q48 0 97.5 61t49.5 167q0 112 -73 185t-206 73q-163 0 -267 -118.5t-104 -298.5q0 -137 78 -216t203 -79q91 0 147 22t112 68q14 11 23 11q7 0 9 -5q1 -1 1 -4q0 -8 -18 -26 q-44 -44 -123.5 -76.5t-172.5 -32.5q-143 0 -237 84.5t-94 245.5q0 119 66.5 226t170.5 169.5t213 62.5q159 0 241.5 -78t82.5 -208q0 -75 -36 -140.5t-99 -109.5z" horiz-adv-x="902" unicode="@"/>
<glyph glyph-name="A" d="M224 308h184q7 0 5 6l-90 247q-2 9 -5 9q-4 0 -6 -9l-92 -246q-2 -7 4 -7zM427 258h-223q-6 0 -9 -8l-54 -143q-15 -37 -15 -61q0 -31 40 -31h15q15 0 15 -8q0 -10 -17 -10q-16 0 -53.5 1.5t-52.5 1.5l-43 -2q-44 -1 -75 -1q-19 0 -19 10q0 8 12 8q15 0 31 2 q32 4 50 25.5t35 64.5l251 628q10 23 15.5 31.5t12.5 8.5q11 0 25 -32q10 -23 111.5 -277.5t136.5 -337.5q41 -98 88 -109q20 -4 42 -4q13 0 13 -8q0 -10 -46 -10q-109 0 -189 2q-30 2 -30 8q0 8 14 9q6 2 9 8.5t0 14.5l-80 212q-3 7 -10 7z" horiz-adv-x="700" unicode="A"/>
<glyph glyph-name="B" d="M513 167q0 131 -97 199q-30 21 -83 24q-18 1 -43 1q-6 0 -6 -7v-237q0 -52 6 -69.5t29 -26.5q29 -12 73 -12q45 0 83 29.5t38 98.5zM284 693v-247q0 -9 7 -11q13 -3 47 -3q50 0 72 19q41 33 41 106q0 58 -33 106.5t-92 48.5q-23 0 -33 -2q-9 -3 -9 -17zM164 287v176 q0 180 -2 212q-2 27 -10.5 39.5t-32.5 17.5q-12 3 -39 3q-17 0 -17 9t22 9q31 0 80.5 -1.5t55.5 -1.5q26 0 66.5 1.5t55.5 1.5q64 0 109 -15.5t66 -40.5t29.5 -47.5t8.5 -46.5q0 -56 -26.5 -96t-75.5 -79q73 -25 127.5 -80.5t54.5 -135.5q0 -88 -69 -153t-198 -65 q-6 0 -31.5 1.5t-38.5 1.5q-45 3 -75 3q-33 0 -57 -1q-12 0 -35.5 -1t-33.5 -1q-20 0 -20 10q0 8 16 8q18 0 36 4q22 4 29 55q5 42 5 213z" horiz-adv-x="707" unicode="B"/>
<glyph glyph-name="C" d="M522 -17q-217 0 -343 109q-124 109 -124 295q0 66 26.5 140.5t90.5 133.5q116 106 316 106q68 0 145 -10q18 -2 51 -8.5t49 -8.5q15 -1 15 -12q0 -3 -1 -9.5t-2 -18.5t-2 -27q-1 -16 -1.5 -57t-1.5 -51q-2 -23 -12 -23t-10 22q-2 53 -39 92q-26 27 -81 44.5t-122 17.5 q-120 0 -188 -62q-92 -84 -92 -259q0 -85 30 -155.5t77.5 -112.5t101.5 -65t106 -23q71 0 112.5 11.5t70.5 44.5q26 29 34 66q2 12 4.5 16t8.5 4q9 0 9 -15q0 -11 -7.5 -60.5t-14.5 -72.5q-6 -21 -26 -29q-58 -23 -180 -23z" horiz-adv-x="800" unicode="C"/>
<glyph glyph-name="D" d="M289 479v-126q0 -164 2 -202q3 -64 11 -76q27 -40 131 -40q147 0 230 72q84 72 84 249q0 158 -96 250q-105 100 -284 100q-51 0 -65 -7q-12 -5 -12 -20q-1 -34 -1 -200zM164 287v176q0 180 -2 212q-2 27 -10.5 39.5t-32.5 17.5q-12 3 -39 3q-17 0 -17 9t22 9 q30 0 81.5 -1.5t62.5 -1.5q12 0 66 1.5t88 1.5q65 0 103.5 -2t99.5 -11.5t110 -35t88 -65.5q97 -101 97 -254q0 -168 -109 -279q-46 -47 -128.5 -82.5t-206.5 -35.5q-39 0 -115 6t-98 6q-33 0 -57 -1q-12 0 -35.5 -1t-33.5 -1q-20 0 -20 10q0 8 16 8q18 0 36 4q22 4 29 55 q5 42 5 213z" horiz-adv-x="936" unicode="D"/>
<glyph glyph-name="E" d="M164 287v176q0 180 -2 212q-2 27 -10.5 39.5t-32.5 17.5q-12 3 -39 3q-17 0 -17 9t22 9q14 0 41.5 -0.5t39.5 -0.5q52 -2 63 -2q231 0 250 1q33 3 43 6q1 0 7 2t9 2q6 0 6 -9q0 -2 -1.5 -8.5t-3.5 -21.5t-3 -35q0 -2 -2 -30.5t-3 -35.5q-2 -11 -10 -11q-9 0 -9 14 q0 22 -6 36q-6 15 -19 23.5t-48 12.5q-34 4 -142 4q-7 0 -7 -10v-253q0 -11 7 -11q137 0 160 2q37 3 48 15q11 13 16 13q7 0 7 -8q0 -2 -1 -9.5t-3 -24.5t-4 -39q0 -8 -1 -24t-2 -28t-1 -15q0 -19 -9 -19t-9 9q-3 33 -4 36q-8 34 -56 39q-28 3 -142 3q-6 0 -6 -10v-79v-109 v-46q2 -53 23.5 -68.5t96.5 -15.5q68 0 94 12q35 16 45 74q3 15 11 15t8 -18q0 -59 -13 -111q-5 -18 -14 -22t-40 -4q-44 0 -173 3q-64 3 -104 3q-33 0 -57 -1q-12 0 -35.5 -1t-33.5 -1q-20 0 -20 10q0 8 16 8q18 0 36 4q22 4 29 55q5 42 5 213z" unicode="E"/>
<glyph glyph-name="F" d="M290 368v-81q0 -171 5 -213q3 -25 10.5 -38.5t28.5 -16.5q28 -4 50 -4q17 0 17 -8q0 -10 -22 -10q-36 0 -90 1.5t-62 1.5q-11 0 -58.5 -1.5t-68.5 -1.5t-21 10q0 8 15 8q18 0 36 4q22 4 29 55q5 42 5 213v176q0 180 -2 212q-2 27 -10.5 39.5t-32.5 17.5q-12 3 -39 3 q-17 0 -17 8q0 10 23 10q13 0 40.5 -0.5t40.5 -0.5q52 -2 63 -2q241 0 264 1q34 2 41 4q2 1 7.5 3.5t8.5 2.5q7 0 7 -9q0 -3 -3 -17t-5 -28q0 -3 -2 -38.5t-3 -42.5q-2 -14 -10 -14q-9 0 -10 16q0 24 -6 38q-14 29 -66 30l-154 3q-9 0 -9 -14v-250q0 -9 7 -9l128 1 q31 0 45 1q30 2 43 18q8 10 13 10q6 0 6 -9q0 -2 -1.5 -11t-3.5 -23.5t-3 -27.5q-4 -40 -4 -73q0 -19 -10 -19q-8 0 -8 14q0 13 -6 31q-11 31 -51 36q-25 3 -148 3q-7 0 -7 -9z" horiz-adv-x="622" unicode="F"/>
<glyph glyph-name="G" d="M771 174v-110q0 -20 -2 -25.5t-11 -10.5q-86 -45 -241 -45q-95 0 -176 23t-146 69t-102.5 123t-37.5 177q0 113 49.5 197.5t124.5 129.5q65 39 128.5 52t140.5 13q97 0 177 -16q51 -10 79 -11q14 -1 14 -12q0 -1 -2 -17t-3.5 -54t-1.5 -93q0 -21 -11 -21q-8 0 -10 13 q-7 54 -34 83q-28 29 -87 53.5t-136 24.5q-123 0 -198 -62q-92 -77 -92 -245q0 -164 96 -270t252 -106q61 0 85 11q19 9 19 37v94q0 88 -1 118q-1 26 -10 39t-33 18q-12 3 -39 3q-15 0 -15 8q0 10 21 10q29 0 81 -1.5t64 -1.5q15 0 57.5 1.5t59.5 1.5q20 0 20 -10 q0 -8 -13 -8q-9 0 -27 -3q-37 -7 -38 -57q-1 -30 -1 -120z" horiz-adv-x="886" unicode="G"/>
<glyph glyph-name="H" d="M295 435h382q6 0 6 7v21q0 180 -2 212q-2 27 -10.5 39.5t-32.5 17.5q-12 3 -39 3q-17 0 -17 9t21 9q30 0 82 -1.5t62 -1.5t57.5 1.5t68.5 1.5t21 -9t-18 -9q-11 0 -29 -3q-20 -4 -27.5 -17t-9.5 -40q-2 -32 -2 -212v-176q0 -171 5 -214q5 -50 39 -54q28 -4 51 -4 q16 0 16 -8q0 -10 -20 -10q-37 0 -92 1.5t-64 1.5t-56 -1.5t-69 -1.5q-21 0 -21 10q0 8 16 8q18 0 36 4q22 4 29 55q5 42 5 213v88q0 6 -6 6h-382q-6 0 -6 -6v-88q0 -171 5 -214q5 -50 39 -54q28 -4 51 -4q16 0 16 -8q0 -10 -20 -10q-37 0 -92 1.5t-64 1.5t-56.5 -1.5 t-69.5 -1.5q-20 0 -20 10q0 8 16 8q18 0 36 4q22 4 29 55q5 42 5 213v176q0 180 -2 212q-2 27 -10.5 39.5t-32.5 17.5q-12 3 -39 3q-17 0 -17 9t21 9q30 0 82 -1.5t62 -1.5t57.5 1.5t68.5 1.5t21 -9t-18 -9q-11 0 -29 -3q-20 -4 -27.5 -17t-9.5 -40q-2 -32 -2 -212v-21 q0 -7 6 -7z" horiz-adv-x="972" unicode="H"/>
<glyph glyph-name="I" d="M164 287v176q0 180 -2 212q-3 49 -34 56q-15 4 -36 4q-16 0 -16 10q0 8 24 8q20 0 68.5 -1.5t61.5 -1.5q11 0 56 1.5t66 1.5t21 -8q0 -10 -16 -10q-12 0 -30 -3q-20 -4 -27.5 -17t-9.5 -40q-2 -32 -2 -212v-176q0 -176 4 -219q3 -23 11 -34.5t29 -14.5q28 -4 51 -4 q16 0 16 -8q0 -10 -19 -10q-38 0 -92.5 1.5t-63.5 1.5t-56.5 -1.5t-69.5 -1.5q-20 0 -20 10q0 8 16 8q18 0 36 4q24 5 29 50q5 42 5 218z" horiz-adv-x="452" unicode="I"/>
<glyph glyph-name="J" d="M164 176v287q0 180 -2 212q-2 27 -10.5 39.5t-32.5 17.5q-12 3 -39 3q-17 0 -17 9t22 9q30 0 81 -1.5t61 -1.5t57.5 1.5t68.5 1.5t21 -9t-18 -9q-11 0 -29 -3q-20 -4 -27.5 -17t-9.5 -40q-2 -32 -2 -212v-185q0 -21 1.5 -68t1.5 -73q0 -110 -24 -177q-37 -107 -170 -189 q-16 -10 -50 -26q-11 -6 -20 -6q-8 0 -8 8q0 6 22 18t48 38q51 52 63 124t12 234v15z" horiz-adv-x="416" unicode="J"/>
<glyph glyph-name="K" d="M286 463v-44h5q11 12 101.5 106.5t107.5 113.5q50 59 50 75q0 17 -14 20q-13 3 -13 10q0 9 16 9q10 0 49.5 -1.5t53.5 -1.5q16 0 59 1.5t58 1.5q17 0 17 -9t-15 -9q-28 0 -58 -11q-52 -20 -108 -75q-140 -135 -216 -216q25 -33 132 -149t139 -146q74 -70 110 -92 q17 -10 33 -16q38 -15 62 -15q13 0 13 -8q0 -10 -24 -10h-87q-48 0 -69 2q-37 3 -62 17.5t-62 47.5q-30 26 -136 149t-126 150l-11 15h-5v-91q0 -171 3 -214q3 -49 36 -54q28 -4 49 -4q13 0 13 -8q0 -10 -19 -10q-32 0 -83.5 1.5t-60.5 1.5t-56.5 -1.5t-69.5 -1.5 q-20 0 -20 10q0 8 16 8q18 0 36 4q22 4 29 55q5 42 5 213v176q0 180 -2 212q-2 27 -10.5 39.5t-32.5 17.5q-12 3 -39 3q-17 0 -17 9t22 9q30 0 81 -1.5t59 -1.5q11 0 57 1.5t64 1.5q21 0 21 -9t-14 -9q-10 0 -28 -3q-20 -4 -27.5 -17t-9.5 -40q-2 -32 -2 -212z" horiz-adv-x="768" unicode="K"/>
<glyph glyph-name="L" d="M289 463v-176q0 -113 3.5 -158t17.5 -57q25 -22 121 -22q48 0 74 5t43 23q22 24 26 60q2 15 11 15q8 0 8 -17q0 -12 -5 -54t-10 -61q-5 -17 -15 -22t-48 -5q-34 0 -169 3q-68 3 -122 3q-33 0 -57 -1q-12 0 -35.5 -1t-33.5 -1q-20 0 -20 10q0 8 16 8q18 0 36 4q22 4 29 55 q5 42 5 213v176q0 180 -2 212q-2 27 -10.5 39.5t-32.5 17.5q-12 3 -33 3q-17 0 -17 9t22 9q26 0 76 -1.5t61 -1.5q10 0 62.5 1.5t73.5 1.5t21 -9t-18 -9q-21 0 -39 -3q-20 -4 -27.5 -17t-9.5 -40q-2 -32 -2 -212z" horiz-adv-x="605" unicode="L"/>
<glyph glyph-name="M" d="M102 97l99 652q5 26 17 26t27 -31l273 -564l272 571q12 24 22 24q14 0 18 -31l91 -618q7 -50 17 -72.5t32 -28.5q32 -10 62 -10q16 0 16 -7q0 -11 -26 -11q-123 0 -203 6q-29 3 -29 11q0 6 11 11q7 2 7 21q0 4 -2 22l-60 440h-4l-218 -454q-18 -37 -24 -46.5t-13 -9.5 q-8 0 -35 50q-99 190 -115 227q-4 9 -21.5 46.5t-43.5 92.5t-39 83h-4l-52 -398q-3 -27 -3 -47q0 -25 30 -32q22 -5 42 -5q15 0 15 -7q0 -11 -24 -11t-61.5 1.5t-43.5 1.5q-8 0 -44.5 -1.5t-54.5 -1.5t-18 11q0 7 16 7q15 0 30 3q30 7 41 79z" horiz-adv-x="1043" unicode="M"/>
<glyph glyph-name="N" d="M209 553l11 -420q3 -100 35 -111q20 -7 52 -7q17 0 17 -8q0 -10 -23 -10q-38 0 -79 1.5t-45 1.5q-3 0 -19 -0.5t-41 -1.5t-48 -1q-22 0 -22 10q0 8 16 8q27 0 45 5q19 6 24.5 31t6.5 93l9 592q0 34 13 34q3 0 6 -1.5t7 -4.5t6.5 -6t8.5 -9t9 -10q146 -158 310 -321 q29 -29 81 -83t92 -96.5t47 -48.5h5l-10 449q-1 45 -8.5 63.5t-25.5 26.5q-15 6 -53 6q-16 0 -16 9t26 9q30 0 72 -1.5t49 -1.5q1 0 35 1.5t63 1.5q23 0 23 -9t-18 -9t-30 -3q-21 -6 -28.5 -24t-8.5 -61l-11 -631q0 -31 -13 -31q-12 0 -34 22q-36 34 -147.5 146t-147.5 148 q-38 37 -81 82t-72 77t-55.5 60.5t-29.5 32.5h-3z" horiz-adv-x="947" unicode="N"/>
<glyph glyph-name="O" d="M500 33q26 0 51.5 5.5t60 25.5t59.5 53t43 95t18 144q0 164 -83.5 263.5t-209.5 99.5q-47 0 -87.5 -14.5t-78 -48t-59 -97.5t-21.5 -153q0 -161 83.5 -267t223.5 -106zM458 -17q-103 0 -183.5 36t-126.5 94.5t-69.5 125t-23.5 136.5q0 53 14 106.5t45.5 105.5t78 91.5 t117.5 64t158 24.5q186 0 295 -101t109 -273q0 -176 -113.5 -293t-300.5 -117z" horiz-adv-x="927" unicode="O"/>
<glyph glyph-name="P" d="M164 287v176q0 180 -2 212q-2 27 -10.5 39.5t-32.5 17.5q-12 3 -39 3q-17 0 -17 9t22 9q30 0 81.5 -1.5t62.5 -1.5q20 0 70.5 1.5t74.5 1.5q125 0 186 -57q50 -48 50 -119q0 -106 -69.5 -174t-176.5 -68q-16 0 -21 1q-12 2 -12 9q0 11 28 11q47 0 90.5 47t43.5 118 q0 97 -59 150q-43 39 -100 39q-27 0 -39 -4q-8 -3 -8 -19v-400q0 -171 5 -214q5 -50 39 -54q28 -4 51 -4q16 0 16 -8q0 -10 -19 -10q-38 0 -92.5 1.5t-62.5 1.5q-9 0 -56.5 -1.5t-69.5 -1.5q-20 0 -20 10q0 8 16 8q18 0 36 4q22 4 29 55q5 42 5 213z" horiz-adv-x="655" unicode="P"/>
<glyph glyph-name="Q" d="M499 33q29 0 55.5 5.5t60 26t57.5 54t41 96t17 146.5q0 87 -25.5 157.5t-67 113t-92 65t-103.5 22.5q-108 0 -178 -76.5t-70 -239.5q0 -171 89 -270.5t216 -99.5zM776 -83l-157 92q-69 -26 -157 -26q-85 0 -154.5 24t-115.5 63.5t-77.5 92t-45.5 107t-14 110.5 q0 65 24 130t70.5 124t129 96t186.5 37q181 0 293 -102.5t112 -276.5q0 -62 -17.5 -118.5t-46.5 -97t-56 -68t-54 -45.5l201 -103q232 -119 412 -119q106 0 195 35l15 5q9 0 9 -9q0 -7 -12 -12q-155 -75 -317 -75q-110 0 -203 30.5t-220 105.5z" horiz-adv-x="930" unicode="Q"/>
<glyph glyph-name="R" d="M282 688v-304q0 -14 9 -18q30 -10 76 -10q47 0 71 17q59 43 59 150q0 95 -48.5 139t-104.5 44q-40 0 -53 -4q-9 -3 -9 -14zM164 287v176q0 180 -2 212q-2 27 -10.5 39.5t-32.5 17.5q-12 3 -39 3q-17 0 -17 9t22 9q31 0 81 -1.5t56 -1.5q17 0 71.5 1.5t69.5 1.5 q121 0 184 -43q25 -17 46.5 -54t21.5 -83q0 -59 -29.5 -112t-102.5 -112q168 -212 217 -263q55 -57 112 -68q17 -3 28 -3q12 0 12 -8q0 -10 -19 -10h-95q-72 0 -107 19q-30 16 -60 49.5t-77 97.5q-16 22 -39.5 55t-38.5 54.5t-21 28.5t-18 7l-87 2q-8 0 -8 -8v-14 q0 -172 5 -214q3 -25 10.5 -38.5t28.5 -16.5q30 -4 49 -4q12 0 12 -8q0 -10 -20 -10q-34 0 -89.5 1.5t-57.5 1.5q-7 0 -53 -1.5t-69 -1.5q-20 0 -20 10q0 8 16 8q18 0 36 4q22 4 29 55q5 42 5 213z" horiz-adv-x="755" unicode="R"/>
<glyph glyph-name="S" d="M255 -17q-87 0 -146 26q-12 5 -15.5 11.5t-3.5 22.5q0 51 5 131q2 26 12 26t10 -17q0 -20 9 -51q30 -101 143 -101q63 0 98.5 35t35.5 79q0 41 -20 78t-78 82l-46 36q-80 63 -114 118.5t-34 118.5q0 83 64 136t167 53q70 0 133 -17q14 -3 14 -12q0 -4 -1 -18t-2 -41 t-1 -61q0 -30 -11 -30q-10 0 -10 18q0 34 -26 66q-39 49 -109 49q-55 0 -87 -28.5t-32 -74.5q0 -35 22.5 -66.5t83.5 -77.5l28 -21q90 -68 127 -125.5t37 -129.5q0 -113 -94 -174q-64 -41 -159 -41z" horiz-adv-x="582" unicode="S"/>
<glyph glyph-name="T" d="M297 287v410l-149 -4q-45 -2 -65.5 -7.5t-31.5 -21.5q-13 -20 -17 -35q-3 -12 -11 -12q-9 0 -9 16q0 31 21 115q4 19 12 19q2 0 15.5 -5.5t27.5 -6.5q48 -5 100 -5h396q32 0 69 5q25 5 27 5q8 0 8 -21q0 -10 -1.5 -56t-1.5 -60q-2 -16 -9 -16q-10 0 -11 20l-1 11 q-4 53 -118 56l-126 3v-410q0 -171 5 -214q5 -50 39 -54q28 -4 51 -4q16 0 16 -8q0 -10 -19 -10q-38 0 -93 1.5t-64 1.5t-56.5 -1.5t-69.5 -1.5q-20 0 -20 10q0 8 16 8q18 0 36 4q24 5 29 55q5 42 5 213z" horiz-adv-x="710" unicode="T"/>
<glyph glyph-name="U" d="M121 317v146q0 180 -2 212q-2 27 -10.5 39.5t-32.5 17.5q-12 3 -39 3q-17 0 -17 9t22 9q29 0 81.5 -1.5t64.5 -1.5q10 0 57 1.5t66 1.5q22 0 22 -9t-16 -9q-11 0 -29 -3q-20 -4 -27.5 -17t-9.5 -40q-2 -32 -2 -212v-140q0 -103 19.5 -158.5t58.5 -87.5q50 -41 125 -41 q84 0 138 54q37 37 47.5 94.5t10.5 153.5v125q0 180 -2 212q-2 27 -10.5 39.5t-32.5 17.5q-12 3 -36 3q-17 0 -17 9t21 9q14 0 31 -0.5t31.5 -0.5t26.5 -0.5t19 -1.5h7q3 0 47 1.5t67 1.5q21 0 21 -9t-18 -9q-11 0 -29 -3q-20 -4 -27.5 -17t-9.5 -40q-2 -32 -2 -212v-107 q0 -102 -19 -177t-76 -124q-84 -72 -208 -72q-146 0 -222 69q-89 80 -89 265z" horiz-adv-x="852" unicode="U"/>
<glyph glyph-name="V" d="M324 44l-252 611q-16 39 -31.5 53.5t-44.5 22.5q-15 4 -39 4q-12 0 -12 9t26 9q29 0 79.5 -1.5t65.5 -1.5q9 0 52 1.5t71 1.5q23 0 23 -9t-15 -9q-30 0 -39 -7q-10 -7 -10 -21q0 -18 23 -77l172 -454h4q16 41 62 156.5t85.5 214t49.5 127.5q9 23 9 37q0 15 -13 19 q-15 5 -40 5q-17 0 -17 8q0 10 28 10q30 0 66.5 -1.5t38.5 -1.5q7 0 42 1.5t52 1.5q21 0 21 -9t-16 -9q-31 0 -49 -12q-24 -17 -55 -90q-22 -53 -61.5 -140t-58.5 -131q-36 -82 -80.5 -184t-52.5 -121l-6 -12q-24 -55 -33 -60q-3 -2 -7 -2q-9 0 -16 11.5t-22 49.5z" horiz-adv-x="724" unicode="V"/>
<glyph glyph-name="W" d="M287 20l-212 635q-19 58 -37 71q-14 9 -40 9q-16 0 -16 9t22 9q23 0 50 -0.5t45 -1.5t21 -1q2 0 18 1t41.5 1.5t51.5 0.5q21 0 21 -9t-18 -9t-25 -4q-11 -5 -11 -22q0 -9 22 -92q35 -135 128 -425h3l194 521q13 36 25 36q7 0 12 -8.5t14 -30.5q2 -5 3 -8l208 -503h3 q9 33 133 448q10 33 10 58q0 30 -48 30q-17 0 -17 9t23 9t47 -0.5t39 -1.5t18 -1l31 2q32 1 52 1q18 0 18 -8q0 -10 -14 -10q-21 0 -35 -5q-5 -2 -9.5 -5.5t-8.5 -10t-7 -12t-7.5 -16.5t-7 -17.5t-8 -21.5t-8.5 -23q-57 -155 -200 -594q-9 -28 -14.5 -37.5t-14.5 -9.5 q-7 0 -13 10t-18 39l-208 501h-2q-146 -393 -195 -497q-22 -48 -30 -52q-3 -1 -6 -1q-7 0 -11 7.5t-12 29.5z" horiz-adv-x="1085" unicode="W"/>
<glyph glyph-name="X" d="M576 651l-164 -236q9 -14 107 -173.5t112 -178.5q24 -32 58 -42q20 -6 38 -6q13 0 13 -8q0 -10 -19 -10h-30q-103 0 -180 2q-34 1 -34 10q0 8 14 11q4 1 5.5 7t-3.5 16q-95 169 -158 272l-148 -239q-14 -23 -14 -39t19 -20q12 -2 23 -2q12 0 12 -9t-20 -9h-18 q-1 0 -40 1.5t-54 1.5q-10 0 -43 -1.5t-41 -1.5h-17q-15 0 -15 9t14 9q18 0 37 5q21 6 38.5 22t43.5 53l191 273l-172 285q-36 60 -83 75q-22 7 -42 7q-10 0 -10 10q0 8 20 8q9 0 67.5 -1.5t84.5 -1.5q4 0 45 1.5t62 1.5q20 0 20 -9t-15 -9q-16 0 -27 -4q-12 -4 -12 -16 q0 -11 10 -29q19 -35 41 -73.5t47.5 -81.5t38.5 -66q123 186 136 211q11 19 11 38q0 13 -17 18q-10 3 -32 3q-12 0 -12 9t21 9q22 0 57.5 -1.5t42.5 -1.5q8 0 42.5 1.5t55.5 1.5q18 0 18 -9t-16 -9q-15 0 -36 -6q-16 -4 -31.5 -21.5t-41.5 -56.5z" horiz-adv-x="712" unicode="X"/>
<glyph glyph-name="Y" d="M276 174v82q0 54 -23 105q-5 12 -77.5 131t-98.5 157q-37 54 -69 73q-24 13 -42 13q-15 0 -15 9t19 9q7 0 57.5 -1.5t68.5 -1.5q8 0 45 1.5t62 1.5q15 0 15 -9q0 -5 -22 -11q-14 -3 -14 -18q0 -10 12 -34q4 -8 170 -299q5 12 74 136t76 139q14 31 14 52q0 20 -21 25 q-18 4 -18 10q0 9 17 9t48.5 -1.5t45.5 -1.5q11 0 54.5 1.5t52.5 1.5q18 0 18 -8q0 -10 -19 -10q-22 0 -44 -12q-23 -11 -54 -49q-24 -29 -100.5 -157t-90.5 -161q-15 -36 -15 -100v-82q0 -58 3 -100q3 -50 41 -55q28 -4 50 -4q16 0 16 -8q0 -10 -21 -10q-36 0 -90 1.5 t-63 1.5q-11 0 -58 -1.5t-67 -1.5q-22 0 -22 10q0 8 16 8q17 0 35 4q28 6 31 55q3 42 3 100z" horiz-adv-x="670" unicode="Y"/>
<glyph glyph-name="Z" d="M222 55h246q128 0 157 55q12 22 18 48q3 16 10 16q10 0 10 -31q0 -51 -20 -122q-7 -26 -30 -26q-79 0 -255.5 2.5t-281.5 2.5q-17 0 -17 10q0 7 15 30q54 84 201 311.5t222 345.5h-196q-107 0 -144 -21q-23 -12 -37 -35t-17 -43q-3 -18 -12 -18q-8 0 -8 17q0 24 20 144 q3 19 12 19q3 0 14.5 -3t25.5 -4q63 -3 139 -3h45h305q17 0 17 -8q0 -5 -8 -19q-110 -178 -431 -668z" horiz-adv-x="710" unicode="Z"/>
<glyph glyph-name="bracketleft" d="M188 617v-606q0 -64 7 -93q27 -13 107 -21q17 -1 17 -10t-12 -9h-190q-11 0 -13.5 2.5t-2.5 13.5v839q0 8 3 10.5t13 2.5h191q12 0 12 -9t-17 -10q-79 -8 -108 -21q-7 -29 -7 -89z" horiz-adv-x="360" unicode="["/>
<glyph glyph-name="backslash" d="M525 4l-35 -23q-7 -4 -13 6l-459 745q-6 9 1 12l36 22q8 5 14 -5l456 -740q7 -13 0 -17z" horiz-adv-x="542" unicode="\"/>
<glyph glyph-name="bracketright" d="M172 7v606q0 64 -7 93q-27 13 -107 21q-17 1 -17 10t12 9h190q11 0 13.5 -2.5t2.5 -13.5v-839q0 -8 -3 -10.5t-13 -2.5h-191q-12 0 -12 9t17 10q80 8 108 21q7 29 7 89z" horiz-adv-x="360" unicode="]"/>
<glyph glyph-name="asciicircum" d="M501 300h-68l-159 372l-159 -372h-68l192 448h70z" horiz-adv-x="549" unicode="^"/>
<glyph glyph-name="underscore" d="M0 -75h500v-50h-500v50z" horiz-adv-x="500" unicode="_"/>
<glyph glyph-name="grave" d="M537 837q0 -7 -11 -7q-10 0 -93 35t-110 48q-33 14 -33 25q0 6 13 9q41 13 67 25q15 7 19 7q2 0 3.5 -1.5t2.5 -4t4 -7.5t6 -9q9 -12 44.5 -46t66.5 -56l7.5 -5t7 -4.5t4.5 -4t2 -4.5z" horiz-adv-x="927" unicode="`"/>
<glyph glyph-name="a" d="M200 258h170q6 0 4 5l-83 216q-3 8 -4 8q-2 0 -5 -8l-85 -215q-3 -6 3 -6zM389 211h-207q-6 0 -8 -6l-47 -114q-13 -30 -13 -52q0 -24 35 -24h13q13 0 13 -9t-14 -9q-15 0 -49.5 1.5t-48.5 1.5q-3 0 -19 -0.5t-39.5 -1.5t-43.5 -1q-16 0 -16 9t10 9q4 0 13 0.5t13 0.5 q28 4 43 21.5t30 53.5l230 535q14 34 26 34q9 0 13.5 -5.5t12.5 -21.5q10 -23 102.5 -240.5t121.5 -283.5q37 -84 75 -91q19 -3 33 -3q12 0 12 -9t-38 -9q-95 0 -169 2q-26 2 -26 7q0 8 11 9q5 1 8 6.5t0 12.5l-68 171q-2 6 -9 6z" unicode="a"/>
<glyph glyph-name="b" d="M258 323v-193q0 -44 5.5 -60t25.5 -24q26 -10 63 -10q43 0 75.5 28t32.5 92q0 37 -19 79t-64 72q-30 22 -76 22h-38q-5 0 -5 -6zM258 585v-205q0 -7 6 -9q12 -3 41 -3q50 0 69 15q40 31 40 90q0 49 -28.5 88.5t-81.5 39.5q-29 0 -38 -2q-8 -1 -8 -14zM144 244v150 q0 153 -1 180q-1 22 -9 31t-29 15q-11 3 -35 3q-15 0 -15 9q0 8 20 8q27 0 70.5 -1t48.5 -1q24 0 71.5 1t60.5 1q56 0 95.5 -13t58 -34t26 -40.5t7.5 -39.5q0 -86 -99 -149q64 -20 113 -68t49 -116q0 -75 -60 -130t-174 -55q-25 0 -70 3q-60 2 -75 2q-4 0 -21 -0.5t-29 -0.5 q-42 -2 -61 -2q-17 0 -17 9t14 9q19 0 31 3q21 5 26 45q4 36 4 181z" horiz-adv-x="640" unicode="b"/>
<glyph glyph-name="c" d="M460 -14q-192 0 -302 92t-110 251q0 56 23.5 119.5t79.5 113.5q103 90 279 90q56 0 128 -9q11 -2 42 -7t46 -7q13 -1 13 -10q0 -3 -0.5 -8t-1.5 -15.5t-2 -23.5q-1 -16 -2 -51t-1 -41q-2 -21 -12 -21q-9 0 -9 18q-2 47 -34 79q-52 50 -170 50q-110 0 -166 -48 q-81 -70 -81 -221q0 -72 26 -131t67 -94.5t88 -54t93 -18.5q63 0 97 8.5t59 36.5t30 57q3 17 11 17q10 0 10 -15q0 -10 -6.5 -52t-12.5 -61q-5 -18 -23 -25q-47 -19 -159 -19z" horiz-adv-x="705" unicode="c"/>
<glyph glyph-name="d" d="M262 407v-107q0 -138 2 -172q2 -50 10 -60q23 -34 115 -34q122 0 192 58q75 62 75 211q0 74 -24 128t-58 84q-91 81 -246 81q-44 0 -54 -6q-11 -4 -11 -17q-1 -29 -1 -166zM144 244v150q0 153 -1 180q-1 22 -9 31t-29 15q-11 3 -35 3q-15 0 -15 9q0 8 20 8q26 0 71.5 -1 t55.5 -1t61.5 1t81.5 1q57 0 91 -2t88 -10t97.5 -29.5t77.5 -55.5q83 -83 83 -216q0 -143 -96 -237q-39 -39 -113 -69.5t-182 -30.5q-17 0 -105 5q-58 5 -89 5q-4 0 -21 -0.5t-29 -0.5q-42 -2 -61 -2q-17 0 -17 9t14 9q19 0 31 3q21 5 26 45q4 36 4 181z" horiz-adv-x="831" unicode="d"/>
<glyph glyph-name="e" d="M144 244v150q0 153 -1 180q-1 22 -9 31t-29 15q-11 3 -35 3q-15 0 -15 9q0 8 20 8q26 0 71.5 -1t55.5 -1h176h64q4 0 37 5q2 0 7 2t7 2q6 0 6 -8q0 -2 -1.5 -7.5t-3 -18t-2.5 -29.5q0 -1 -2 -25.5t-3 -30.5q-3 -14 -10 -14t-7 11q0 19 -6 31q-6 14 -17 21t-41 10 q-30 4 -138 4q-6 0 -6 -8v-210q0 -9 6 -9q134 0 154 2q33 3 42 13q13 11 14 11q7 0 7 -9q0 -2 -7 -62q-4 -34 -4 -57q0 -19 -9 -19q-8 0 -8 7q0 2 -1 13.5t-2 17.5q-9 29 -49 33q-32 4 -138 4q-5 0 -5 -9v-68v-89v-37q1 -43 25.5 -57t93.5 -14q58 0 83 11q29 13 38 63 q3 13 10 13q8 0 8 -20q0 -53 -12 -94q-4 -16 -12 -19t-35 -3q-97 0 -162 3q-86 2 -102 2q-4 0 -21 -0.5t-29 -0.5q-42 -2 -61 -2q-17 0 -17 9t14 9q19 0 31 3q21 5 26 45q4 36 4 181z" horiz-adv-x="576" unicode="e"/>
<glyph glyph-name="f" d="M262 311v-70q0 -133 5 -178q3 -21 10 -31.5t25 -13.5t43 -3q15 0 15 -9t-19 -9q-32 0 -83 1.5t-58 1.5q-10 0 -52 -1.5t-60 -1.5t-18 9t13 9q19 0 31 3q21 5 26 45q4 36 4 181v150q0 153 -1 180q-2 22 -9.5 31.5t-28.5 14.5q-11 3 -35 3q-15 0 -15 9q0 8 21 8 q25 0 70.5 -1t55.5 -1h183h67q25 2 36 4q2 0 6.5 2.5t7.5 2.5q6 0 6 -8q0 -2 -1 -7t-3 -13.5t-3 -17.5q-1 -5 -2.5 -34.5t-1.5 -34.5q-2 -17 -9 -17q-11 0 -11 14v6q0 15 -5 26q-12 25 -56 26l-146 3q-8 0 -8 -12v-206q0 -8 6 -8l123 1q27 0 40 1q27 2 37 15q9 9 12 9 q5 0 5 -8q0 -2 -1 -9.5t-3 -21t-3 -24.5q-3 -25 -3 -62q0 -19 -10 -19q-8 0 -8 12q0 11 -6 26q-10 29 -42 31q-33 3 -141 3q-6 0 -6 -7z" horiz-adv-x="567" unicode="f"/>
<glyph glyph-name="g" d="M681 148v-94q0 -18 -1.5 -22t-9.5 -8q-77 -38 -215 -38q-113 0 -202 33t-147 110t-58 190q0 96 43.5 167.5t110.5 110.5q94 55 237 55q93 0 156 -14q48 -8 70 -9q12 -1 12 -10q0 -1 -1.5 -14.5t-3 -46t-1.5 -79.5q0 -19 -12 -19q-7 0 -9 11q-5 43 -30 70q-24 25 -74 45 t-117 20q-32 0 -53 -2t-55 -13.5t-62 -34.5q-81 -66 -81 -207q0 -139 83.5 -227.5t222.5 -88.5q41 0 62 9q17 8 17 30v78q0 74 -1 100q-1 21 -9 30.5t-29 15.5q-11 3 -34 3q-14 0 -14 9q0 8 19 8q25 0 75 -1t60 -1q14 0 51 1t52 1q18 0 18 -8q0 -9 -11 -9q-9 0 -24 -3 q-33 -5 -34 -46q-1 -26 -1 -102z" horiz-adv-x="783" unicode="g"/>
<glyph glyph-name="h" d="M268 363h332q5 0 5 6v18q0 133 -2 187q-1 22 -9 31t-29 15q-10 3 -34 3q-15 0 -15 9q0 8 19 8q27 0 75 -1t57 -1t51.5 1t61.5 1t19 -8q0 -9 -16 -9q-10 0 -26 -3q-17 -3 -23.5 -13t-8.5 -33q-2 -27 -2 -180v-150q0 -145 4 -182q3 -21 9.5 -31t25.5 -13q18 -3 45 -3 q14 0 14 -9t-18 -9q-33 0 -82 1.5t-57 1.5t-52.5 -1.5t-63.5 -1.5t-19 9t14 9q20 0 32 3q21 5 26 45q4 36 4 179v65q0 5 -5 5h-332q-6 0 -6 -5v-65q0 -134 5 -180q3 -21 9.5 -31t24.5 -13t45 -3q14 0 14 -9t-18 -9q-33 0 -83.5 1.5t-59.5 1.5q-8 0 -51 -1.5t-62 -1.5 q-17 0 -17 9t14 9q19 0 31 3q21 5 26 45q4 36 4 181v150q0 153 -1 180q-1 22 -9 31t-29 15q-11 3 -35 3q-15 0 -15 9q0 8 19 8q26 0 73 -1t56 -1t53.5 1t63.5 1q18 0 18 -8q0 -9 -16 -9q-10 0 -25 -3q-18 -3 -24.5 -13t-8.5 -33q-2 -27 -2 -187v-18q0 -6 6 -6z" horiz-adv-x="867" unicode="h"/>
<glyph glyph-name="i" d="M144 244v150q0 153 -1 180q-1 21 -8 30.5t-22 14.5q-13 4 -32 4q-14 0 -14 10q0 7 21 7q18 0 62.5 -1t55.5 -1q10 0 52 1t61 1q18 0 18 -7q0 -10 -14 -10q-11 0 -26 -3q-18 -3 -24.5 -13t-8.5 -33q-2 -27 -2 -180v-150q0 -150 4 -186q2 -19 9.5 -28t25.5 -12t45 -3 q14 0 14 -9t-17 -9q-33 0 -83.5 1.5t-58.5 1.5t-52 -1.5t-63 -1.5q-17 0 -17 9t14 9q19 0 31 3q22 5 26 41q4 35 4 185z" horiz-adv-x="407" unicode="i"/>
<glyph glyph-name="j" d="M144 150v244q0 153 -1 180q-1 22 -9 31t-29 15q-11 3 -35 3q-15 0 -15 9q0 8 20 8q26 0 75 -1t58 -1t51 1t61 1q18 0 18 -8q0 -9 -16 -9q-10 0 -25 -3q-18 -3 -24.5 -13t-8.5 -33q-2 -27 -2 -180v-158q0 -17 1.5 -57.5t1.5 -62.5q0 -94 -21 -150q-32 -88 -158 -162 q-16 -9 -44 -22q-8 -4 -18 -4q-7 0 -7 8q0 6 19 15q18 9 42 33q45 43 55.5 104t10.5 198v14z" horiz-adv-x="373" unicode="j"/>
<glyph glyph-name="k" d="M259 394v-38h4q13 14 91.5 92.5t92.5 94.5q44 49 44 63t-12 17t-12 9q0 8 14 8q9 0 43.5 -1t47.5 -1t51 1t52 1q15 0 15 -8q0 -9 -13 -9q-24 0 -51 -10q-42 -15 -93 -63q-148 -138 -186 -181q21 -28 114.5 -126t123.5 -126q4 -3 27 -24.5t31.5 -28.5t26.5 -19t35 -19 q26 -11 54 -11q12 0 12 -9t-21 -9h-77q-42 0 -61 2q-33 3 -58 15.5t-56 39.5q-26 22 -117 126.5t-109 128.5l-9 12h-4v-77q0 -145 2 -182q3 -39 32 -44q18 -3 43 -3q12 0 12 -9t-17 -9q-28 0 -77 1.5t-57 1.5t-50 -1.5t-61 -1.5q-17 0 -17 9t14 9q19 0 31 3q21 5 26 45 q4 36 4 181v150q0 153 -1 180q-1 22 -9 31t-29 15q-11 3 -35 3q-15 0 -15 9q0 8 20 8q26 0 71 -1t52 -1q10 0 54 1t59 1q19 0 19 -8q0 -9 -12 -9q-8 0 -25 -3q-18 -3 -24.5 -13t-8.5 -33q-1 -27 -1 -180z" horiz-adv-x="685" unicode="k"/>
<glyph glyph-name="l" d="M262 394v-150q0 -95 3 -131.5t16 -47.5q21 -18 117 -18q42 0 65 4t38 20q18 18 22 51q2 13 10 13t8 -19q0 -11 -4 -46t-9 -52q-5 -15 -14 -19t-42 -4q-92 0 -158 3q-88 2 -117 2q-4 0 -21 -0.5t-29 -0.5q-42 -2 -61 -2q-17 0 -17 9t14 9q19 0 31 3q21 5 26 45q4 36 4 181 v150q0 153 -1 180q-1 22 -9 31t-29 15q-11 3 -29 3q-15 0 -15 9q0 8 19 8q23 0 67 -1t54 -1q9 0 58.5 1t68.5 1t19 -8q0 -9 -16 -9q-19 0 -34 -3q-18 -3 -24.5 -13t-8.5 -33q-2 -27 -2 -180z" horiz-adv-x="552" unicode="l"/>
<glyph glyph-name="m" d="M90 82l87 555q3 22 17 22q13 0 27 -27l236 -474l236 480q11 21 23 21q6 0 12 -7t8 -20l80 -525q6 -42 15 -60t28 -24q29 -8 50 -8q14 0 14 -8q0 -10 -23 -10q-77 0 -182 6q-26 1 -26 10q0 6 10 9q5 2 5 17q0 11 -1 19l-49 368h-3l-189 -380q-15 -31 -21.5 -39.5 t-13.5 -8.5q-12 0 -35 43q-91 169 -101 193q-12 27 -88 182h-3l-42 -332q-3 -23 -3 -40q0 -20 27 -25q20 -4 31 -4q14 0 14 -8q0 -10 -21 -10t-54.5 1.5t-38.5 1.5q-7 0 -39.5 -1.5t-47.5 -1.5q-16 0 -16 10q0 8 14 8q13 0 27 2q27 3 36 65z" horiz-adv-x="923" unicode="m"/>
<glyph glyph-name="n" d="M189 460l10 -347q2 -82 30 -92q18 -6 46 -6q15 0 15 -9t-20 -9q-34 0 -72.5 1.5t-41.5 1.5q-2 0 -17 -0.5t-36.5 -1.5t-41.5 -1t-20 9t14 9q24 0 40 4q17 4 21.5 24.5t5.5 78.5l8 504q0 29 15 29q10 0 38 -28l29 -29q29 -30 62.5 -64t84.5 -84.5t95 -93.5 q25 -25 70.5 -71t80 -80.5l39.5 -39.5h4l-9 378q-1 38 -7.5 53.5t-22.5 21.5q-13 5 -46 5q-14 0 -14 9q0 8 22 8q26 0 66 -1t46 -1q1 0 30.5 1t55.5 1q20 0 20 -8q0 -9 -15 -9q-16 0 -27 -3q-18 -5 -24.5 -19.5t-7.5 -50.5l-9 -536q0 -27 -15 -27q-18 0 -36 18 q-90 84 -257 245q-42 40 -90 89.5t-79 82.5t-37 38h-3z" horiz-adv-x="841" unicode="n"/>
<glyph glyph-name="o" d="M444 32q23 0 45.5 4.5t52 21.5t51.5 44.5t37.5 79.5t15.5 121q0 138 -73 221t-182 83q-40 0 -75 -12t-67.5 -39.5t-51.5 -81.5t-19 -129q0 -135 72 -224t194 -89zM408 -14q-92 0 -163.5 30.5t-113 80t-62.5 106.5t-21 116q0 45 12.5 90.5t41 89.5t70 77.5t105 54.5 t140.5 21q166 0 263 -86t97 -232q0 -150 -101 -249t-268 -99z" horiz-adv-x="827" unicode="o"/>
<glyph glyph-name="p" d="M144 244v150q0 153 -1 180q-1 22 -9 31t-29 15q-11 3 -35 3q-15 0 -15 9q0 8 20 8q26 0 71.5 -1t55.5 -1q18 0 72 1t74 1q108 0 164 -48q44 -42 44 -102q0 -89 -63.5 -147.5t-157.5 -58.5q-22 0 -26 1q-11 0 -11 9q0 11 29 11q41 0 79.5 38.5t38.5 99.5q0 81 -52 126 q-37 32 -88 32q-27 0 -38 -4q-7 -3 -7 -16v-337q0 -145 4 -182q3 -21 9.5 -31t24.5 -13q20 -3 45 -3q14 0 14 -9t-16 -9q-34 0 -85.5 1.5t-58.5 1.5q-8 0 -50 -1.5t-61 -1.5q-17 0 -17 9t14 9q19 0 31 3q21 5 26 45q4 36 4 181z" horiz-adv-x="596" unicode="p"/>
<glyph glyph-name="q" d="M443 32q25 0 48 4.5t52 21.5t49.5 45.5t35 81t14.5 122.5q0 143 -74.5 221.5t-174.5 78.5q-95 0 -154.5 -63.5t-59.5 -200.5q0 -146 76 -228.5t188 -82.5zM683 -74l-137 81q-56 -21 -139 -21q-92 0 -164 30.5t-113 81t-61.5 108t-20.5 117.5q0 55 21.5 110.5t63.5 105.5 t115 81.5t165 31.5q160 0 260.5 -87.5t100.5 -234.5q0 -99 -47.5 -170t-103.5 -109l173 -84q208 -101 360 -101q100 0 172 27q10 4 13 4q8 0 8 -8q0 -5 -11 -11q-142 -67 -282 -67q-101 0 -182.5 25t-190.5 90z" horiz-adv-x="826" unicode="q"/>
<glyph glyph-name="r" d="M256 581v-253q0 -11 8 -15q25 -8 67 -8q43 0 62 14q57 40 57 126q0 80 -42 115.5t-92 35.5q-38 0 -52 -3q-8 -3 -8 -12zM144 244v150q0 153 -1 180q-1 22 -9 31t-29 15q-11 3 -35 3q-15 0 -15 9q0 8 20 8q27 0 71 -1t49 -1q15 0 69.5 1t67.5 1q112 0 167 -36 q23 -16 42.5 -47t19.5 -70q0 -47 -29 -91.5t-93 -96.5q143 -176 193 -226q46 -46 94 -56q9 -2 21 -2q11 0 11 -9t-17 -9h-84q-63 0 -96 17q-27 13 -53 41.5t-67 83.5q-19 25 -48.5 67.5t-34.5 48.5q-6 6 -16 6l-79 2q-7 0 -7 -7v-12q0 -136 5 -181q3 -22 9 -32t25 -13t43 -3 q11 0 11 -9t-18 -9q-30 0 -82.5 1.5t-54.5 1.5q-6 0 -47 -1.5t-61 -1.5q-17 0 -17 9t14 9q19 0 31 3q21 5 26 45q4 36 4 181z" horiz-adv-x="686" unicode="r"/>
<glyph glyph-name="s" d="M239 -14q-94 0 -143 22q-11 5 -14 10t-3 19q0 43 5 113q0 22 11 22q9 0 9 -14q0 -20 8 -44q13 -44 53 -64t87 -20q56 0 89 31t33 77q0 33 -17 61t-70 59l-51 30q-76 44 -107 89.5t-31 103.5q0 76 64 123.5t158 47.5q71 0 125 -14q12 -3 12 -11q0 -3 -0.5 -15t-1.5 -35 t-1 -52q0 -27 -11 -27q-9 0 -9 15q0 29 -23 56q-33 40 -98 40q-50 0 -85 -24.5t-35 -66.5q0 -31 18.5 -56t74.5 -56l36 -20q83 -46 117.5 -95.5t34.5 -110.5q0 -97 -88 -159q-49 -35 -147 -35z" horiz-adv-x="540" unicode="s"/>
<glyph glyph-name="t" d="M261 244v344l-131 -3q-68 -1 -85 -26q-10 -13 -15 -29q-3 -11 -10 -11q-8 0 -8 14q0 9 8.5 52t10.5 51q3 16 10 16q3 0 14.5 -4t23.5 -6q35 -4 88 -4h357q34 0 60 4q6 1 11.5 2t8.5 1.5t4 0.5q6 0 6 -18q0 -8 -0.5 -50t-0.5 -53q-2 -14 -8 -14q-9 0 -10 17l-1 9 q-2 20 -26 34t-78 15l-111 2v-344q0 -136 5 -182q3 -21 9.5 -31t24.5 -13t45 -3q14 0 14 -9t-17 -9q-33 0 -83.5 1.5t-58.5 1.5t-52 -1.5t-63 -1.5q-17 0 -17 9t14 9q20 0 31 3q21 5 26 45q4 36 4 181z" horiz-adv-x="633" unicode="t"/>
<glyph glyph-name="u" d="M106 269v125v128q0 38 -1 52q-1 22 -9 31t-29 15q-11 3 -34 3q-15 0 -15 9q0 8 19 8q26 0 74 -1t58 -1t53 1t60 1q19 0 19 -8q0 -9 -14 -9q-9 0 -26 -3t-23.5 -13t-8.5 -33q-2 -27 -2 -180v-119q0 -88 16 -133.5t51 -72.5q43 -34 111 -34q72 0 118 45q33 31 42 78.5 t9 128.5v107q0 126 -2 180q-2 22 -9 31t-28 15q-10 3 -32 3q-15 0 -15 9q0 8 18 8h28t28 -0.5t24 -1t18 -0.5h7q2 0 42.5 1t60.5 1q18 0 18 -8q0 -9 -15 -9q-10 0 -26 -3q-17 -3 -23.5 -13t-8.5 -33q-2 -54 -2 -180v-91q0 -87 -17 -151t-67 -105q-73 -61 -186 -61 q-135 0 -201 58q-80 69 -80 225z" horiz-adv-x="760" unicode="u"/>
<glyph glyph-name="v" d="M283 37l-222 520q-14 34 -27 45.5t-38 17.5q-13 3 -34 3q-10 0 -10 9q0 8 22 8q25 0 69.5 -1t58.5 -1q8 0 47.5 1t64.5 1q21 0 21 -8q0 -9 -14 -9q-26 0 -34 -6q-9 -6 -9 -17q0 -14 20 -64l148 -381h3q116 268 172 418q8 22 8 31q0 10 -12 15q-13 4 -35 4q-15 0 -15 9 q0 8 25 8q26 0 59.5 -1t34.5 -1q6 0 37 1t46 1q18 0 18 -8q0 -9 -14 -9h-5q-24 0 -38 -10q-20 -15 -46 -75q-3 -6 -106 -230q-22 -50 -49 -109t-43 -95.5t-25 -55.5q-17 -38 -25 -50t-17 -12t-16 10t-20 41z" horiz-adv-x="637" unicode="v"/>
<glyph glyph-name="w" d="M249 17l-186 540q-18 51 -31 59q-10 7 -34 7q-14 0 -14 9q0 8 20 8t43.5 -0.5t40 -1t18.5 -0.5t17 0.5t39 1t46 0.5q19 0 19 -8q0 -9 -16 -9q-13 0 -22 -4q-9 -3 -9 -17q0 -11 19 -78q10 -38 53 -177t55 -175h3l168 434q12 31 26 31q13 0 29 -40l176 -419h3 q7 21 28.5 90.5t48 157t38.5 124.5q9 30 9 49q0 24 -43 24q-15 0 -15 9q0 8 21 8q20 0 41.5 -0.5t36 -1t16.5 -0.5l28 1q28 1 45 1q16 0 16 -7q0 -10 -12 -10q-18 0 -31 -4q-19 -7 -38 -60q-2 -5 -7 -17l-4 -12q-29 -75 -174 -504q-8 -24 -13.5 -32t-14.5 -8t-15 8.5 t-16 32.5l-179 419h-2q-4 -9 -40.5 -100.5t-74.5 -186t-54 -128.5q-13 -28 -19 -36.5t-15 -8.5q-13 0 -24 31z" horiz-adv-x="955" unicode="w"/>
<glyph glyph-name="x" d="M516 553l-146 -199q9 -13 55.5 -86t88.5 -137.5t52 -76.5q20 -25 48 -34q15 -5 34 -5q11 0 11 -9t-17 -9h-26q-91 0 -163 2q-31 1 -31 9t12 11t3 18q-26 43 -73 120t-66 108l-129 -200q-13 -21 -13 -34q0 -15 17 -15q2 0 8.5 -0.5t10.5 -0.5t7.5 -3t3.5 -7q0 -8 -18 -8 h-16l-36 1q-36 2 -49 2q-9 0 -38 -1.5t-36 -1.5h-15q-13 0 -13 8q0 10 12 10q15 0 32 4q19 5 33 17.5t37 44.5l172 232l-155 242q-32 49 -71 62q-21 6 -37 6q-9 0 -9 10q0 7 18 7q8 0 59 -1t75 -1q3 0 41.5 1t57.5 1q18 0 18 -8q0 -9 -14 -9q-11 0 -21 -3q-12 -3 -12 -12 t9 -25q31 -55 110 -185q97 141 119 177q10 17 10 31q0 11 -15 14q-9 3 -28 3q-11 0 -11 9q0 8 19 8t52.5 -1t39.5 -1q7 0 37 1t49 1q16 0 16 -8q0 -9 -14 -9q-12 0 -32 -5q-14 -3 -26 -16.5t-37 -48.5z" horiz-adv-x="635" unicode="x"/>
<glyph glyph-name="y" d="M239 148v70q0 47 -20 89q-4 10 -68.5 110.5t-88.5 134.5q-34 48 -57 60q-20 11 -37 11q-13 0 -13 9q0 8 17 8q6 0 50 -1t60 -1q7 0 42 1t58 1q13 0 13 -8q0 -6 -13 -9q-2 -1 -3.5 -1.5t-3.5 -0.5q-12 -3 -12 -13t11 -29q8 -12 73 -124.5t73 -124.5q2 4 62.5 108.5 t68.5 119.5q13 27 13 45q0 15 -19 19q-16 4 -16 10q0 8 15 8t44 -1t42 -1q10 0 48 1t46 1q16 0 16 -7q0 -10 -17 -10q-16 0 -38 -10q-21 -10 -46 -40q-21 -25 -90 -134.5t-81 -137.5q-11 -26 -11 -65v-20v-68q0 -49 2 -85q3 -40 36 -45q19 -3 44 -3q15 0 15 -9t-19 -9 q-31 0 -80.5 1.5t-57.5 1.5q-10 0 -53 -1.5t-61 -1.5q-19 0 -19 9t14 9q19 0 31 3q24 5 27 45q3 36 3 85z" horiz-adv-x="590" unicode="y"/>
<glyph glyph-name="z" d="M201 51h211q111 0 136 44q12 22 16 39q3 14 10 14q9 0 9 -26q0 -44 -17 -104q-7 -22 -27 -22q-70 0 -225.5 2t-248.5 2q-15 0 -15 9q0 8 11 25q211 318 370 554h-166q-97 0 -125 -15q-20 -11 -32.5 -29.5t-14.5 -35.5q-3 -15 -11 -15q-9 0 -9 14q0 29 18 123q1 16 10 16 q3 0 12.5 -2.5t22.5 -3.5q50 -2 114 -2h48h271q15 0 15 -7q0 -6 -5 -16q-150 -235 -378 -564z" horiz-adv-x="625" unicode="z"/>
<glyph glyph-name="braceleft" d="M136 351v-1q22 -8 42 -29t28 -49q10 -36 10 -102v-48q0 -207 75 -224q24 -6 24 -13t-36 -7q-22 0 -52 16.5t-55 50.5q-24 33 -37.5 82.5t-13.5 145.5q0 17 4 57t4 50q0 20 -7 30q-12 18 -60 25q-6 1 -8.5 2t-4 2.5t-1.5 5.5q0 10 14 11q2 0 9.5 0.5t12 1t11.5 1.5t13 4 t11 8q12 10 12 49q0 20 -5 59t-5 50q0 70 16 108t48 68q45 41 109 41q20 0 20 -7q0 -6 -18 -9q-26 -4 -53 -35.5t-27 -87.5v-81q0 -68 -8 -99q-6 -25 -28.5 -47.5t-43.5 -28.5z" horiz-adv-x="360" unicode="{"/>
<glyph glyph-name="bar" d="M281 -250h-61v1000h61v-1000z" horiz-adv-x="500" unicode="|"/>
<glyph glyph-name="braceright" d="M224 350q-22 7 -44 29.5t-28 47.5q-8 31 -8 99v81q0 56 -27 87.5t-53 35.5q-18 3 -18 9q0 7 20 7q64 0 109 -41q32 -30 48 -68t16 -108q0 -11 -5 -50t-5 -59q0 -39 12 -49q5 -5 11 -8t13 -4t11.5 -1.5t12 -1t9.5 -0.5q14 -1 14 -11q0 -5 -2.5 -6.5t-11.5 -3.5 q-48 -7 -60 -25q-7 -10 -7 -30q0 -10 4 -50t4 -57q0 -96 -13.5 -145.5t-37.5 -82.5q-25 -34 -55 -50.5t-52 -16.5q-36 0 -36 7t24 13q75 17 75 224v48q0 66 10 102q8 28 28 49t42 29z" horiz-adv-x="360" unicode="}"/>
<glyph glyph-name="asciitilde" d="M512 342v-14q0 -70 -31.5 -101t-80.5 -31q-50 0 -136 43q-84 41 -116 41q-51 0 -54 -83h-57v8q0 68 32 102.5t84 34.5q29 0 56 -9t78 -34q85 -40 118 -40q48 0 50 83h57z" horiz-adv-x="549" unicode="~"/>
<glyph glyph-name="uni00A0" horiz-adv-x="300" unicode=" "/>
<glyph glyph-name="exclamdown" d="M169 767q27 0 41 -17t14 -39q0 -21 -14.5 -39t-41.5 -18q-24 0 -40 14.5t-16 38.5q0 25 16 42.5t41 17.5zM162 586q12 0 15 -36q19 -225 25 -272q9 -129 21 -180q1 -5 4.5 -14t3.5 -12q0 -8 -5 -16q-31 -39 -90 -63q-22 -10 -38 -10q-9 0 -9 13q0 3 2.5 19.5t6.5 47 t7 62.5q1 6 20.5 210.5t21.5 218.5q3 32 15 32z" horiz-adv-x="320" unicode="¡"/>
<glyph glyph-name="cent" d="M293 182l45 403h-9q-66 0 -112.5 -52.5t-46.5 -125.5q0 -90 40 -150t83 -75zM388 585l-45 -414q23 -4 42 -4q51 0 81.5 17.5t43.5 68.5q4 16 13 16q8 0 8 -12q0 -41 -13 -109q-2 -13 -14 -17q-58 -17 -123 -17q-31 0 -45 1l-14 -134q-1 -10 -8 -11l-37 -5q-11 -1 -9 6 l18 150q-102 18 -163.5 85.5t-61.5 173.5q0 64 24.5 112t53.5 72q80 68 206 68l11 100q1 9 10 10l32 4q6 1 9 -0.5t2 -5.5l-14 -108q65 0 132 -26q7 -3 7 -21q0 -25 -6 -103q-1 -11 -10 -11q-7 0 -9 11q-3 39 -24 66q-30 37 -97 37z" horiz-adv-x="600" unicode="¢"/>
<glyph glyph-name="sterling" d="M404 359h-146l-5 -45q-6 -53 -32 -120t-78 -110l2 -7l253 3q75 1 105 19t38 66q3 12 11 12q9 0 9 -16q0 -17 -5.5 -66.5t-13.5 -79.5q-3 -13 -12.5 -16.5t-50.5 -3.5q-49 0 -108 3q-76 2 -149 2h-202q-30 0 -30 12t30 20q53 12 77 66.5t36 153.5l13 108h-71q-7 0 -14 -1 t-8 -1q-6 0 -3 12l10 29q2 7 15 7h77l8 53q27 178 109 246q43 37 83 49.5t90 12.5q54 0 90 -12q22 -5 27 -5q10 -1 10 -21q0 -75 -8 -118q-2 -14 -10 -14q-10 0 -10 16q-3 48 -24 74q-29 37 -92 37q-54 0 -91.5 -45.5t-50.5 -136.5l-19 -135h126q12 0 21.5 1t15.5 2t7 1 q11 0 7 -10l-12 -34q-3 -8 -25 -8z" horiz-adv-x="600" unicode="£"/>
<glyph glyph-name="currency" d="M410 334q0 55 -30.5 94t-82.5 39h-1q-51 0 -82 -39t-31 -97q0 -65 35 -100t78 -35q46 0 80 34.5t34 103.5zM535 524l-80 -72q34 -51 34 -117q0 -75 -35 -123l77 -74l-49 -49l-69 79q-45 -42 -117 -42t-114 39l-68 -76l-47 49l74 71q-37 50 -37 120t38 123l-77 72l48 50 l70 -77q46 40 115 40h1q69 0 115 -39l72 76z" horiz-adv-x="600" unicode="¤"/>
<glyph glyph-name="yen" d="M348 286v-121q0 -72 1 -94q1 -45 46 -52q21 -3 50 -3q14 0 14 -10q0 -9 -14 -9q-39 0 -92 1.5t-57 1.5t-56 -1.5t-90 -1.5q-15 0 -15 9q0 10 13 10q30 0 51 3q46 7 47 52q1 22 1 94v121h-162q-8 0 -6 8l9 34q2 6 11 6h142q-6 12 -181 317q-30 53 -63 71q-23 12 -46 12 q-13 0 -13 9q0 10 17 10q9 0 55 -1.5t55 -1.5q10 0 45.5 1.5t61.5 1.5q14 0 14 -10q0 -8 -19 -11q-17 -3 -17 -18q0 -10 11 -34q6 -12 78.5 -145.5t80.5 -150.5q21 37 76 144t66 130q13 30 13 54q0 14 -25 20q-16 5 -16 11q0 10 14 10q20 0 50 -1.5t39 -1.5q6 0 48 1.5 t53 1.5q16 0 16 -9q0 -10 -15 -10q-29 0 -46 -9q-20 -8 -52 -50q-22 -29 -90.5 -154t-98.5 -187h161q10 0 8 -10l-7 -30q-2 -8 -13 -8h-153z" horiz-adv-x="600" unicode="¥"/>
<glyph glyph-name="brokenbar" d="M281 -175h-61v350h61v-350zM281 325h-61v350h61v-350z" horiz-adv-x="500" unicode="¦"/>
<glyph glyph-name="section" d="M216 443q-59 -37 -59 -98q0 -38 22 -61.5t85 -65.5l18 -12l36 -24q55 -36 71 -51q47 39 47 97q0 16 -5 30.5t-10.5 24.5t-20.5 23.5t-23 19.5t-32 23t-34 24l-51 37q-26 18 -44 33zM177 476q-56 58 -56 120q0 75 65.5 122.5t159.5 47.5q70 0 124 -14q12 -3 12 -11 q0 -3 -1 -15t-1.5 -35t-0.5 -52q0 -27 -11 -27q-9 0 -9 15q0 29 -23 56q-32 40 -97 40q-51 0 -88 -26.5t-37 -73.5q0 -30 18.5 -51t76.5 -58l36 -23q92 -58 136 -110t44 -118q0 -44 -28 -92t-73 -77q50 -63 50 -119q0 -95 -89 -155q-52 -35 -150 -35q-93 0 -142 22 q-11 5 -14 10t-3 19q0 43 5 113q0 22 11 22q9 0 9 -14q0 -20 8 -44q13 -44 53 -64t87 -20q56 0 91.5 30.5t35.5 73.5q0 41 -18 67t-74 64l-51 35q-87 60 -124 102t-37 104q0 56 34 103.5t71 67.5z" horiz-adv-x="596" unicode="§"/>
<glyph glyph-name="dieresis" d="M357 830q-22 0 -33.5 14.5t-11.5 32.5q0 17 12 31.5t34 14.5q20 0 33.5 -11.5t13.5 -31.5q0 -21 -13.5 -35.5t-34.5 -14.5zM568 830q-22 0 -33.5 14.5t-11.5 32.5q0 17 12 32t34 15q20 0 33.5 -12t13.5 -32q0 -21 -13.5 -35.5t-34.5 -14.5z" horiz-adv-x="927" unicode="¨"/>
<glyph glyph-name="copyright" d="M478 153q-114 0 -184.5 62.5t-70.5 168.5q0 53 20.5 96t45.5 66q63 57 176 57q35 0 82 -8q7 -1 21.5 -4t26 -5.5t12.5 -2.5q2 0 6 0.5t5 0.5t1 -19q0 -62 -5 -87q-2 -10 -8 -10q-7 0 -9 15q-2 27 -19 47q-33 36 -112 36q-65 0 -104.5 -42.5t-39.5 -116.5q0 -96 53 -154 t115 -58t88 26q13 13 22 49q4 12 10 12q7 0 7 -11q0 -26 -11 -78q-3 -17 -6 -21t-15 -7q-44 -12 -107 -12zM119 375q0 -142 97.5 -243.5t235.5 -101.5q142 0 236.5 99.5t94.5 245.5q0 141 -96.5 243t-234.5 102q-144 0 -238.5 -98.5t-94.5 -246.5zM452 -17 q-171 0 -284 111.5t-113 279.5q0 164 115.5 278.5t281.5 114.5q170 0 282.5 -112t112.5 -281q0 -163 -115 -277t-280 -114z" horiz-adv-x="902" unicode="©"/>
<glyph glyph-name="ordfeminine" d="M149 549h93q2 0 2 3l-40 99q-5 13 -8 13q-4 0 -8 -10l-42 -102q-2 -3 3 -3zM254 515h-118q-4 0 -7 -6l-19 -51q-4 -12 -4 -23q0 -13 17 -13h7q8 0 8 -7t-9 -7q-8 0 -27 1t-29 1q-6 0 -30.5 -1t-38.5 -1q-9 0 -9 7t7 7q2 0 7 0.5t8 0.5q16 2 24.5 10.5t17.5 26.5l139 296 q9 19 17 19t15 -15q128 -287 129 -290q21 -44 40 -46q14 -2 21 -2q6 0 6 -7t-23 -7q-54 0 -104 2q-15 0 -15 5q0 8 7 8t3 9l-33 77q-3 6 -7 6z" horiz-adv-x="425" unicode="ª"/>
<glyph glyph-name="guillemotleft" d="M281 127l-38 -43q-7 -7 -10 -7q-4 0 -32 33q-96 108 -141 153q-18 18 -18 24t19 22q9 7 97.5 88t95.5 86q14 11 19 11q12 0 12 -8q0 -7 -6 -13q-21 -23 -77.5 -91.5t-70.5 -89.5q29 -39 140 -143q14 -13 14 -15q0 -3 -4 -7zM478 127l-38 -43q-7 -7 -10 -7q-4 0 -32 33 q-96 108 -141 153q-18 18 -18 24t19 22q9 7 97.5 88t95.5 86q14 11 19 11q12 0 12 -8q0 -7 -6 -13q-21 -23 -77.5 -91.5t-70.5 -89.5q29 -39 140 -143q14 -13 14 -15q0 -3 -4 -7z" horiz-adv-x="550" unicode="«"/>
<glyph glyph-name="logicalnot" d="M509 128h-64v189h-405v61h469v-250z" horiz-adv-x="549" unicode="¬"/>
<glyph glyph-name="uni00AD" d="M75 315h284q32 0 32 -14q0 -10 -10 -13.5t-35 -8.5q-40 -6 -137.5 -23.5t-120.5 -24.5q-10 -3 -25 -9.5t-19 -6.5q-12 0 -8 18l15 69q2 9 6.5 11t17.5 2z" horiz-adv-x="425" unicode="­"/>
<glyph glyph-name="registered" d="M87 719v-36q5 -3 14 -3q6 0 9 2q9 5 9 17q0 9 -6.5 15.5t-16.5 6.5q-7 0 -9 -2zM65 671v22v25q0 7 -12 7q-2 0 -2 3q0 4 5 4h4h6q7 -1 11 -1t11 0.5t12 0.5q44 0 44 -27q0 -15 -21 -30l18 -21q13 -15 17 -15q3 0 3 -3q0 -4 -9 -4h-4q-20 0 -35 19l-14 19h-12v-9 q0 -19 2 -21q2 -1 10 -1q3 0 3 -3q0 -4 -4 -4h-4q-1 0 -7 0.5t-9 0.5q-2 0 -8 -0.5t-7 -0.5h-5q-7 0 -7 4q0 3 3 3q10 0 11 6v26zM104 608q32 0 52 20t20 51q0 32 -20 51t-53 19t-53 -19t-20 -51t20.5 -51.5t53.5 -19.5zM103 591q-40 0 -66 25t-26 62q0 38 26 63t66 25 t66 -25t26 -63q0 -37 -26 -62t-66 -25z" horiz-adv-x="206" unicode="®"/>
<glyph glyph-name="macron" d="M578 857h-240q-5 0 -7 1.5t-1 5.5l8 36q3 9 11 9h240q11 0 8 -10l-8 -36q-1 -6 -11 -6z" horiz-adv-x="927" unicode="¯"/>
<glyph glyph-name="degree" d="M255 577q0 31 -19 55t-55 24h-1q-33 0 -52.5 -24.5t-19.5 -56.5t21 -54.5t52 -22.5q32 0 53 22.5t21 56.5zM311 579q0 -56 -39 -93t-92 -37q-56 0 -92 36.5t-36 88.5q0 55 37.5 92.5t92.5 37.5h1q57 0 92.5 -36.5t35.5 -88.5z" horiz-adv-x="363" unicode="°"/>
<glyph glyph-name="plusminus" d="M509 0h-469v61h469v-61zM509 317h-203v-203h-64v203h-202v61h202v204h64v-204h203v-61z" horiz-adv-x="549" unicode="±"/>
<glyph glyph-name="twosuperior" d="M309 305h-258q-11 0 -11 8q0 4 12 16q117 96 169 163.5t52 139.5q0 51 -28.5 76t-62.5 25q-41 0 -69 -28q-20 -20 -21 -51q0 -11 -9 -11q-6 0 -7 16q-4 0 -4 69q0 10 7 14q52 25 120 25q80 0 122.5 -34.5t42.5 -83.5q0 -73 -49.5 -131.5t-168.5 -154.5q-2 -1 -1.5 -3 t2.5 -2h29q71 0 115 4q34 3 50 14.5t24 36.5q4 10 10 10t6 -9q0 -25 -23 -92q-9 -17 -49 -17z" horiz-adv-x="444" unicode="²"/>
<glyph glyph-name="threesuperior" d="M151 301q-65 0 -88 13q-8 4 -9.5 9t-1.5 23q0 44 3 64q1 11 6 11q7 0 8 -10q9 -74 102 -74q43 0 73.5 25.5t30.5 74.5t-35.5 75.5t-74.5 31.5q-22 2 -22 10q0 9 20 12q22 3 55.5 29.5t33.5 67.5q0 25 -19.5 48.5t-61.5 23.5q-35 0 -60 -18.5t-25 -45.5q0 -13 -6 -13 q-7 0 -8 11q-6 36 -6 64q0 11 14 16q54 18 113 18q79 0 111 -27t32 -58q0 -39 -32 -68t-64 -41v-2q41 -6 81.5 -36t40.5 -79q0 -64 -59 -109.5t-152 -45.5z" horiz-adv-x="423" unicode="³"/>
<glyph glyph-name="acute" d="M600 972q10 -18 29 -60q7 -15 -5 -15q-1 0 -6.5 0.5t-10.5 0.5q-10 0 -17 -1q-38 -5 -88.5 -23.5t-82.5 -35.5q-16 -8 -17 -8q-6 0 -6 6q0 4 9 13q27 25 86 70.5t75 55.5q13 9 20 9t14 -12z" horiz-adv-x="927" unicode="´"/>
<glyph glyph-name="mu" d="M70 150v300h95v-200q0 -96 29.5 -143t95.5 -47q49 0 74.5 31t25.5 109v250h95v-349q0 -56 32 -56q20 0 34 23l15 -7q-6 -34 -28.5 -55t-52.5 -21q-74 0 -80 115q-11 -53 -47 -84t-88 -31q-54 0 -83.5 15.5t-51.5 59.5q7 -161 45 -255l-110 -55l-15 5q15 217 15 395z" horiz-adv-x="576" unicode="µ"/>
<glyph glyph-name="paragraph" d="M384 675q0 22 -3.5 31t-16.5 9q-53 0 -86 -53q-35 -54 -35 -145q0 -68 18 -119t48 -71q5 -3 10.5 -6t8 -4t4 -3.5t1.5 -6.5q0 -8 -12 -10q-10 -2 -21 -2q-108 0 -179 61.5t-71 160.5q0 96 69 161q79 75 231 75q9 0 68.5 -1.5t70.5 -1.5q1 0 62 1.5t88 1.5q16 0 16 -9 q0 -8 -8 -8q-16 0 -28 -3q-19 -5 -26.5 -16.5t-9.5 -37.5q-2 -32 -2 -216v-393v-98q0 -73 2 -98q0 -7 -7 -14q-9 -9 -29 -17t-30 -8q-6 0 -6 5q0 1 2 13.5t3 24.5q5 55 5 192v606q0 39 -35 39q-38 0 -41 -37q-1 -20 -1 -64v-151v-389v-95q0 -115 3 -143q1 -6 -6 -13 q-10 -9 -30 -17t-31 -8q-8 0 -8 6l1 4q1 4 2.5 13t2.5 21q6 61 6 232v601z" horiz-adv-x="712" unicode="¶"/>
<glyph glyph-name="periodcentered" d="M124 207q-29 0 -44.5 18.5t-15.5 42.5q0 22 16 41.5t45 19.5q26 0 43.5 -16t17.5 -42q0 -27 -17 -45.5t-45 -18.5z" horiz-adv-x="250" unicode="·"/>
<glyph glyph-name="cedilla" d="M480 0h57l-93 -69q56 -5 87 -26t31 -54q0 -39 -44 -73t-140 -34q-17 0 -17 10q0 13 26 13q28 0 56 19t28 48q0 61 -79 73q-22 3 -22 8q0 3 16 15z" horiz-adv-x="927" unicode="¸"/>
<glyph glyph-name="onesuperior" d="M136 485v110q0 52 -1 64q-1 18 -12 18q-10 0 -83 -32q-6 -3 -11 -3q-6 0 -6 9q0 5 5 8q2 1 38 23t74.5 45.5t44.5 27.5q21 12 27 12q8 0 8 -13q0 -3 -1 -23t-1.5 -56.5t-0.5 -79.5v-110q0 -101 3 -127q2 -14 7.5 -21.5t21.5 -10.5q20 -5 46 -5q15 0 15 -8q0 -10 -18 -10 q-30 0 -70.5 1t-50.5 1q-8 0 -50.5 -1t-70.5 -1q-18 0 -18 9t14 9q34 0 57 5q17 3 22.5 10.5t7.5 21.5q3 26 3 127z" horiz-adv-x="340" unicode="¹"/>
<glyph glyph-name="ordmasculine" d="M352 579q0 69 -36.5 113t-92.5 44q-42 0 -72.5 -32.5t-30.5 -106.5q0 -64 38 -112.5t91 -48.5q16 0 31 5t32.5 18.5t28.5 44.5t11 75zM233 405q-100 0 -151.5 54.5t-51.5 126.5q0 70 52 125.5t156 55.5q95 0 149.5 -46.5t54.5 -126.5q0 -81 -57 -135t-152 -54z" horiz-adv-x="472" unicode="º"/>
<glyph glyph-name="guillemotright" d="M269 444l38 43q7 7 10 7q4 0 32 -33q96 -108 141 -153q18 -18 18 -24t-19 -22q-9 -7 -97.5 -88t-95.5 -86q-14 -11 -19 -11q-12 0 -12 8q0 7 6 13q21 23 77.5 91.5t70.5 89.5q-29 39 -140 143q-14 13 -14 15q0 3 4 7zM72 444l38 43q7 7 10 7q4 0 32 -33q96 -108 141 -153 q18 -18 18 -24t-19 -22q-9 -7 -97.5 -88t-95.5 -86q-14 -11 -19 -11q-12 0 -12 8q0 7 6 13q21 23 77.5 91.5t70.5 89.5q-29 39 -140 143q-14 13 -14 15q0 3 4 7z" horiz-adv-x="550" unicode="»"/>
<glyph glyph-name="onequarter" d="M310 313q0 -10 -18 -10q-30 0 -70.5 1t-50.5 1q-8 0 -50.5 -1t-70.5 -1q-18 0 -18 9t14 9q34 0 57 5q17 3 22.5 10.5t7.5 21.5q3 26 3 127v110q0 52 -1 64q-1 18 -12 18q-10 0 -83 -32q-6 -3 -11 -3q-6 0 -6 9q0 5 5 8q2 1 38 23t74.5 45.5t44.5 27.5q21 12 27 12 q8 0 8 -13q0 -3 -1 -23t-1.5 -56.5t-0.5 -79.5v-110q0 -101 3 -127q2 -14 7.5 -21.5t21.5 -10.5q20 -5 46 -5q15 0 15 -8zM714 744q5 -3 -1 -12l-539 -742q-7 -9 -12 -5l-29 21q-7 5 2 17l536 737q6 8 13 4zM636 170v177h-4l-162 -177h166zM802 170q0 -1 -2 -8.5t-5 -17.5 t-4 -14q-3 -8 -13 -8h-69v-30q0 -32 1 -46q2 -14 7.5 -20.5t20.5 -7.5q27 -3 29 -3q6 0 6 -8q0 -9 -10 -9q-16 0 -41.5 0.5t-45 1t-20.5 0.5t-13.5 -0.5t-31 -1t-34.5 -0.5q-8 0 -8 9q0 8 8 8q2 0 7 0.5t11.5 1.5t10.5 1q16 1 22 7.5t7 20.5q1 27 1 76h-227q-14 0 -14 11 q0 7 10 17q24 28 276 301q9 11 18 11q10 0 10 -10v-282h54q8 0 15.5 2t12 3.5t5.5 1.5q6 0 6 -7z" horiz-adv-x="841" unicode="¼"/>
<glyph glyph-name="onehalf" d="M310 313q0 -10 -18 -10q-30 0 -70.5 1t-50.5 1q-8 0 -50.5 -1t-70.5 -1q-18 0 -18 9t14 9q34 0 57 5q17 3 22.5 10.5t7.5 21.5q3 26 3 127v110q0 52 -1 64q-1 18 -12 18q-10 0 -83 -32q-6 -3 -11 -3q-6 0 -6 9q0 5 5 8q2 1 38 23t74.5 45.5t44.5 27.5q21 12 27 12 q8 0 8 -13q0 -3 -1 -23t-1.5 -56.5t-0.5 -79.5v-110q0 -101 3 -127q2 -14 7.5 -21.5t21.5 -10.5q20 -5 46 -5q15 0 15 -8zM714 744q5 -3 -1 -12l-539 -742q-7 -9 -12 -5l-29 21q-7 5 2 17l536 737q6 8 13 4zM861 109q0 -25 -23 -92q-9 -17 -49 -17h-258q-11 0 -11 8 q0 4 12 16q117 96 169 163.5t52 139.5q0 51 -28.5 76t-62.5 25q-41 0 -69 -28q-20 -20 -21 -51q0 -11 -9 -11q-6 0 -7 16q-4 0 -4 69q0 11 7 14q52 25 120 25q80 0 122.5 -34.5t42.5 -83.5q0 -73 -49.5 -131.5t-168.5 -154.5q-2 -2 -1.5 -3.5t2.5 -1.5h29q71 0 115 4 q34 3 50 14.5t24 36.5q4 10 10 10t6 -9z" horiz-adv-x="924" unicode="½"/>
<glyph glyph-name="threequarters" d="M362 456q0 -64 -59 -109.5t-152 -45.5q-65 0 -88 13q-8 4 -9.5 9t-1.5 23q0 44 3 64q1 11 6 11q7 0 8 -10q9 -74 102 -74q43 0 73.5 25.5t30.5 74.5t-35.5 75.5t-74.5 31.5q-22 2 -22 10q0 9 20 12q22 3 55.5 29.5t33.5 67.5q0 25 -19.5 48.5t-61.5 23.5q-35 0 -60 -18.5 t-25 -45.5q0 -13 -6 -13q-7 0 -8 11q-6 36 -6 64q0 11 14 16q54 18 113 18q79 0 111 -27t32 -58q0 -39 -32 -68t-64 -41v-2q41 -6 81.5 -36t40.5 -79zM754 744q5 -3 -1 -12l-539 -742q-7 -9 -12 -5l-29 21q-7 5 2 17l536 737q6 8 13 4zM676 170v177h-4l-162 -177h166z M842 170q0 -1 -2 -8.5t-5 -17.5t-4 -14q-3 -8 -13 -8h-69v-30q0 -32 1 -46q2 -14 7.5 -20.5t20.5 -7.5q27 -3 29 -3q6 0 6 -8q0 -9 -10 -9q-16 0 -41.5 0.5t-45 1t-20.5 0.5t-13.5 -0.5t-31 -1t-34.5 -0.5q-8 0 -8 9q0 8 8 8q2 0 7 0.5t11.5 1.5t10.5 1q16 1 22 7.5t7 20.5 q1 27 1 76h-227q-14 0 -14 11q0 7 10 17q24 28 276 301q9 11 18 11q10 0 10 -10v-282h54q8 0 15.5 2t12 3.5t5.5 1.5q6 0 6 -7z" horiz-adv-x="882" unicode="¾"/>
<glyph glyph-name="questiondown" d="M296 767q27 0 41 -17t14 -39q0 -21 -14.5 -39t-41.5 -18q-24 0 -40 14.5t-16 38.5q0 25 16 42.5t41 17.5zM282 -17q-111 0 -161.5 46.5t-50.5 103.5q0 36 9 68t29.5 62t37 50.5t48 53.5t46.5 51q51 60 51 88q0 29 -16 51q-8 12 -8 18q0 8 9 8q11 0 51 -31q45 -36 45 -63 q0 -24 -20 -51q-9 -12 -32 -39t-34 -41q-50 -69 -69 -112.5t-19 -92.5q0 -51 28.5 -88.5t90.5 -37.5q64 0 95 39q32 42 35 83q2 20 9 20t10 -13q4 -19 4 -117q0 -9 -11 -16q-67 -40 -177 -40z" horiz-adv-x="532" unicode="¿"/>
<glyph glyph-name="Agrave" d="M424 837q0 -7 -11 -7q-10 0 -93 35t-110 48q-33 14 -33 25q0 6 13 9q41 13 67 25q15 7 19 7q2 0 3.5 -1.5t2.5 -4t4 -7.5t6 -9q9 -12 44.5 -46t66.5 -56l7.5 -5t7 -4.5t4.5 -4t2 -4.5zM224 308h184q7 0 5 6l-90 247q-2 9 -5 9q-4 0 -6 -9l-92 -246q-2 -7 4 -7zM427 258 h-223q-6 0 -9 -8l-54 -143q-15 -37 -15 -61q0 -31 40 -31h15q15 0 15 -8q0 -10 -17 -10q-16 0 -53.5 1.5t-52.5 1.5l-43 -2q-44 -1 -75 -1q-19 0 -19 10q0 8 12 8q15 0 31 2q32 4 50 25.5t35 64.5l251 628q10 23 15.5 31.5t12.5 8.5q11 0 25 -32q10 -23 111.5 -277.5 t136.5 -337.5q41 -98 88 -109q20 -4 42 -4q13 0 13 -8q0 -10 -46 -10q-109 0 -189 2q-30 2 -30 8q0 8 14 9q6 2 9 8.5t0 14.5l-80 212q-3 7 -10 7z" horiz-adv-x="700" unicode="À"/>
<glyph glyph-name="Aacute" d="M487 972q11 -18 29 -60q8 -15 -5 -15q-1 0 -6.5 0.5t-10.5 0.5q-10 0 -17 -1q-38 -5 -88.5 -23.5t-82.5 -35.5q-16 -8 -17 -8q-6 0 -6 6q0 4 9 13q27 25 86 70.5t75 55.5q13 9 20 9t14 -12zM224 308h184q7 0 5 6l-90 247q-2 9 -5 9q-4 0 -6 -9l-92 -246q-2 -7 4 -7z M427 258h-223q-6 0 -9 -8l-54 -143q-15 -37 -15 -61q0 -31 40 -31h15q15 0 15 -8q0 -10 -17 -10q-16 0 -53.5 1.5t-52.5 1.5l-43 -2q-44 -1 -75 -1q-19 0 -19 10q0 8 12 8q15 0 31 2q32 4 50 25.5t35 64.5l251 628q10 23 15.5 31.5t12.5 8.5q11 0 25 -32 q10 -23 111.5 -277.5t136.5 -337.5q41 -98 88 -109q20 -4 42 -4q13 0 13 -8q0 -10 -46 -10q-109 0 -189 2q-30 2 -30 8q0 8 14 9q6 2 9 8.5t0 14.5l-80 212q-3 7 -10 7z" horiz-adv-x="700" unicode="Á"/>
<glyph glyph-name="Acircumflex" d="M356 981q3 0 18 -11q19 -17 119 -90q14 -10 14 -14q0 -5 -5 -10l-29 -29q-7 -7 -13 -7q-4 0 -15 11q-12 13 -45 40t-43 34q-8 6 -13 6t-15 -5q-61 -35 -106 -74q-13 -12 -20 -12q-9 0 -9 10q0 4 9 15q8 8 64.5 61t67.5 63q13 12 21 12zM224 308h184q7 0 5 6l-90 247 q-2 9 -5 9q-4 0 -6 -9l-92 -246q-2 -7 4 -7zM427 258h-223q-6 0 -9 -8l-54 -143q-15 -37 -15 -61q0 -31 40 -31h15q15 0 15 -8q0 -10 -17 -10q-16 0 -53.5 1.5t-52.5 1.5l-43 -2q-44 -1 -75 -1q-19 0 -19 10q0 8 12 8q15 0 31 2q32 4 50 25.5t35 64.5l251 628 q10 23 15.5 31.5t12.5 8.5q11 0 25 -32q10 -23 111.5 -277.5t136.5 -337.5q41 -98 88 -109q20 -4 42 -4q13 0 13 -8q0 -10 -46 -10q-109 0 -189 2q-30 2 -30 8q0 8 14 9q6 2 9 8.5t0 14.5l-80 212q-3 7 -10 7z" horiz-adv-x="700" unicode="Â"/>
<glyph glyph-name="Atilde" d="M421 830q-37 0 -90 28q-40 22 -64 22q-36 0 -68 -36q-10 -10 -16 -10q-7 0 -7 7q0 8 8 19q17 27 45 52t59 25q7 0 14 -0.5t13.5 -3t11 -3.5t12 -4.5t9.5 -5t10.5 -6t9.5 -5.5q39 -22 72 -22q37 0 61 30q10 13 16 13q8 0 8 -8q0 -5 -6 -17q-12 -22 -40 -48.5t-58 -26.5z M224 308h184q7 0 5 6l-90 247q-2 9 -5 9q-4 0 -6 -9l-92 -246q-2 -7 4 -7zM427 258h-223q-6 0 -9 -8l-54 -143q-15 -37 -15 -61q0 -31 40 -31h15q15 0 15 -8q0 -10 -17 -10q-16 0 -53.5 1.5t-52.5 1.5l-43 -2q-44 -1 -75 -1q-19 0 -19 10q0 8 12 8q15 0 31 2q32 4 50 25.5 t35 64.5l251 628q10 23 15.5 31.5t12.5 8.5q11 0 25 -32q10 -23 111.5 -277.5t136.5 -337.5q41 -98 88 -109q20 -4 42 -4q13 0 13 -8q0 -10 -46 -10q-109 0 -189 2q-30 2 -30 8q0 8 14 9q6 2 9 8.5t0 14.5l-80 212q-3 7 -10 7z" horiz-adv-x="700" unicode="Ã"/>
<glyph glyph-name="Adieresis" d="M244 830q-22 0 -33.5 14.5t-11.5 32.5q0 17 12 31.5t34 14.5q20 0 33.5 -11.5t13.5 -31.5q0 -21 -13.5 -35.5t-34.5 -14.5zM455 830q-22 0 -33.5 14.5t-11.5 32.5q0 17 12 32t34 15q20 0 33.5 -12t13.5 -32q0 -21 -13.5 -35.5t-34.5 -14.5zM224 308h184q7 0 5 6l-90 247 q-2 9 -5 9q-4 0 -6 -9l-92 -246q-2 -7 4 -7zM427 258h-223q-6 0 -9 -8l-54 -143q-15 -37 -15 -61q0 -31 40 -31h15q15 0 15 -8q0 -10 -17 -10q-16 0 -53.5 1.5t-52.5 1.5l-43 -2q-44 -1 -75 -1q-19 0 -19 10q0 8 12 8q15 0 31 2q32 4 50 25.5t35 64.5l251 628 q10 23 15.5 31.5t12.5 8.5q11 0 25 -32q10 -23 111.5 -277.5t136.5 -337.5q41 -98 88 -109q20 -4 42 -4q13 0 13 -8q0 -10 -46 -10q-109 0 -189 2q-30 2 -30 8q0 8 14 9q6 2 9 8.5t0 14.5l-80 212q-3 7 -10 7z" horiz-adv-x="700" unicode="Ä"/>
<glyph glyph-name="Aring" d="M296 894q0 -21 15.5 -35t34.5 -14q25 0 42.5 15.5t17.5 36.5q0 19 -13.5 32.5t-39.5 13.5q-20 0 -38.5 -13t-18.5 -36zM324 820q-40 0 -64.5 17t-24.5 43q0 35 40 61.5t97 26.5q44 0 69.5 -16t25.5 -43q0 -39 -45 -64t-98 -25zM224 308h184q7 0 5 6l-90 247q-2 9 -5 9 q-4 0 -6 -9l-92 -246q-2 -7 4 -7zM427 258h-223q-6 0 -9 -8l-54 -143q-15 -37 -15 -61q0 -31 40 -31h15q15 0 15 -8q0 -10 -17 -10q-16 0 -53.5 1.5t-52.5 1.5l-43 -2q-44 -1 -75 -1q-19 0 -19 10q0 8 12 8q15 0 31 2q32 4 50 25.5t35 64.5l251 628q10 23 15.5 31.5 t12.5 8.5q11 0 25 -32q10 -23 111.5 -277.5t136.5 -337.5q41 -98 88 -109q20 -4 42 -4q13 0 13 -8q0 -10 -46 -10q-109 0 -189 2q-30 2 -30 8q0 8 14 9q6 2 9 8.5t0 14.5l-80 212q-3 7 -10 7z" horiz-adv-x="700" unicode="Å"/>
<glyph glyph-name="AE" d="M466 398v242h-5q-8 -14 -43 -72t-65.5 -109t-34.5 -59q-5 -10 5 -10h134q9 0 9 8zM466 287v48q0 8 -9 8h-161q-12 0 -17 -7q-6 -9 -53.5 -92t-54.5 -94q-44 -74 -44 -98q0 -20 17 -28q20 -9 51 -9q15 0 15 -8q0 -10 -19 -10q-37 0 -87.5 1.5t-55.5 1.5t-51 -1.5t-76 -1.5 q-14 0 -14 10q0 8 14 8q24 0 43 9q20 9 38.5 24t28 27t22.5 30t17 23q33 43 367 567q17 28 22 44q3 14 13 14q2 0 7 -0.5t10 -0.5q18 -2 36 -2q231 0 250 1q33 3 43 6q1 0 7 2t9 2q6 0 6 -9q0 -2 -1.5 -8.5t-3.5 -21.5t-3 -35q0 -2 -2 -30.5t-3 -35.5q-2 -11 -10 -11 q-9 0 -9 14q0 22 -6 36q-6 15 -19 23.5t-48 12.5q-34 4 -142 4q-7 0 -7 -10v-285q0 -11 7 -11q137 0 160 2q37 3 48 15q11 13 16 13q7 0 7 -9q0 -2 -1 -9.5t-3 -24.5t-4 -39q0 -8 -1 -24t-2 -28t-1 -15q0 -19 -9 -19t-9 9q-3 33 -4 36q-8 34 -56 39q-38 4 -142 4 q-6 0 -6 -10v-47v-52.5t-0.5 -69.5t-0.5 -33q2 -53 23.5 -68.5t96.5 -15.5q68 0 94 12q35 16 45 74q3 15 11 15t8 -18q0 -59 -13 -111q-5 -18 -14 -22t-40 -4q-44 0 -173 3q-65 3 -104 3q-5 0 -23 -0.5t-30 -0.5q-44 -2 -63 -2t-19 9t13 9q17 0 35 4q22 4 29 55q5 42 5 213z " horiz-adv-x="927" unicode="Æ"/>
<glyph glyph-name="Ccedilla" d="M469 -15l-72 -54q56 -5 87 -26t31 -54q0 -39 -44 -73t-140 -34q-17 0 -17 10q0 13 26 13q28 0 56 19t28 48q0 61 -79 73q-22 3 -22 8q0 3 16 15l80 60q-73 10 -136 37.5t-115.5 74t-82.5 120t-30 165.5q0 66 26.5 140.5t90.5 133.5q116 106 316 106q68 0 145 -10 q18 -2 51 -8.5t49 -8.5q15 -1 15 -12q0 -3 -1 -9.5t-2 -18.5t-2 -27q-1 -16 -1.5 -57t-1.5 -51q-2 -23 -12 -23t-10 22q-2 53 -39 92q-26 27 -81 44.5t-122 17.5q-120 0 -188 -62q-92 -84 -92 -259q0 -85 30 -155.5t77.5 -112.5t101.5 -65t106 -23q71 0 112.5 11.5 t70.5 44.5q26 29 34 66q2 12 4.5 16t8.5 4q9 0 9 -15q0 -11 -7.5 -60.5t-14.5 -72.5q-6 -21 -26 -29q-58 -23 -180 -23q-21 0 -53 2z" horiz-adv-x="800" unicode="Ç"/>
<glyph glyph-name="Egrave" d="M409 837q0 -7 -11 -7q-10 0 -93 35t-110 48q-33 14 -33 25q0 6 13 9q41 13 67 25q15 7 19 7q2 0 3.5 -1.5t2.5 -4t4 -7.5t6 -9q9 -12 44.5 -46t66.5 -56l7.5 -5t7 -4.5t4.5 -4t2 -4.5zM164 287v176q0 180 -2 212q-2 27 -10.5 39.5t-32.5 17.5q-12 3 -39 3q-17 0 -17 9 t22 9q14 0 41.5 -0.5t39.5 -0.5q52 -2 63 -2q231 0 250 1q33 3 43 6q1 0 7 2t9 2q6 0 6 -9q0 -2 -1.5 -8.5t-3.5 -21.5t-3 -35q0 -2 -2 -30.5t-3 -35.5q-2 -11 -10 -11q-9 0 -9 14q0 22 -6 36q-6 15 -19 23.5t-48 12.5q-34 4 -142 4q-7 0 -7 -10v-253q0 -11 7 -11 q137 0 160 2q37 3 48 15q11 13 16 13q7 0 7 -8q0 -2 -1 -9.5t-3 -24.5t-4 -39q0 -8 -1 -24t-2 -28t-1 -15q0 -19 -9 -19t-9 9q-3 33 -4 36q-8 34 -56 39q-28 3 -142 3q-6 0 -6 -10v-79v-109v-46q2 -53 23.5 -68.5t96.5 -15.5q68 0 94 12q35 16 45 74q3 15 11 15t8 -18 q0 -59 -13 -111q-5 -18 -14 -22t-40 -4q-44 0 -173 3q-64 3 -104 3q-33 0 -57 -1q-12 0 -35.5 -1t-33.5 -1q-20 0 -20 10q0 8 16 8q18 0 36 4q22 4 29 55q5 42 5 213z" unicode="È"/>
<glyph glyph-name="Eacute" d="M462 972q10 -18 29 -60q7 -15 -5 -15q-1 0 -6.5 0.5t-10.5 0.5q-10 0 -17 -1q-38 -5 -88.5 -23.5t-82.5 -35.5q-16 -8 -17 -8q-6 0 -6 6q0 4 9 13q27 25 86 70.5t75 55.5q13 9 20 9t14 -12zM164 287v176q0 180 -2 212q-2 27 -10.5 39.5t-32.5 17.5q-12 3 -39 3 q-17 0 -17 9t22 9q14 0 41.5 -0.5t39.5 -0.5q52 -2 63 -2q231 0 250 1q33 3 43 6q1 0 7 2t9 2q6 0 6 -9q0 -2 -1.5 -8.5t-3.5 -21.5t-3 -35q0 -2 -2 -30.5t-3 -35.5q-2 -11 -10 -11q-9 0 -9 14q0 22 -6 36q-6 15 -19 23.5t-48 12.5q-34 4 -142 4q-7 0 -7 -10v-253 q0 -11 7 -11q137 0 160 2q37 3 48 15q11 13 16 13q7 0 7 -8q0 -2 -1 -9.5t-3 -24.5t-4 -39q0 -8 -1 -24t-2 -28t-1 -15q0 -19 -9 -19t-9 9q-3 33 -4 36q-8 34 -56 39q-28 3 -142 3q-6 0 -6 -10v-79v-109v-46q2 -53 23.5 -68.5t96.5 -15.5q68 0 94 12q35 16 45 74q3 15 11 15 t8 -18q0 -59 -13 -111q-5 -18 -14 -22t-40 -4q-44 0 -173 3q-64 3 -104 3q-33 0 -57 -1q-12 0 -35.5 -1t-33.5 -1q-20 0 -20 10q0 8 16 8q18 0 36 4q22 4 29 55q5 42 5 213z" unicode="É"/>
<glyph glyph-name="Ecircumflex" d="M341 981q3 0 18 -11q19 -17 119 -90q14 -10 14 -14q0 -5 -5 -10l-29 -29q-7 -7 -13 -7q-4 0 -15 11q-12 13 -45 40t-43 34q-8 6 -13 6t-15 -5q-61 -35 -106 -74q-13 -12 -20 -12q-9 0 -9 10q0 4 9 15q8 8 64.5 61t67.5 63q13 12 21 12zM164 287v176q0 180 -2 212 q-2 27 -10.5 39.5t-32.5 17.5q-12 3 -39 3q-17 0 -17 9t22 9q14 0 41.5 -0.5t39.5 -0.5q52 -2 63 -2q231 0 250 1q33 3 43 6q1 0 7 2t9 2q6 0 6 -9q0 -2 -1.5 -8.5t-3.5 -21.5t-3 -35q0 -2 -2 -30.5t-3 -35.5q-2 -11 -10 -11q-9 0 -9 14q0 22 -6 36q-6 15 -19 23.5t-48 12.5 q-34 4 -142 4q-7 0 -7 -10v-253q0 -11 7 -11q137 0 160 2q37 3 48 15q11 13 16 13q7 0 7 -8q0 -2 -1 -9.5t-3 -24.5t-4 -39q0 -8 -1 -24t-2 -28t-1 -15q0 -19 -9 -19t-9 9q-3 33 -4 36q-8 34 -56 39q-28 3 -142 3q-6 0 -6 -10v-79v-109v-46q2 -53 23.5 -68.5t96.5 -15.5 q68 0 94 12q35 16 45 74q3 15 11 15t8 -18q0 -59 -13 -111q-5 -18 -14 -22t-40 -4q-44 0 -173 3q-64 3 -104 3q-33 0 -57 -1q-12 0 -35.5 -1t-33.5 -1q-20 0 -20 10q0 8 16 8q18 0 36 4q22 4 29 55q5 42 5 213z" unicode="Ê"/>
<glyph glyph-name="Edieresis" d="M229 830q-22 0 -33.5 14.5t-11.5 32.5q0 17 12 31.5t34 14.5q20 0 33.5 -11.5t13.5 -31.5q0 -21 -13.5 -35.5t-34.5 -14.5zM440 830q-22 0 -33.5 14.5t-11.5 32.5q0 17 12 32t34 15q20 0 33.5 -12t13.5 -32q0 -21 -13.5 -35.5t-34.5 -14.5zM164 287v176q0 180 -2 212 q-2 27 -10.5 39.5t-32.5 17.5q-12 3 -39 3q-17 0 -17 9t22 9q14 0 41.5 -0.5t39.5 -0.5q52 -2 63 -2q231 0 250 1q33 3 43 6q1 0 7 2t9 2q6 0 6 -9q0 -2 -1.5 -8.5t-3.5 -21.5t-3 -35q0 -2 -2 -30.5t-3 -35.5q-2 -11 -10 -11q-9 0 -9 14q0 22 -6 36q-6 15 -19 23.5t-48 12.5 q-34 4 -142 4q-7 0 -7 -10v-253q0 -11 7 -11q137 0 160 2q37 3 48 15q11 13 16 13q7 0 7 -8q0 -2 -1 -9.5t-3 -24.5t-4 -39q0 -8 -1 -24t-2 -28t-1 -15q0 -19 -9 -19t-9 9q-3 33 -4 36q-8 34 -56 39q-28 3 -142 3q-6 0 -6 -10v-79v-109v-46q2 -53 23.5 -68.5t96.5 -15.5 q68 0 94 12q35 16 45 74q3 15 11 15t8 -18q0 -59 -13 -111q-5 -18 -14 -22t-40 -4q-44 0 -173 3q-64 3 -104 3q-33 0 -57 -1q-12 0 -35.5 -1t-33.5 -1q-20 0 -20 10q0 8 16 8q18 0 36 4q22 4 29 55q5 42 5 213z" unicode="Ë"/>
<glyph glyph-name="Igrave" d="M300 837q0 -7 -11 -7q-10 0 -93 35t-110 48q-33 14 -33 25q0 6 13 9q41 13 67 25q15 7 19 7q2 0 3.5 -1.5t2.5 -4t4 -7.5t6 -9q9 -12 44.5 -46t66.5 -56l7.5 -5t7 -4.5t4.5 -4t2 -4.5zM164 287v176q0 180 -2 212q-3 49 -34 56q-15 4 -36 4q-16 0 -16 10q0 8 24 8 q20 0 68.5 -1.5t61.5 -1.5q11 0 56 1.5t66 1.5t21 -8q0 -10 -16 -10q-12 0 -30 -3q-20 -4 -27.5 -17t-9.5 -40q-2 -32 -2 -212v-176q0 -176 4 -219q3 -23 11 -34.5t29 -14.5q28 -4 51 -4q16 0 16 -8q0 -10 -19 -10q-38 0 -92.5 1.5t-63.5 1.5t-56.5 -1.5t-69.5 -1.5 q-20 0 -20 10q0 8 16 8q18 0 36 4q24 5 29 50q5 42 5 218z" horiz-adv-x="452" unicode="Ì"/>
<glyph glyph-name="Iacute" d="M363 972q11 -18 29 -60q8 -15 -5 -15q-1 0 -6.5 0.5t-10.5 0.5q-10 0 -17 -1q-38 -5 -88.5 -23.5t-82.5 -35.5q-16 -8 -17 -8q-6 0 -6 6q0 4 9 13q27 25 86 70.5t75 55.5q13 9 20 9t14 -12zM164 287v176q0 180 -2 212q-3 49 -34 56q-15 4 -36 4q-16 0 -16 10q0 8 24 8 q20 0 68.5 -1.5t61.5 -1.5q11 0 56 1.5t66 1.5t21 -8q0 -10 -16 -10q-12 0 -30 -3q-20 -4 -27.5 -17t-9.5 -40q-2 -32 -2 -212v-176q0 -176 4 -219q3 -23 11 -34.5t29 -14.5q28 -4 51 -4q16 0 16 -8q0 -10 -19 -10q-38 0 -92.5 1.5t-63.5 1.5t-56.5 -1.5t-69.5 -1.5 q-20 0 -20 10q0 8 16 8q18 0 36 4q24 5 29 50q5 42 5 218z" horiz-adv-x="452" unicode="Í"/>
<glyph glyph-name="Icircumflex" d="M232 981q3 0 18 -11q19 -17 119 -90q14 -10 14 -14q0 -5 -5 -10l-29 -29q-7 -7 -13 -7q-4 0 -15 11q-12 13 -45 40t-43 34q-7 6 -13 6q-5 0 -15 -5q-61 -35 -106 -74q-13 -12 -20 -12q-9 0 -9 10q0 4 9 15q8 8 64.5 61t67.5 63q13 12 21 12zM164 287v176q0 180 -2 212 q-3 49 -34 56q-15 4 -36 4q-16 0 -16 10q0 8 24 8q20 0 68.5 -1.5t61.5 -1.5q11 0 56 1.5t66 1.5t21 -8q0 -10 -16 -10q-12 0 -30 -3q-20 -4 -27.5 -17t-9.5 -40q-2 -32 -2 -212v-176q0 -176 4 -219q3 -23 11 -34.5t29 -14.5q28 -4 51 -4q16 0 16 -8q0 -10 -19 -10 q-38 0 -92.5 1.5t-63.5 1.5t-56.5 -1.5t-69.5 -1.5q-20 0 -20 10q0 8 16 8q18 0 36 4q24 5 29 50q5 42 5 218z" horiz-adv-x="452" unicode="Î"/>
<glyph glyph-name="Idieresis" d="M120 830q-22 0 -33.5 14.5t-11.5 32.5q0 17 12 31.5t34 14.5q20 0 33.5 -11.5t13.5 -31.5q0 -21 -13.5 -35.5t-34.5 -14.5zM331 830q-22 0 -33.5 14.5t-11.5 32.5q0 17 12 32t34 15q20 0 33.5 -12t13.5 -32q0 -21 -13.5 -35.5t-34.5 -14.5zM164 287v176q0 180 -2 212 q-3 49 -34 56q-15 4 -36 4q-16 0 -16 10q0 8 24 8q20 0 68.5 -1.5t61.5 -1.5q11 0 56 1.5t66 1.5t21 -8q0 -10 -16 -10q-12 0 -30 -3q-20 -4 -27.5 -17t-9.5 -40q-2 -32 -2 -212v-176q0 -176 4 -219q3 -23 11 -34.5t29 -14.5q28 -4 51 -4q16 0 16 -8q0 -10 -19 -10 q-38 0 -92.5 1.5t-63.5 1.5t-56.5 -1.5t-69.5 -1.5q-20 0 -20 10q0 8 16 8q18 0 36 4q24 5 29 50q5 42 5 218z" horiz-adv-x="452" unicode="Ï"/>
<glyph glyph-name="Eth" d="M289 406h200q9 0 7 -12l-6 -33q-2 -9 -12 -9h-189v-46q0 -116 2 -154q3 -64 11 -76q28 -41 131 -41q151 0 234 75q80 72 80 246q0 158 -96 250q-105 100 -284 100q-51 0 -65 -7q-12 -5 -12 -20q-1 -34 -1 -200v-73zM164 353h-101q-7 0 -5 12l5 30q1 10 13 10h88v58 q0 180 -2 212q-2 27 -10.5 39.5t-32.5 17.5q-12 3 -39 3q-17 0 -17 9t22 9q30 0 81.5 -1.5t62.5 -1.5q12 0 66 1.5t88 1.5q65 0 103.5 -2t99.5 -11.5t110 -35t88 -65.5q97 -101 97 -254q0 -169 -108 -281q-42 -43 -129 -79.5t-191 -36.5q-38 0 -128 6q-88 6 -101 6 q-33 0 -57 -1q-12 0 -35.5 -1t-33.5 -1q-20 0 -20 10q0 8 16 8q18 0 36 4q22 4 29 55q5 42 5 213v66z" horiz-adv-x="936" unicode="Ð"/>
<glyph glyph-name="Ntilde" d="M554 830q-37 0 -90 28q-40 22 -64 22q-36 0 -68 -36q-10 -10 -16 -10q-7 0 -7 7q0 8 8 19q17 27 45 52t59 25q7 0 14 -0.5t13.5 -3t11 -3.5t12 -4.5t9.5 -5t10.5 -6t9.5 -5.5q39 -22 72 -22q37 0 61 30q10 13 16 13q8 0 8 -8q0 -5 -6 -17q-12 -22 -40 -48.5t-58 -26.5z M209 553l11 -420q3 -100 35 -111q20 -7 52 -7q17 0 17 -8q0 -10 -23 -10q-38 0 -79 1.5t-45 1.5q-3 0 -19 -0.5t-41 -1.5t-48 -1q-22 0 -22 10q0 8 16 8q27 0 45 5q19 6 24.5 31t6.5 93l9 592q0 34 13 34q3 0 6 -1.5t7 -4.5t6.5 -6t8.5 -9t9 -10q146 -158 310 -321 q29 -29 81 -83t92 -96.5t47 -48.5h5l-10 449q-1 45 -8.5 63.5t-25.5 26.5q-15 6 -53 6q-16 0 -16 9t26 9q30 0 72 -1.5t49 -1.5q1 0 35 1.5t63 1.5q23 0 23 -9t-18 -9t-30 -3q-21 -6 -28.5 -24t-8.5 -61l-11 -631q0 -31 -13 -31q-12 0 -34 22q-36 34 -147.5 146t-147.5 148 q-38 37 -81 82t-72 77t-55.5 60.5t-29.5 32.5h-3z" horiz-adv-x="947" unicode="Ñ"/>
<glyph glyph-name="Ograve" d="M537 837q0 -7 -11 -7q-10 0 -93 35t-110 48q-33 14 -33 25q0 6 13 9q41 13 67 25q15 7 19 7q2 0 3.5 -1.5t2.5 -4t4 -7.5t6 -9q9 -12 44.5 -46t66.5 -56l7.5 -5t7 -4.5t4.5 -4t2 -4.5zM500 33q26 0 51.5 5.5t60 25.5t59.5 53t43 95t18 144q0 164 -83.5 263.5t-209.5 99.5 q-47 0 -87.5 -14.5t-78 -48t-59 -97.5t-21.5 -153q0 -161 83.5 -267t223.5 -106zM458 -17q-103 0 -183.5 36t-126.5 94.5t-69.5 125t-23.5 136.5q0 53 14 106.5t45.5 105.5t78 91.5t117.5 64t158 24.5q186 0 295 -101t109 -273q0 -176 -113.5 -293t-300.5 -117z" horiz-adv-x="927" unicode="Ò"/>
<glyph glyph-name="Oacute" d="M600 972q10 -18 29 -60q7 -15 -5 -15q-1 0 -6.5 0.5t-10.5 0.5q-10 0 -17 -1q-38 -5 -88.5 -23.5t-82.5 -35.5q-16 -8 -17 -8q-6 0 -6 6q0 4 9 13q27 25 86 70.5t75 55.5q13 9 20 9t14 -12zM500 33q26 0 51.5 5.5t60 25.5t59.5 53t43 95t18 144q0 164 -83.5 263.5 t-209.5 99.5q-47 0 -87.5 -14.5t-78 -48t-59 -97.5t-21.5 -153q0 -161 83.5 -267t223.5 -106zM458 -17q-103 0 -183.5 36t-126.5 94.5t-69.5 125t-23.5 136.5q0 53 14 106.5t45.5 105.5t78 91.5t117.5 64t158 24.5q186 0 295 -101t109 -273q0 -176 -113.5 -293t-300.5 -117z " horiz-adv-x="927" unicode="Ó"/>
<glyph glyph-name="Ocircumflex" d="M469 981q3 0 18 -11q19 -17 119 -90q14 -10 14 -14q0 -5 -5 -10l-29 -29q-7 -7 -13 -7q-4 0 -15 11q-12 13 -45 40t-43 34q-8 6 -13 6t-15 -5q-61 -35 -106 -74q-13 -12 -20 -12q-9 0 -9 10q0 4 9 15q8 8 64.5 61t67.5 63q13 12 21 12zM500 33q26 0 51.5 5.5t60 25.5 t59.5 53t43 95t18 144q0 164 -83.5 263.5t-209.5 99.5q-47 0 -87.5 -14.5t-78 -48t-59 -97.5t-21.5 -153q0 -161 83.5 -267t223.5 -106zM458 -17q-103 0 -183.5 36t-126.5 94.5t-69.5 125t-23.5 136.5q0 53 14 106.5t45.5 105.5t78 91.5t117.5 64t158 24.5q186 0 295 -101 t109 -273q0 -176 -113.5 -293t-300.5 -117z" horiz-adv-x="927" unicode="Ô"/>
<glyph glyph-name="Otilde" d="M534 830q-37 0 -90 28q-40 22 -64 22q-36 0 -68 -36q-10 -10 -16 -10q-7 0 -7 7q0 8 8 19q17 27 45 52t59 25q7 0 14 -0.5t13.5 -3t11 -3.5t12 -4.5t9.5 -5t10.5 -6t9.5 -5.5q39 -22 72 -22q37 0 61 30q10 13 16 13q8 0 8 -8q0 -5 -6 -17q-12 -22 -40 -48.5t-58 -26.5z M500 33q26 0 51.5 5.5t60 25.5t59.5 53t43 95t18 144q0 164 -83.5 263.5t-209.5 99.5q-47 0 -87.5 -14.5t-78 -48t-59 -97.5t-21.5 -153q0 -161 83.5 -267t223.5 -106zM458 -17q-103 0 -183.5 36t-126.5 94.5t-69.5 125t-23.5 136.5q0 53 14 106.5t45.5 105.5t78 91.5 t117.5 64t158 24.5q186 0 295 -101t109 -273q0 -176 -113.5 -293t-300.5 -117z" horiz-adv-x="927" unicode="Õ"/>
<glyph glyph-name="Odieresis" d="M357 830q-22 0 -33.5 14.5t-11.5 32.5q0 17 12 31.5t34 14.5q20 0 33.5 -11.5t13.5 -31.5q0 -21 -13.5 -35.5t-34.5 -14.5zM568 830q-22 0 -33.5 14.5t-11.5 32.5q0 17 12 32t34 15q20 0 33.5 -12t13.5 -32q0 -21 -13.5 -35.5t-34.5 -14.5zM500 33q26 0 51.5 5.5t60 25.5 t59.5 53t43 95t18 144q0 164 -83.5 263.5t-209.5 99.5q-47 0 -87.5 -14.5t-78 -48t-59 -97.5t-21.5 -153q0 -161 83.5 -267t223.5 -106zM458 -17q-103 0 -183.5 36t-126.5 94.5t-69.5 125t-23.5 136.5q0 53 14 106.5t45.5 105.5t78 91.5t117.5 64t158 24.5q186 0 295 -101 t109 -273q0 -176 -113.5 -293t-300.5 -117z" horiz-adv-x="927" unicode="Ö"/>
<glyph glyph-name="multiply" d="M496 67l-41 -41l-180 184l-180 -184l-41 41l180 185l-180 185l41 41l180 -185l180 185l41 -41l-180 -185z" horiz-adv-x="549" unicode="×"/>
<glyph glyph-name="Oslash" d="M246 184l407 430q-82 104 -213 104q-47 0 -87.5 -14.5t-78 -48t-59 -97.5t-21.5 -153q0 -128 52 -221zM684 566l-407 -428q86 -106 224 -106q26 0 51.5 5.5t60 25.5t59.5 53t43 95t18 144q0 118 -49 211zM204 61l-84 -88q-5 -5 -10 0l-28 25q-6 6 -2 10l84 89 q-55 55 -82 129t-27 149q0 53 14 106.5t45.5 105.5t78 91.5t117.5 64t158 24.5q157 0 260 -73l75 79q5 5 14 -2l28 -24q5 -5 0 -11l-74 -78q101 -99 101 -265q0 -176 -113.5 -293t-300.5 -117q-152 0 -254 78z" horiz-adv-x="927" unicode="Ø"/>
<glyph glyph-name="Ugrave" d="M504 837q0 -7 -11 -7q-10 0 -93 35t-110 48q-33 14 -33 25q0 6 13 9q41 13 67 25q15 7 19 7q2 0 3.5 -1.5t2.5 -4t4 -7.5t6 -9q9 -12 44.5 -46t66.5 -56l7.5 -5t7 -4.5t4.5 -4t2 -4.5zM121 317v146q0 180 -2 212q-2 27 -10.5 39.5t-32.5 17.5q-12 3 -39 3q-17 0 -17 9 t22 9q29 0 81.5 -1.5t64.5 -1.5q10 0 57 1.5t66 1.5q22 0 22 -9t-16 -9q-11 0 -29 -3q-20 -4 -27.5 -17t-9.5 -40q-2 -32 -2 -212v-140q0 -103 19.5 -158.5t58.5 -87.5q50 -41 125 -41q84 0 138 54q37 37 47.5 94.5t10.5 153.5v125q0 180 -2 212q-2 27 -10.5 39.5 t-32.5 17.5q-12 3 -36 3q-17 0 -17 9t21 9q14 0 31 -0.5t31.5 -0.5t26.5 -0.5t19 -1.5h7q3 0 47 1.5t67 1.5q21 0 21 -9t-18 -9q-11 0 -29 -3q-20 -4 -27.5 -17t-9.5 -40q-2 -32 -2 -212v-107q0 -102 -19 -177t-76 -124q-84 -72 -208 -72q-146 0 -222 69q-89 80 -89 265z " horiz-adv-x="852" unicode="Ù"/>
<glyph glyph-name="Uacute" d="M582 972q10 -18 29 -60q7 -15 -5 -15q-1 0 -6.5 0.5t-10.5 0.5q-10 0 -17 -1q-38 -5 -88.5 -23.5t-82.5 -35.5q-16 -8 -17 -8q-6 0 -6 6q0 4 9 13q27 25 86 70.5t75 55.5q13 9 20 9t14 -12zM121 317v146q0 180 -2 212q-2 27 -10.5 39.5t-32.5 17.5q-12 3 -39 3 q-17 0 -17 9t22 9q29 0 81.5 -1.5t64.5 -1.5q10 0 57 1.5t66 1.5q22 0 22 -9t-16 -9q-11 0 -29 -3q-20 -4 -27.5 -17t-9.5 -40q-2 -32 -2 -212v-140q0 -103 19.5 -158.5t58.5 -87.5q50 -41 125 -41q84 0 138 54q37 37 47.5 94.5t10.5 153.5v125q0 180 -2 212 q-2 27 -10.5 39.5t-32.5 17.5q-12 3 -36 3q-17 0 -17 9t21 9q14 0 31 -0.5t31.5 -0.5t26.5 -0.5t19 -1.5h7q3 0 47 1.5t67 1.5q21 0 21 -9t-18 -9q-11 0 -29 -3q-20 -4 -27.5 -17t-9.5 -40q-2 -32 -2 -212v-107q0 -102 -19 -177t-76 -124q-84 -72 -208 -72q-146 0 -222 69 q-89 80 -89 265z" horiz-adv-x="852" unicode="Ú"/>
<glyph glyph-name="Ucircumflex" d="M446 981q3 0 18 -11q19 -17 119 -90q14 -10 14 -14q0 -5 -5 -10l-29 -29q-7 -7 -13 -7q-4 0 -15 11q-12 13 -45 40t-43 34q-8 6 -13 6t-15 -5q-61 -35 -106 -74q-13 -12 -20 -12q-9 0 -9 10q0 4 9 15q8 8 64.5 61t67.5 63q13 12 21 12zM121 317v146q0 180 -2 212 q-2 27 -10.5 39.5t-32.5 17.5q-12 3 -39 3q-17 0 -17 9t22 9q29 0 81.5 -1.5t64.5 -1.5q10 0 57 1.5t66 1.5q22 0 22 -9t-16 -9q-11 0 -29 -3q-20 -4 -27.5 -17t-9.5 -40q-2 -32 -2 -212v-140q0 -103 19.5 -158.5t58.5 -87.5q50 -41 125 -41q84 0 138 54q37 37 47.5 94.5 t10.5 153.5v125q0 180 -2 212q-2 27 -10.5 39.5t-32.5 17.5q-12 3 -36 3q-17 0 -17 9t21 9q14 0 31 -0.5t31.5 -0.5t26.5 -0.5t19 -1.5h7q3 0 47 1.5t67 1.5q21 0 21 -9t-18 -9q-11 0 -29 -3q-20 -4 -27.5 -17t-9.5 -40q-2 -32 -2 -212v-107q0 -102 -19 -177t-76 -124 q-84 -72 -208 -72q-146 0 -222 69q-89 80 -89 265z" horiz-adv-x="852" unicode="Û"/>
<glyph glyph-name="Udieresis" d="M339 830q-22 0 -33.5 14.5t-11.5 32.5q0 17 12 31.5t34 14.5q20 0 33.5 -11.5t13.5 -31.5q0 -21 -13.5 -35.5t-34.5 -14.5zM550 830q-22 0 -33.5 14.5t-11.5 32.5q0 17 12 32t34 15q20 0 33.5 -12t13.5 -32q0 -21 -13.5 -35.5t-34.5 -14.5zM121 317v146q0 180 -2 212 q-2 27 -10.5 39.5t-32.5 17.5q-12 3 -39 3q-17 0 -17 9t22 9q29 0 81.5 -1.5t64.5 -1.5q10 0 57 1.5t66 1.5q22 0 22 -9t-16 -9q-11 0 -29 -3q-20 -4 -27.5 -17t-9.5 -40q-2 -32 -2 -212v-140q0 -103 19.5 -158.5t58.5 -87.5q50 -41 125 -41q84 0 138 54q37 37 47.5 94.5 t10.5 153.5v125q0 180 -2 212q-2 27 -10.5 39.5t-32.5 17.5q-12 3 -36 3q-17 0 -17 9t21 9q14 0 31 -0.5t31.5 -0.5t26.5 -0.5t19 -1.5h7q3 0 47 1.5t67 1.5q21 0 21 -9t-18 -9q-11 0 -29 -3q-20 -4 -27.5 -17t-9.5 -40q-2 -32 -2 -212v-107q0 -102 -19 -177t-76 -124 q-84 -72 -208 -72q-146 0 -222 69q-89 80 -89 265z" horiz-adv-x="852" unicode="Ü"/>
<glyph glyph-name="Yacute" d="M501 972q11 -18 29 -60q8 -15 -5 -15q-1 0 -6.5 0.5t-10.5 0.5q-10 0 -17 -1q-38 -5 -88.5 -23.5t-82.5 -35.5q-16 -8 -17 -8q-6 0 -6 6q0 4 9 13q27 25 86 70.5t75 55.5q13 9 20 9t14 -12zM276 174v82q0 54 -23 105q-5 12 -77.5 131t-98.5 157q-37 54 -69 73 q-24 13 -42 13q-15 0 -15 9t19 9q7 0 57.5 -1.5t68.5 -1.5q8 0 45 1.5t62 1.5q15 0 15 -9q0 -5 -22 -11q-14 -3 -14 -18q0 -10 12 -34q4 -8 170 -299q5 12 74 136t76 139q14 31 14 52q0 20 -21 25q-18 4 -18 10q0 9 17 9t48.5 -1.5t45.5 -1.5q11 0 54.5 1.5t52.5 1.5 q18 0 18 -8q0 -10 -19 -10q-22 0 -44 -12q-23 -11 -54 -49q-24 -29 -100.5 -157t-90.5 -161q-15 -36 -15 -100v-82q0 -58 3 -100q3 -50 41 -55q28 -4 50 -4q16 0 16 -8q0 -10 -21 -10q-36 0 -90 1.5t-63 1.5q-11 0 -58 -1.5t-67 -1.5q-22 0 -22 10q0 8 16 8q17 0 35 4 q28 6 31 55q3 42 3 100z" horiz-adv-x="670" unicode="Ý"/>
<glyph glyph-name="Thorn" d="M164 287v176q0 180 -2 212q-2 27 -10.5 39.5t-32.5 17.5q-12 3 -39 3q-17 0 -17 9t22 9q30 0 81.5 -1.5t61.5 -1.5q9 0 60 1.5t80 1.5q19 0 19 -9t-15 -9q-10 0 -38 -4q-43 -8 -45 -53q-2 -76 -2 -90q60 4 88 4q121 0 186 -57q19 -17 34 -49.5t15 -68.5 q0 -106 -69.5 -172t-176.5 -66q-16 0 -21 1q-12 0 -12 9q0 11 28 11q47 0 89 47t42 114q0 98 -56 154q-35 35 -96 35q-30 0 -43 -6q-8 -3 -8 -19v-238q0 -171 5 -214q5 -50 39 -54q28 -4 49 -4q13 0 13 -8q0 -10 -20 -10q-34 0 -87 1.5t-62 1.5t-56.5 -1.5t-69.5 -1.5 q-20 0 -20 10q0 8 16 8q18 0 36 4q22 4 29 55q5 42 5 213z" horiz-adv-x="655" unicode="Þ"/>
<glyph glyph-name="germandbls" d="M779 -14q-94 0 -143 22q-11 5 -14 10t-3 19q0 43 5 113q0 22 11 22q9 0 9 -14q0 -20 8 -44q13 -44 53 -64t87 -20q56 0 89 31t33 77q0 33 -17 61t-70 59l-51 30q-76 44 -107 89.5t-31 103.5q0 76 64 123.5t158 47.5q71 0 125 -14q12 -3 12 -11q0 -3 -0.5 -15t-1.5 -35 t-1 -52q0 -27 -11 -27q-9 0 -9 15q0 29 -23 56q-33 40 -98 40q-50 0 -85 -24.5t-35 -66.5q0 -31 18.5 -56t74.5 -56l36 -20q83 -46 117.5 -95.5t34.5 -110.5q0 -97 -88 -159q-49 -35 -147 -35zM239 -14q-94 0 -143 22q-11 5 -14 10t-3 19q0 43 5 113q0 22 11 22q9 0 9 -14 q0 -20 8 -44q13 -44 53 -64t87 -20q56 0 89 31t33 77q0 33 -17 61t-70 59l-51 30q-76 44 -107 89.5t-31 103.5q0 76 64 123.5t158 47.5q71 0 125 -14q12 -3 12 -11q0 -3 -0.5 -15t-1.5 -35t-1 -52q0 -27 -11 -27q-9 0 -9 15q0 29 -23 56q-33 40 -98 40q-50 0 -85 -24.5 t-35 -66.5q0 -31 18.5 -56t74.5 -56l36 -20q83 -46 117.5 -95.5t34.5 -110.5q0 -97 -88 -159q-49 -35 -147 -35z" horiz-adv-x="1080" unicode="ß"/>
<glyph glyph-name="agrave" d="M390 725q0 -7 -11 -7q-10 0 -93 35t-110 48q-33 14 -33 25q0 6 13 9q41 13 67 25q15 7 19 7q2 0 3.5 -1.5t2.5 -4t4 -7.5t6 -9q9 -12 44.5 -46t66.5 -56l7.5 -5t7 -4.5t4.5 -4t2 -4.5zM200 258h170q6 0 4 5l-83 216q-3 8 -4 8q-2 0 -5 -8l-85 -215q-3 -6 3 -6zM389 211 h-207q-6 0 -8 -6l-47 -114q-13 -30 -13 -52q0 -24 35 -24h13q13 0 13 -9t-14 -9q-15 0 -49.5 1.5t-48.5 1.5q-3 0 -19 -0.5t-39.5 -1.5t-43.5 -1q-16 0 -16 9t10 9q4 0 13 0.5t13 0.5q28 4 43 21.5t30 53.5l230 535q14 34 26 34q9 0 13.5 -5.5t12.5 -21.5 q10 -23 102.5 -240.5t121.5 -283.5q37 -84 75 -91q19 -3 33 -3q12 0 12 -9t-38 -9q-95 0 -169 2q-26 2 -26 7q0 8 11 9q5 1 8 6.5t0 12.5l-68 171q-2 6 -9 6z" unicode="à"/>
<glyph glyph-name="aacute" d="M453 860q11 -18 29 -60q8 -15 -5 -15q-1 0 -6.5 0.5t-10.5 0.5q-10 0 -17 -1q-38 -5 -88.5 -23.5t-82.5 -35.5q-16 -8 -17 -8q-6 0 -6 6q0 4 9 13q27 25 86 70.5t75 55.5q13 9 20 9t14 -12zM200 258h170q6 0 4 5l-83 216q-3 8 -4 8q-2 0 -5 -8l-85 -215q-3 -6 3 -6z M389 211h-207q-6 0 -8 -6l-47 -114q-13 -30 -13 -52q0 -24 35 -24h13q13 0 13 -9t-14 -9q-15 0 -49.5 1.5t-48.5 1.5q-3 0 -19 -0.5t-39.5 -1.5t-43.5 -1q-16 0 -16 9t10 9q4 0 13 0.5t13 0.5q28 4 43 21.5t30 53.5l230 535q14 34 26 34q9 0 13.5 -5.5t12.5 -21.5 q10 -23 102.5 -240.5t121.5 -283.5q37 -84 75 -91q19 -3 33 -3q12 0 12 -9t-38 -9q-95 0 -169 2q-26 2 -26 7q0 8 11 9q5 1 8 6.5t0 12.5l-68 171q-2 6 -9 6z" unicode="á"/>
<glyph glyph-name="acircumflex" d="M322 869q3 0 18 -11q19 -17 119 -90q14 -10 14 -14q0 -5 -5 -10l-29 -29q-7 -7 -13 -7q-4 0 -15 11q-12 13 -45 40t-43 34q-7 6 -13 6q-5 0 -15 -5q-61 -35 -106 -74q-13 -12 -20 -12q-9 0 -9 10q0 4 9 15q8 8 64.5 61t67.5 63q13 12 21 12zM200 258h170q6 0 4 5l-83 216 q-3 8 -4 8q-2 0 -5 -8l-85 -215q-3 -6 3 -6zM389 211h-207q-6 0 -8 -6l-47 -114q-13 -30 -13 -52q0 -24 35 -24h13q13 0 13 -9t-14 -9q-15 0 -49.5 1.5t-48.5 1.5q-3 0 -19 -0.5t-39.5 -1.5t-43.5 -1q-16 0 -16 9t10 9q4 0 13 0.5t13 0.5q28 4 43 21.5t30 53.5l230 535 q14 34 26 34q9 0 13.5 -5.5t12.5 -21.5q10 -23 102.5 -240.5t121.5 -283.5q37 -84 75 -91q19 -3 33 -3q12 0 12 -9t-38 -9q-95 0 -169 2q-26 2 -26 7q0 8 11 9q5 1 8 6.5t0 12.5l-68 171q-2 6 -9 6z" unicode="â"/>
<glyph glyph-name="atilde" d="M387 718q-37 0 -90 28q-40 22 -64 22q-36 0 -68 -36q-10 -10 -16 -10q-7 0 -7 7q0 8 8 19q17 27 45 52t59 25q7 0 14 -0.5t13.5 -3t11 -3.5t12 -4.5t9.5 -5t10.5 -6t9.5 -5.5q39 -22 72 -22q37 0 61 30q10 13 16 13q8 0 8 -8q0 -5 -6 -17q-12 -22 -40 -48.5t-58 -26.5z M200 258h170q6 0 4 5l-83 216q-3 8 -4 8q-2 0 -5 -8l-85 -215q-3 -6 3 -6zM389 211h-207q-6 0 -8 -6l-47 -114q-13 -30 -13 -52q0 -24 35 -24h13q13 0 13 -9t-14 -9q-15 0 -49.5 1.5t-48.5 1.5q-3 0 -19 -0.5t-39.5 -1.5t-43.5 -1q-16 0 -16 9t10 9q4 0 13 0.5t13 0.5 q28 4 43 21.5t30 53.5l230 535q14 34 26 34q9 0 13.5 -5.5t12.5 -21.5q10 -23 102.5 -240.5t121.5 -283.5q37 -84 75 -91q19 -3 33 -3q12 0 12 -9t-38 -9q-95 0 -169 2q-26 2 -26 7q0 8 11 9q5 1 8 6.5t0 12.5l-68 171q-2 6 -9 6z" unicode="ã"/>
<glyph glyph-name="adieresis" d="M210 718q-22 0 -33.5 14.5t-11.5 32.5q0 17 12 31.5t34 14.5q20 0 33.5 -11.5t13.5 -31.5q0 -21 -13.5 -35.5t-34.5 -14.5zM421 718q-22 0 -33.5 14.5t-11.5 32.5q0 17 12 32t34 15q20 0 33.5 -12t13.5 -32q0 -21 -13.5 -35.5t-34.5 -14.5zM200 258h170q6 0 4 5l-83 216 q-3 8 -4 8q-2 0 -5 -8l-85 -215q-3 -6 3 -6zM389 211h-207q-6 0 -8 -6l-47 -114q-13 -30 -13 -52q0 -24 35 -24h13q13 0 13 -9t-14 -9q-15 0 -49.5 1.5t-48.5 1.5q-3 0 -19 -0.5t-39.5 -1.5t-43.5 -1q-16 0 -16 9t10 9q4 0 13 0.5t13 0.5q28 4 43 21.5t30 53.5l230 535 q14 34 26 34q9 0 13.5 -5.5t12.5 -21.5q10 -23 102.5 -240.5t121.5 -283.5q37 -84 75 -91q19 -3 33 -3q12 0 12 -9t-38 -9q-95 0 -169 2q-26 2 -26 7q0 8 11 9q5 1 8 6.5t0 12.5l-68 171q-2 6 -9 6z" unicode="ä"/>
<glyph glyph-name="aring" d="M262 782q0 -21 15.5 -35t34.5 -14q25 0 42.5 15.5t17.5 36.5q0 19 -13.5 32.5t-39.5 13.5q-20 0 -38.5 -13t-18.5 -36zM290 708q-40 0 -64.5 17t-24.5 43q0 35 40 61.5t97 26.5q44 0 69.5 -16t25.5 -43q0 -39 -45 -64t-98 -25zM200 258h170q6 0 4 5l-83 216q-3 8 -4 8 q-2 0 -5 -8l-85 -215q-3 -6 3 -6zM389 211h-207q-6 0 -8 -6l-47 -114q-13 -30 -13 -52q0 -24 35 -24h13q13 0 13 -9t-14 -9q-15 0 -49.5 1.5t-48.5 1.5q-3 0 -19 -0.5t-39.5 -1.5t-43.5 -1q-16 0 -16 9t10 9q4 0 13 0.5t13 0.5q28 4 43 21.5t30 53.5l230 535q14 34 26 34 q9 0 13.5 -5.5t12.5 -21.5q10 -23 102.5 -240.5t121.5 -283.5q37 -84 75 -91q19 -3 33 -3q12 0 12 -9t-38 -9q-95 0 -169 2q-26 2 -26 7q0 8 11 9q5 1 8 6.5t0 12.5l-68 171q-2 6 -9 6z" unicode="å"/>
<glyph glyph-name="ae" d="M414 337v213h-4q-76 -120 -127 -211q-5 -8 4 -8h119q8 0 8 6zM414 240v41q0 7 -8 7h-146q-10 0 -14 -6t-23.5 -39t-41.5 -70t-27 -45q-38 -62 -38 -84q0 -14 15 -22q15 -7 45 -7q13 0 13 -9t-17 -9q-33 0 -79.5 1.5t-50.5 1.5t-44.5 -1.5t-67.5 -1.5q-12 0 -12 9t12 9 q24 0 39 7q14 6 27 14.5t23 19.5t16.5 18.5t15.5 19.5t11 15q12 15 89 130t154.5 232.5t79.5 119.5q14 21 19 37q3 12 11 12q1 0 15.5 -1t31.5 -1h168h72q3 0 38 5q1 0 6.5 2t7.5 2q5 0 5 -8q0 -2 -1 -7.5t-3 -18t-3 -29.5q0 -2 -1.5 -26t-2.5 -30q-3 -13 -11 -13t-8 11 q0 18 -5 31q-5 14 -16 21t-41 10q-22 3 -139 3q-6 0 -6 -8v-238q0 -9 6 -9q113 0 155 2q31 2 42 12q9 11 14 11q6 0 6 -7q0 -3 -7 -63q-3 -25 -3 -57q0 -18 -10 -18q-8 0 -8 7q-3 28 -4 31q-7 29 -47 33q-25 3 -139 3q-5 0 -5 -8v-40v-130q0 -42 24 -54.5t94 -12.5 q58 0 81 10q32 14 40 63q1 13 9 13q9 0 9 -20q0 -47 -11 -94q-4 -16 -12 -19t-36 -3q-35 0 -161 3q-43 2 -102 2q-5 0 -20 -0.5t-25 -0.5q-36 -2 -53 -2t-17 8q0 10 11 10q19 0 31 3q21 5 26 45q4 36 4 177z" horiz-adv-x="836" unicode="æ"/>
<glyph glyph-name="ccedilla" d="M661 143q0 -10 -6.5 -52t-12.5 -61q-5 -18 -23 -25q-47 -19 -159 -19h-21l-75 -55q56 -5 87 -26t31 -54q0 -39 -44 -73t-140 -34q-17 0 -17 10q0 13 26 13q28 0 56 19t28 48q0 61 -79 73q-22 3 -22 8q0 3 16 15l80 60q-140 14 -228 88q-110 92 -110 251q0 56 23.5 119.5 t79.5 113.5q103 90 279 90q56 0 128 -9q11 -2 42 -7t46 -7q13 -1 13 -10q0 -3 -0.5 -8t-1.5 -15.5t-2 -23.5q-1 -16 -2 -51t-1 -41q-2 -21 -12 -21q-9 0 -9 18q-2 47 -34 79q-52 50 -170 50q-110 0 -166 -48q-81 -70 -81 -221q0 -72 26 -131t67 -94.5t88 -54t93 -18.5 q63 0 97 8.5t59 36.5t30 57q3 17 11 17q10 0 10 -15z" horiz-adv-x="705" unicode="ç"/>
<glyph glyph-name="egrave" d="M381 725q0 -7 -11 -7q-10 0 -93 35t-110 48q-33 14 -33 25q0 6 13 9q41 13 67 25q15 7 19 7q2 0 3.5 -1.5t2.5 -4t4 -7.5t6 -9q9 -12 44.5 -46t66.5 -56l7.5 -5t7 -4.5t4.5 -4t2 -4.5zM144 244v150q0 153 -1 180q-1 22 -9 31t-29 15q-11 3 -35 3q-15 0 -15 9q0 8 20 8 q26 0 71.5 -1t55.5 -1h176h64q4 0 37 5q2 0 7 2t7 2q6 0 6 -8q0 -2 -1.5 -7.5t-3 -18t-2.5 -29.5q0 -1 -2 -25.5t-3 -30.5q-3 -14 -10 -14t-7 11q0 19 -6 31q-6 14 -17 21t-41 10q-30 4 -138 4q-6 0 -6 -8v-210q0 -9 6 -9q134 0 154 2q33 3 42 13q13 11 14 11q7 0 7 -9 q0 -2 -7 -62q-4 -34 -4 -57q0 -19 -9 -19q-8 0 -8 7q0 2 -1 13.5t-2 17.5q-9 29 -49 33q-32 4 -138 4q-5 0 -5 -9v-68v-89v-37q1 -43 25.5 -57t93.5 -14q58 0 83 11q29 13 38 63q3 13 10 13q8 0 8 -20q0 -53 -12 -94q-4 -16 -12 -19t-35 -3q-97 0 -162 3q-86 2 -102 2 q-4 0 -21 -0.5t-29 -0.5q-42 -2 -61 -2q-17 0 -17 9t14 9q19 0 31 3q21 5 26 45q4 36 4 181z" horiz-adv-x="576" unicode="è"/>
<glyph glyph-name="eacute" d="M425 860q11 -18 29 -60q8 -15 -5 -15q-1 0 -6.5 0.5t-10.5 0.5q-10 0 -17 -1q-38 -5 -88.5 -23.5t-82.5 -35.5q-16 -8 -17 -8q-6 0 -6 6q0 4 9 13q27 25 86 70.5t75 55.5q13 9 20 9t14 -12zM144 244v150q0 153 -1 180q-1 22 -9 31t-29 15q-11 3 -35 3q-15 0 -15 9 q0 8 20 8q26 0 71.5 -1t55.5 -1h176h64q4 0 37 5q2 0 7 2t7 2q6 0 6 -8q0 -2 -1.5 -7.5t-3 -18t-2.5 -29.5q0 -1 -2 -25.5t-3 -30.5q-3 -14 -10 -14t-7 11q0 19 -6 31q-6 14 -17 21t-41 10q-30 4 -138 4q-6 0 -6 -8v-210q0 -9 6 -9q134 0 154 2q33 3 42 13q13 11 14 11 q7 0 7 -9q0 -2 -7 -62q-4 -34 -4 -57q0 -19 -9 -19q-8 0 -8 7q0 2 -1 13.5t-2 17.5q-9 29 -49 33q-32 4 -138 4q-5 0 -5 -9v-68v-89v-37q1 -43 25.5 -57t93.5 -14q58 0 83 11q29 13 38 63q3 13 10 13q8 0 8 -20q0 -53 -12 -94q-4 -16 -12 -19t-35 -3q-97 0 -162 3 q-86 2 -102 2q-4 0 -21 -0.5t-29 -0.5q-42 -2 -61 -2q-17 0 -17 9t14 9q19 0 31 3q21 5 26 45q4 36 4 181z" horiz-adv-x="576" unicode="é"/>
<glyph glyph-name="ecircumflex" d="M294 869q3 0 18 -11q19 -17 119 -90q14 -10 14 -14q0 -5 -5 -10l-29 -29q-7 -7 -13 -7q-4 0 -15 11q-12 13 -45 40t-43 34q-7 6 -13 6q-5 0 -15 -5q-61 -35 -106 -74q-13 -12 -20 -12q-9 0 -9 10q0 4 9 15q8 8 64.5 61t67.5 63q13 12 21 12zM144 244v150q0 153 -1 180 q-1 22 -9 31t-29 15q-11 3 -35 3q-15 0 -15 9q0 8 20 8q26 0 71.5 -1t55.5 -1h176h64q4 0 37 5q2 0 7 2t7 2q6 0 6 -8q0 -2 -1.5 -7.5t-3 -18t-2.5 -29.5q0 -1 -2 -25.5t-3 -30.5q-3 -14 -10 -14t-7 11q0 19 -6 31q-6 14 -17 21t-41 10q-30 4 -138 4q-6 0 -6 -8v-210 q0 -9 6 -9q134 0 154 2q33 3 42 13q13 11 14 11q7 0 7 -9q0 -2 -7 -62q-4 -34 -4 -57q0 -19 -9 -19q-8 0 -8 7q0 2 -1 13.5t-2 17.5q-9 29 -49 33q-32 4 -138 4q-5 0 -5 -9v-68v-89v-37q1 -43 25.5 -57t93.5 -14q58 0 83 11q29 13 38 63q3 13 10 13q8 0 8 -20q0 -53 -12 -94 q-4 -16 -12 -19t-35 -3q-97 0 -162 3q-86 2 -102 2q-4 0 -21 -0.5t-29 -0.5q-42 -2 -61 -2q-17 0 -17 9t14 9q19 0 31 3q21 5 26 45q4 36 4 181z" horiz-adv-x="576" unicode="ê"/>
<glyph glyph-name="edieresis" d="M191 718q-22 0 -33.5 14.5t-11.5 32.5q0 17 12 31.5t34 14.5q20 0 33.5 -11.5t13.5 -31.5q0 -21 -13.5 -35.5t-34.5 -14.5zM402 718q-22 0 -33.5 14.5t-11.5 32.5q0 17 12 32t34 15q20 0 33.5 -12t13.5 -32q0 -21 -13.5 -35.5t-34.5 -14.5zM144 244v150q0 153 -1 180 q-1 22 -9 31t-29 15q-11 3 -35 3q-15 0 -15 9q0 8 20 8q26 0 71.5 -1t55.5 -1h176h64q4 0 37 5q2 0 7 2t7 2q6 0 6 -8q0 -2 -1.5 -7.5t-3 -18t-2.5 -29.5q0 -1 -2 -25.5t-3 -30.5q-3 -14 -10 -14t-7 11q0 19 -6 31q-6 14 -17 21t-41 10q-30 4 -138 4q-6 0 -6 -8v-210 q0 -9 6 -9q134 0 154 2q33 3 42 13q13 11 14 11q7 0 7 -9q0 -2 -7 -62q-4 -34 -4 -57q0 -19 -9 -19q-8 0 -8 7q0 2 -1 13.5t-2 17.5q-9 29 -49 33q-32 4 -138 4q-5 0 -5 -9v-68v-89v-37q1 -43 25.5 -57t93.5 -14q58 0 83 11q29 13 38 63q3 13 10 13q8 0 8 -20q0 -53 -12 -94 q-4 -16 -12 -19t-35 -3q-97 0 -162 3q-86 2 -102 2q-4 0 -21 -0.5t-29 -0.5q-42 -2 -61 -2q-17 0 -17 9t14 9q19 0 31 3q21 5 26 45q4 36 4 181z" horiz-adv-x="576" unicode="ë"/>
<glyph glyph-name="igrave" d="M277 725q0 -7 -11 -7q-10 0 -93 35t-110 48q-33 14 -33 25q0 6 13 9q41 13 67 25q15 7 19 7q2 0 3.5 -1.5t2.5 -4t4 -7.5t6 -9q9 -12 44.5 -46t66.5 -56l7.5 -5t7 -4.5t4.5 -4t2 -4.5zM144 244v150q0 153 -1 180q-1 21 -8 30.5t-22 14.5q-13 4 -32 4q-14 0 -14 10 q0 7 21 7q18 0 62.5 -1t55.5 -1q10 0 52 1t61 1q18 0 18 -7q0 -10 -14 -10q-11 0 -26 -3q-18 -3 -24.5 -13t-8.5 -33q-2 -27 -2 -180v-150q0 -150 4 -186q2 -19 9.5 -28t25.5 -12t45 -3q14 0 14 -9t-17 -9q-33 0 -83.5 1.5t-58.5 1.5t-52 -1.5t-63 -1.5q-17 0 -17 9t14 9 q19 0 31 3q22 5 26 41q4 35 4 185z" horiz-adv-x="407" unicode="ì"/>
<glyph glyph-name="iacute" d="M340 860q10 -18 29 -60q7 -15 -5 -15q-1 0 -6.5 0.5t-10.5 0.5q-10 0 -17 -1q-38 -5 -88.5 -23.5t-82.5 -35.5q-16 -8 -17 -8q-6 0 -6 6q0 4 9 13q27 25 86 70.5t75 55.5q13 9 20 9t14 -12zM144 244v150q0 153 -1 180q-1 21 -8 30.5t-22 14.5q-13 4 -32 4q-14 0 -14 10 q0 7 21 7q18 0 62.5 -1t55.5 -1q10 0 52 1t61 1q18 0 18 -7q0 -10 -14 -10q-11 0 -26 -3q-18 -3 -24.5 -13t-8.5 -33q-2 -27 -2 -180v-150q0 -150 4 -186q2 -19 9.5 -28t25.5 -12t45 -3q14 0 14 -9t-17 -9q-33 0 -83.5 1.5t-58.5 1.5t-52 -1.5t-63 -1.5q-17 0 -17 9t14 9 q19 0 31 3q22 5 26 41q4 35 4 185z" horiz-adv-x="407" unicode="í"/>
<glyph glyph-name="icircumflex" d="M209 869q3 0 18 -11q19 -17 119 -90q14 -10 14 -14q0 -5 -5 -10l-29 -29q-7 -7 -13 -7q-4 0 -15 11q-12 13 -45 40t-43 34q-8 6 -13 6t-15 -5q-61 -35 -106 -74q-13 -12 -20 -12q-9 0 -9 10q0 4 9 15q8 8 64.5 61t67.5 63q13 12 21 12zM144 244v150q0 153 -1 180 q-1 21 -8 30.5t-22 14.5q-13 4 -32 4q-14 0 -14 10q0 7 21 7q18 0 62.5 -1t55.5 -1q10 0 52 1t61 1q18 0 18 -7q0 -10 -14 -10q-11 0 -26 -3q-18 -3 -24.5 -13t-8.5 -33q-2 -27 -2 -180v-150q0 -150 4 -186q2 -19 9.5 -28t25.5 -12t45 -3q14 0 14 -9t-17 -9q-33 0 -83.5 1.5 t-58.5 1.5t-52 -1.5t-63 -1.5q-17 0 -17 9t14 9q19 0 31 3q22 5 26 41q4 35 4 185z" horiz-adv-x="407" unicode="î"/>
<glyph glyph-name="idieresis" d="M97 718q-22 0 -33.5 14.5t-11.5 32.5q0 17 12 31.5t34 14.5q20 0 33.5 -11.5t13.5 -31.5q0 -21 -13.5 -35.5t-34.5 -14.5zM308 718q-22 0 -33.5 14.5t-11.5 32.5q0 17 12 32t34 15q20 0 33.5 -12t13.5 -32q0 -21 -13.5 -35.5t-34.5 -14.5zM144 244v150q0 153 -1 180 q-1 21 -8 30.5t-22 14.5q-13 4 -32 4q-14 0 -14 10q0 7 21 7q18 0 62.5 -1t55.5 -1q10 0 52 1t61 1q18 0 18 -7q0 -10 -14 -10q-11 0 -26 -3q-18 -3 -24.5 -13t-8.5 -33q-2 -27 -2 -180v-150q0 -150 4 -186q2 -19 9.5 -28t25.5 -12t45 -3q14 0 14 -9t-17 -9q-33 0 -83.5 1.5 t-58.5 1.5t-52 -1.5t-63 -1.5q-17 0 -17 9t14 9q19 0 31 3q22 5 26 41q4 35 4 185z" horiz-adv-x="407" unicode="ï"/>
<glyph glyph-name="eth" d="M262 347h176q7 0 6 -10l-5 -32q-2 -8 -10 -8h-167v-39q0 -93 2 -125q3 -53 10 -64q25 -35 114 -35q69 0 115.5 13.5t84.5 46.5q70 60 70 209q0 135 -84 212q-87 81 -239 81q-45 0 -61 -6q-11 -4 -11 -17q-1 -29 -1 -166v-60zM144 298h-89q-6 0 -4 10l4 30q1 8 12 8h77v48 q0 153 -1 180q-1 22 -9 31t-29 15q-11 3 -35 3q-15 0 -15 9q0 8 20 8q26 0 71.5 -1t55.5 -1t61.5 1t81.5 1q57 0 91 -2t88 -10t97.5 -29.5t77.5 -55.5q85 -85 85 -216q0 -144 -95 -239q-37 -36 -114 -67t-168 -31q-47 0 -117 5q-16 1 -37.5 2t-35 2t-20.5 1q-4 0 -21 -0.5 t-29 -0.5q-42 -2 -61 -2q-17 0 -17 9t14 9q19 0 31 3q21 5 26 45q4 36 4 181v54z" horiz-adv-x="833" unicode="ð"/>
<glyph glyph-name="ntilde" d="M491 718q-37 0 -90 28q-40 22 -64 22q-36 0 -68 -36q-10 -10 -16 -10q-7 0 -7 7q0 8 8 19q17 27 45 52t59 25q7 0 14 -0.5t13.5 -3t11 -3.5t12 -4.5t9.5 -5t10.5 -6t9.5 -5.5q39 -22 72 -22q37 0 61 30q10 13 16 13q8 0 8 -8q0 -5 -6 -17q-12 -22 -40 -48.5t-58 -26.5z M189 460l10 -347q2 -82 30 -92q18 -6 46 -6q15 0 15 -9t-20 -9q-34 0 -72.5 1.5t-41.5 1.5q-2 0 -17 -0.5t-36.5 -1.5t-41.5 -1t-20 9t14 9q24 0 40 4q17 4 21.5 24.5t5.5 78.5l8 504q0 29 15 29q10 0 38 -28l29 -29q29 -30 62.5 -64t84.5 -84.5t95 -93.5q25 -25 70.5 -71 t80 -80.5l39.5 -39.5h4l-9 378q-1 38 -7.5 53.5t-22.5 21.5q-13 5 -46 5q-14 0 -14 9q0 8 22 8q26 0 66 -1t46 -1q1 0 30.5 1t55.5 1q20 0 20 -8q0 -9 -15 -9q-16 0 -27 -3q-18 -5 -24.5 -19.5t-7.5 -50.5l-9 -536q0 -27 -15 -27q-18 0 -36 18q-90 84 -257 245 q-42 40 -90 89.5t-79 82.5t-37 38h-3z" horiz-adv-x="841" unicode="ñ"/>
<glyph glyph-name="ograve" d="M487 725q0 -7 -11 -7q-10 0 -93 35t-110 48q-33 14 -33 25q0 6 13 9q41 13 67 25q15 7 19 7q2 0 3.5 -1.5t2.5 -4t4 -7.5t6 -9q9 -12 44.5 -46t66.5 -56l7.5 -5t7 -4.5t4.5 -4t2 -4.5zM444 32q23 0 45.5 4.5t52 21.5t51.5 44.5t37.5 79.5t15.5 121q0 138 -73 221t-182 83 q-40 0 -75 -12t-67.5 -39.5t-51.5 -81.5t-19 -129q0 -135 72 -224t194 -89zM408 -14q-92 0 -163.5 30.5t-113 80t-62.5 106.5t-21 116q0 45 12.5 90.5t41 89.5t70 77.5t105 54.5t140.5 21q166 0 263 -86t97 -232q0 -150 -101 -249t-268 -99z" horiz-adv-x="827" unicode="ò"/>
<glyph glyph-name="oacute" d="M550 860q10 -18 29 -60q7 -15 -5 -15q-1 0 -6.5 0.5t-10.5 0.5q-10 0 -17 -1q-38 -5 -88.5 -23.5t-82.5 -35.5q-16 -8 -17 -8q-6 0 -6 6q0 4 9 13q27 25 86 70.5t75 55.5q13 9 20 9t14 -12zM444 32q23 0 45.5 4.5t52 21.5t51.5 44.5t37.5 79.5t15.5 121q0 138 -73 221 t-182 83q-40 0 -75 -12t-67.5 -39.5t-51.5 -81.5t-19 -129q0 -135 72 -224t194 -89zM408 -14q-92 0 -163.5 30.5t-113 80t-62.5 106.5t-21 116q0 45 12.5 90.5t41 89.5t70 77.5t105 54.5t140.5 21q166 0 263 -86t97 -232q0 -150 -101 -249t-268 -99z" horiz-adv-x="827" unicode="ó"/>
<glyph glyph-name="ocircumflex" d="M419 869q3 0 18 -11q19 -17 119 -90q14 -10 14 -14q0 -5 -5 -10l-29 -29q-7 -7 -13 -7q-4 0 -15 11q-12 13 -45 40t-43 34q-8 6 -13 6t-15 -5q-61 -35 -106 -74q-13 -12 -20 -12q-9 0 -9 10q0 4 9 15q8 8 64.5 61t67.5 63q13 12 21 12zM444 32q23 0 45.5 4.5t52 21.5 t51.5 44.5t37.5 79.5t15.5 121q0 138 -73 221t-182 83q-40 0 -75 -12t-67.5 -39.5t-51.5 -81.5t-19 -129q0 -135 72 -224t194 -89zM408 -14q-92 0 -163.5 30.5t-113 80t-62.5 106.5t-21 116q0 45 12.5 90.5t41 89.5t70 77.5t105 54.5t140.5 21q166 0 263 -86t97 -232 q0 -150 -101 -249t-268 -99z" horiz-adv-x="827" unicode="ô"/>
<glyph glyph-name="otilde" d="M484 718q-37 0 -90 28q-40 22 -64 22q-36 0 -68 -36q-10 -10 -16 -10q-7 0 -7 7q0 8 8 19q17 27 45 52t59 25q7 0 14 -0.5t13.5 -3t11 -3.5t12 -4.5t9.5 -5t10.5 -6t9.5 -5.5q39 -22 72 -22q37 0 61 30q10 13 16 13q8 0 8 -8q0 -5 -6 -17q-12 -22 -40 -48.5t-58 -26.5z M444 32q23 0 45.5 4.5t52 21.5t51.5 44.5t37.5 79.5t15.5 121q0 138 -73 221t-182 83q-40 0 -75 -12t-67.5 -39.5t-51.5 -81.5t-19 -129q0 -135 72 -224t194 -89zM408 -14q-92 0 -163.5 30.5t-113 80t-62.5 106.5t-21 116q0 45 12.5 90.5t41 89.5t70 77.5t105 54.5t140.5 21 q166 0 263 -86t97 -232q0 -150 -101 -249t-268 -99z" horiz-adv-x="827" unicode="õ"/>
<glyph glyph-name="odieresis" d="M307 718q-22 0 -33.5 14.5t-11.5 32.5q0 17 12 31.5t34 14.5q20 0 33.5 -11.5t13.5 -31.5q0 -21 -13.5 -35.5t-34.5 -14.5zM518 718q-22 0 -33.5 14.5t-11.5 32.5q0 17 12 32t34 15q20 0 33.5 -12t13.5 -32q0 -21 -13.5 -35.5t-34.5 -14.5zM444 32q23 0 45.5 4.5t52 21.5 t51.5 44.5t37.5 79.5t15.5 121q0 138 -73 221t-182 83q-40 0 -75 -12t-67.5 -39.5t-51.5 -81.5t-19 -129q0 -135 72 -224t194 -89zM408 -14q-92 0 -163.5 30.5t-113 80t-62.5 106.5t-21 116q0 45 12.5 90.5t41 89.5t70 77.5t105 54.5t140.5 21q166 0 263 -86t97 -232 q0 -150 -101 -249t-268 -99z" horiz-adv-x="827" unicode="ö"/>
<glyph glyph-name="divide" d="M326 87q0 -24 -15 -40t-39 -16h-1q-22 0 -37 16t-15 40q0 25 15 40.5t39 15.5t38.5 -15.5t14.5 -40.5zM509 223h-469v61h469v-61zM326 420q0 -24 -15 -40t-39 -16h-1q-22 0 -37 16t-15 40q0 25 15 40.5t39 15.5t38.5 -15.5t14.5 -40.5z" horiz-adv-x="549" unicode="÷"/>
<glyph glyph-name="oslash" d="M222 160l352 358q-64 88 -185 88q-40 0 -74 -12t-66.5 -39t-51 -81t-18.5 -130q0 -107 43 -184zM600 476l-351 -356q68 -89 194 -89q22 0 44.5 4.5t51.5 21.5t50.5 45t36.5 79.5t15 120.5q0 98 -41 174zM181 51l-74 -75q-5 -4 -9 0l-27 25q-6 5 -2 9l75 72 q-96 95 -96 237q0 45 12 90.5t40.5 89.5t69 77.5t103.5 54.5t139 21q141 0 231 -62l66 70q5 5 12 -2l25 -26q4 -4 0 -9l-65 -65q90 -82 90 -224q0 -150 -99.5 -249t-264.5 -99q-149 0 -226 65z" horiz-adv-x="822" unicode="ø"/>
<glyph glyph-name="ugrave" d="M454 725q0 -7 -11 -7q-10 0 -93 35t-110 48q-33 14 -33 25q0 6 13 9q41 13 67 25q15 7 19 7q2 0 3.5 -1.5t2.5 -4t4 -7.5t6 -9q9 -12 44.5 -46t66.5 -56l7.5 -5t7 -4.5t4.5 -4t2 -4.5zM106 269v125v128q0 38 -1 52q-1 22 -9 31t-29 15q-11 3 -34 3q-15 0 -15 9q0 8 19 8 q26 0 74 -1t58 -1t53 1t60 1q19 0 19 -8q0 -9 -14 -9q-9 0 -26 -3t-23.5 -13t-8.5 -33q-2 -27 -2 -180v-119q0 -88 16 -133.5t51 -72.5q43 -34 111 -34q72 0 118 45q33 31 42 78.5t9 128.5v107q0 126 -2 180q-2 22 -9 31t-28 15q-10 3 -32 3q-15 0 -15 9q0 8 18 8h28 t28 -0.5t24 -1t18 -0.5h7q2 0 42.5 1t60.5 1q18 0 18 -8q0 -9 -15 -9q-10 0 -26 -3q-17 -3 -23.5 -13t-8.5 -33q-2 -54 -2 -180v-91q0 -87 -17 -151t-67 -105q-73 -61 -186 -61q-135 0 -201 58q-80 69 -80 225z" horiz-adv-x="760" unicode="ù"/>
<glyph glyph-name="uacute" d="M517 860q11 -18 29 -60q8 -15 -5 -15q-1 0 -6.5 0.5t-10.5 0.5q-10 0 -17 -1q-38 -5 -88.5 -23.5t-82.5 -35.5q-16 -8 -17 -8q-6 0 -6 6q0 4 9 13q27 25 86 70.5t75 55.5q13 9 20 9t14 -12zM106 269v125v128q0 38 -1 52q-1 22 -9 31t-29 15q-11 3 -34 3q-15 0 -15 9 q0 8 19 8q26 0 74 -1t58 -1t53 1t60 1q19 0 19 -8q0 -9 -14 -9q-9 0 -26 -3t-23.5 -13t-8.5 -33q-2 -27 -2 -180v-119q0 -88 16 -133.5t51 -72.5q43 -34 111 -34q72 0 118 45q33 31 42 78.5t9 128.5v107q0 126 -2 180q-2 22 -9 31t-28 15q-10 3 -32 3q-15 0 -15 9q0 8 18 8 h28t28 -0.5t24 -1t18 -0.5h7q2 0 42.5 1t60.5 1q18 0 18 -8q0 -9 -15 -9q-10 0 -26 -3q-17 -3 -23.5 -13t-8.5 -33q-2 -54 -2 -180v-91q0 -87 -17 -151t-67 -105q-73 -61 -186 -61q-135 0 -201 58q-80 69 -80 225z" horiz-adv-x="760" unicode="ú"/>
<glyph glyph-name="ucircumflex" d="M386 869q3 0 18 -11q19 -17 119 -90q14 -10 14 -14q0 -5 -5 -10l-29 -29q-7 -7 -13 -7q-4 0 -15 11q-12 13 -45 40t-43 34q-8 6 -13 6t-15 -5q-61 -35 -106 -74q-13 -12 -20 -12q-9 0 -9 10q0 4 9 15q8 8 64.5 61t67.5 63q13 12 21 12zM106 269v125v128q0 38 -1 52 q-1 22 -9 31t-29 15q-11 3 -34 3q-15 0 -15 9q0 8 19 8q26 0 74 -1t58 -1t53 1t60 1q19 0 19 -8q0 -9 -14 -9q-9 0 -26 -3t-23.5 -13t-8.5 -33q-2 -27 -2 -180v-119q0 -88 16 -133.5t51 -72.5q43 -34 111 -34q72 0 118 45q33 31 42 78.5t9 128.5v107q0 126 -2 180 q-2 22 -9 31t-28 15q-10 3 -32 3q-15 0 -15 9q0 8 18 8h28t28 -0.5t24 -1t18 -0.5h7q2 0 42.5 1t60.5 1q18 0 18 -8q0 -9 -15 -9q-10 0 -26 -3q-17 -3 -23.5 -13t-8.5 -33q-2 -54 -2 -180v-91q0 -87 -17 -151t-67 -105q-73 -61 -186 -61q-135 0 -201 58q-80 69 -80 225z" horiz-adv-x="760" unicode="û"/>
<glyph glyph-name="udieresis" d="M283 718q-22 0 -33.5 14.5t-11.5 32.5q0 17 12 31.5t34 14.5q20 0 33.5 -11.5t13.5 -31.5q0 -21 -13.5 -35.5t-34.5 -14.5zM494 718q-22 0 -33.5 14.5t-11.5 32.5q0 17 12 32t34 15q20 0 33.5 -12t13.5 -32q0 -21 -13.5 -35.5t-34.5 -14.5zM106 269v125v128q0 38 -1 52 q-1 22 -9 31t-29 15q-11 3 -34 3q-15 0 -15 9q0 8 19 8q26 0 74 -1t58 -1t53 1t60 1q19 0 19 -8q0 -9 -14 -9q-9 0 -26 -3t-23.5 -13t-8.5 -33q-2 -27 -2 -180v-119q0 -88 16 -133.5t51 -72.5q43 -34 111 -34q72 0 118 45q33 31 42 78.5t9 128.5v107q0 126 -2 180 q-2 22 -9 31t-28 15q-10 3 -32 3q-15 0 -15 9q0 8 18 8h28t28 -0.5t24 -1t18 -0.5h7q2 0 42.5 1t60.5 1q18 0 18 -8q0 -9 -15 -9q-10 0 -26 -3q-17 -3 -23.5 -13t-8.5 -33q-2 -54 -2 -180v-91q0 -87 -17 -151t-67 -105q-73 -61 -186 -61q-135 0 -201 58q-80 69 -80 225z" horiz-adv-x="760" unicode="ü"/>
<glyph glyph-name="yacute" d="M432 860q10 -18 29 -60q7 -15 -5 -15q-1 0 -6.5 0.5t-10.5 0.5q-10 0 -17 -1q-38 -5 -88.5 -23.5t-82.5 -35.5q-16 -8 -17 -8q-6 0 -6 6q0 4 9 13q27 25 86 70.5t75 55.5q13 9 20 9t14 -12zM239 148v70q0 47 -20 89q-4 10 -68.5 110.5t-88.5 134.5q-34 48 -57 60 q-20 11 -37 11q-13 0 -13 9q0 8 17 8q6 0 50 -1t60 -1q7 0 42 1t58 1q13 0 13 -8q0 -6 -13 -9q-2 -1 -3.5 -1.5t-3.5 -0.5q-12 -3 -12 -13t11 -29q8 -12 73 -124.5t73 -124.5q2 4 62.5 108.5t68.5 119.5q13 27 13 45q0 15 -19 19q-16 4 -16 10q0 8 15 8t44 -1t42 -1 q10 0 48 1t46 1q16 0 16 -7q0 -10 -17 -10q-16 0 -38 -10q-21 -10 -46 -40q-21 -25 -90 -134.5t-81 -137.5q-11 -26 -11 -65v-20v-68q0 -49 2 -85q3 -40 36 -45q19 -3 44 -3q15 0 15 -9t-19 -9q-31 0 -80.5 1.5t-57.5 1.5q-10 0 -53 -1.5t-61 -1.5q-19 0 -19 9t14 9 q19 0 31 3q24 5 27 45q3 36 3 85z" horiz-adv-x="590" unicode="ý"/>
<glyph glyph-name="thorn" d="M144 244v150q0 153 -1 180q-2 22 -9.5 31.5t-28.5 14.5q-11 3 -35 3q-15 0 -15 9q0 8 20 8q26 0 71.5 -1t54.5 -1q8 0 56.5 1t74.5 1q17 0 17 -8q0 -9 -14 -9q-9 0 -33 -4q-38 -5 -40 -43q-1 -32 -1 -76q39 3 77 3q121 0 176 -48q17 -14 30 -42t13 -59q0 -90 -61.5 -146 t-159.5 -56q-22 0 -26 1q-11 0 -11 8q0 11 25 11q45 0 82 39t37 96q0 81 -49 128q-31 29 -89 29q-25 0 -37 -6q-7 -1 -7 -16v-198q0 -145 4 -182q3 -21 9.5 -31t24.5 -13q19 -3 43 -3q12 0 12 -9t-18 -9q-30 0 -80.5 1.5t-58.5 1.5t-50 -1.5t-61 -1.5q-17 0 -17 9t14 9 q19 0 31 3q21 5 26 45q4 36 4 181z" horiz-adv-x="598" unicode="þ"/>
<glyph glyph-name="ydieresis" d="M189 718q-22 0 -33.5 14.5t-11.5 32.5q0 17 12 31.5t34 14.5q20 0 33.5 -11.5t13.5 -31.5q0 -21 -13.5 -35.5t-34.5 -14.5zM400 718q-22 0 -33.5 14.5t-11.5 32.5q0 17 12 32t34 15q20 0 33.5 -12t13.5 -32q0 -21 -13.5 -35.5t-34.5 -14.5zM239 148v70q0 47 -20 89 q-4 10 -68.5 110.5t-88.5 134.5q-34 48 -57 60q-20 11 -37 11q-13 0 -13 9q0 8 17 8q6 0 50 -1t60 -1q7 0 42 1t58 1q13 0 13 -8q0 -6 -13 -9q-2 -1 -3.5 -1.5t-3.5 -0.5q-12 -3 -12 -13t11 -29q8 -12 73 -124.5t73 -124.5q2 4 62.5 108.5t68.5 119.5q13 27 13 45 q0 15 -19 19q-16 4 -16 10q0 8 15 8t44 -1t42 -1q10 0 48 1t46 1q16 0 16 -7q0 -10 -17 -10q-16 0 -38 -10q-21 -10 -46 -40q-21 -25 -90 -134.5t-81 -137.5q-11 -26 -11 -65v-20v-68q0 -49 2 -85q3 -40 36 -45q19 -3 44 -3q15 0 15 -9t-19 -9q-31 0 -80.5 1.5t-57.5 1.5 q-10 0 -53 -1.5t-61 -1.5q-19 0 -19 9t14 9q19 0 31 3q24 5 27 45q3 36 3 85z" horiz-adv-x="590" unicode="ÿ"/>
<glyph glyph-name="Amacron" d="M465 857h-240q-5 0 -7 1.5t-1 5.5l8 36q3 9 11 9h240q11 0 8 -10l-8 -36q-2 -6 -11 -6zM224 308h184q7 0 5 6l-90 247q-2 9 -5 9q-4 0 -6 -9l-92 -246q-2 -7 4 -7zM427 258h-223q-6 0 -9 -8l-54 -143q-15 -37 -15 -61q0 -31 40 -31h15q15 0 15 -8q0 -10 -17 -10 q-16 0 -53.5 1.5t-52.5 1.5l-43 -2q-44 -1 -75 -1q-19 0 -19 10q0 8 12 8q15 0 31 2q32 4 50 25.5t35 64.5l251 628q10 23 15.5 31.5t12.5 8.5q11 0 25 -32q10 -23 111.5 -277.5t136.5 -337.5q41 -98 88 -109q20 -4 42 -4q13 0 13 -8q0 -10 -46 -10q-109 0 -189 2 q-30 2 -30 8q0 8 14 9q6 2 9 8.5t0 14.5l-80 212q-3 7 -10 7z" horiz-adv-x="700" unicode="Ā"/>
<glyph glyph-name="amacron" d="M431 745h-240q-5 0 -7 1.5t-1 5.5l8 36q3 9 11 9h240q11 0 8 -10l-8 -36q-2 -6 -11 -6zM200 258h170q6 0 4 5l-83 216q-3 8 -4 8q-2 0 -5 -8l-85 -215q-3 -6 3 -6zM389 211h-207q-6 0 -8 -6l-47 -114q-13 -30 -13 -52q0 -24 35 -24h13q13 0 13 -9t-14 -9q-15 0 -49.5 1.5 t-48.5 1.5q-3 0 -19 -0.5t-39.5 -1.5t-43.5 -1q-16 0 -16 9t10 9q4 0 13 0.5t13 0.5q28 4 43 21.5t30 53.5l230 535q14 34 26 34q9 0 13.5 -5.5t12.5 -21.5q10 -23 102.5 -240.5t121.5 -283.5q37 -84 75 -91q19 -3 33 -3q12 0 12 -9t-38 -9q-95 0 -169 2q-26 2 -26 7 q0 8 11 9q5 1 8 6.5t0 12.5l-68 171q-2 6 -9 6z" unicode="ā"/>
<glyph glyph-name="Abreve" d="M197 921q0 5 8 10l33 26q8 7 13 7q3 0 6 -3.5t7.5 -9.5l7.5 -10q38 -44 92 -44q48 0 88 28q13 10 23 20t14 13.5t7 3.5q8 0 8 -9q0 -11 -22.5 -36.5t-40.5 -37.5q-51 -34 -108 -34q-55 0 -99 36q-37 30 -37 40zM224 308h184q7 0 5 6l-90 247q-2 9 -5 9q-4 0 -6 -9 l-92 -246q-2 -7 4 -7zM427 258h-223q-6 0 -9 -8l-54 -143q-15 -37 -15 -61q0 -31 40 -31h15q15 0 15 -8q0 -10 -17 -10q-16 0 -53.5 1.5t-52.5 1.5l-43 -2q-44 -1 -75 -1q-19 0 -19 10q0 8 12 8q15 0 31 2q32 4 50 25.5t35 64.5l251 628q10 23 15.5 31.5t12.5 8.5 q11 0 25 -32q10 -23 111.5 -277.5t136.5 -337.5q41 -98 88 -109q20 -4 42 -4q13 0 13 -8q0 -10 -46 -10q-109 0 -189 2q-30 2 -30 8q0 8 14 9q6 2 9 8.5t0 14.5l-80 212q-3 7 -10 7z" horiz-adv-x="700" unicode="Ă"/>
<glyph glyph-name="abreve" d="M163 794q0 5 8 10l33 26q8 7 13 7q3 0 6 -3.5t7.5 -9.5l7.5 -10q38 -44 92 -44q48 0 88 28q13 10 23 20t14 13.5t7 3.5q8 0 8 -9q0 -11 -22.5 -36.5t-40.5 -37.5q-51 -34 -108 -34q-55 0 -99 36q-37 30 -37 40zM200 258h170q6 0 4 5l-83 216q-3 8 -4 8q-2 0 -5 -8 l-85 -215q-3 -6 3 -6zM389 211h-207q-6 0 -8 -6l-47 -114q-13 -30 -13 -52q0 -24 35 -24h13q13 0 13 -9t-14 -9q-15 0 -49.5 1.5t-48.5 1.5q-3 0 -19 -0.5t-39.5 -1.5t-43.5 -1q-16 0 -16 9t10 9q4 0 13 0.5t13 0.5q28 4 43 21.5t30 53.5l230 535q14 34 26 34q9 0 13.5 -5.5 t12.5 -21.5q10 -23 102.5 -240.5t121.5 -283.5q37 -84 75 -91q19 -3 33 -3q12 0 12 -9t-38 -9q-95 0 -169 2q-26 2 -26 7q0 8 11 9q5 1 8 6.5t0 12.5l-68 171q-2 6 -9 6z" unicode="ă"/>
<glyph glyph-name="Aogonek" d="M554 -170q22 0 43 16.5t23 16.5q9 0 9 -8q0 -6 -8 -16q-60 -66 -124 -66q-46 0 -68.5 18t-22.5 58q0 39 39 84.5t67 61.5q12 7 12 22q0 1 -7 22l-80 212q-3 7 -10 7h-223q-6 0 -9 -8l-54 -143q-15 -37 -15 -61q0 -31 40 -31h15q15 0 15 -8q0 -10 -17 -10q-16 0 -53.5 1.5 t-52.5 1.5l-43 -2q-44 -1 -75 -1q-19 0 -19 10q0 8 12 8q15 0 31 2q32 4 50 25.5t35 64.5l251 628q10 23 15.5 31.5t12.5 8.5q11 0 25 -32q10 -23 111.5 -277.5t136.5 -337.5q41 -98 88 -109q20 -4 42 -4q13 0 13 -8q0 -10 -46 -10q-7 0 -37.5 1.5t-49.5 1.5q-48 0 -67 -9 q-31 -15 -47 -47t-16 -65q0 -49 58 -49zM224 308h184q7 0 5 6l-90 247q-2 9 -5 9q-4 0 -6 -9l-92 -246q-2 -7 4 -7z" horiz-adv-x="700" unicode="Ą"/>
<glyph glyph-name="aogonek" d="M488 -170q22 0 43 16.5t23 16.5q9 0 9 -8q0 -6 -8 -16q-60 -66 -124 -66q-46 0 -68.5 18t-22.5 58q0 28 20.5 59t44.5 52t44.5 37.5t20.5 19.5q0 7 -4 17l-68 171q-2 6 -9 6h-207q-6 0 -8 -6l-47 -114q-13 -30 -13 -52q0 -24 35 -24h13q13 0 13 -9t-14 -9 q-15 0 -49.5 1.5t-48.5 1.5q-3 0 -19 -0.5t-39.5 -1.5t-43.5 -1q-16 0 -16 9t10 9q4 0 13 0.5t13 0.5q28 4 43 21.5t30 53.5l230 535q14 34 26 34q9 0 13.5 -5.5t12.5 -21.5q10 -23 102.5 -240.5t121.5 -283.5q37 -84 75 -91q19 -3 33 -3q12 0 12 -9t-38 -9q-5 0 -47 2 q-11 0 -32.5 0.5t-29.5 0.5q-34 0 -68.5 -32t-34.5 -89q0 -49 58 -49zM200 258h170q6 0 4 5l-83 216q-3 8 -4 8q-2 0 -5 -8l-85 -215q-3 -6 3 -6z" unicode="ą"/>
<glyph glyph-name="Cacute" d="M591 972q11 -18 29 -60q8 -15 -5 -15q-1 0 -6.5 0.5t-10.5 0.5q-10 0 -17 -1q-38 -5 -88.5 -23.5t-82.5 -35.5q-16 -8 -17 -8q-6 0 -6 6q0 4 9 13q27 25 86 70.5t75 55.5q13 9 20 9t14 -12zM522 -17q-217 0 -343 109q-124 109 -124 295q0 66 26.5 140.5t90.5 133.5 q116 106 316 106q68 0 145 -10q18 -2 51 -8.5t49 -8.5q15 -1 15 -12q0 -3 -1 -9.5t-2 -18.5t-2 -27q-1 -16 -1.5 -57t-1.5 -51q-2 -23 -12 -23t-10 22q-2 53 -39 92q-26 27 -81 44.5t-122 17.5q-120 0 -188 -62q-92 -84 -92 -259q0 -85 30 -155.5t77.5 -112.5t101.5 -65 t106 -23q71 0 112.5 11.5t70.5 44.5q26 29 34 66q2 12 4.5 16t8.5 4q9 0 9 -15q0 -11 -7.5 -60.5t-14.5 -72.5q-6 -21 -26 -29q-58 -23 -180 -23z" horiz-adv-x="800" unicode="Ć"/>
<glyph glyph-name="cacute" d="M539 860q11 -18 29 -60q8 -15 -5 -15q-1 0 -6.5 0.5t-10.5 0.5q-10 0 -17 -1q-38 -5 -88.5 -23.5t-82.5 -35.5q-16 -8 -17 -8q-6 0 -6 6q0 4 9 13q27 25 86 70.5t75 55.5q13 9 20 9t14 -12zM460 -14q-192 0 -302 92t-110 251q0 56 23.5 119.5t79.5 113.5q103 90 279 90 q56 0 128 -9q11 -2 42 -7t46 -7q13 -1 13 -10q0 -3 -0.5 -8t-1.5 -15.5t-2 -23.5q-1 -16 -2 -51t-1 -41q-2 -21 -12 -21q-9 0 -9 18q-2 47 -34 79q-52 50 -170 50q-110 0 -166 -48q-81 -70 -81 -221q0 -72 26 -131t67 -94.5t88 -54t93 -18.5q63 0 97 8.5t59 36.5t30 57 q3 17 11 17q10 0 10 -15q0 -10 -6.5 -52t-12.5 -61q-5 -18 -23 -25q-47 -19 -159 -19z" horiz-adv-x="705" unicode="ć"/>
<glyph glyph-name="Ccaron" d="M308 945l29 29q7 7 11 7q6 0 17 -11q13 -13 46 -40t42 -34q8 -6 13 -6q8 0 15 4q53 32 104 74q16 13 22 13q9 0 9 -10q0 -6 -9 -15q-8 -8 -64.5 -61t-67.5 -63q-13 -12 -21 -12q-3 0 -18 11q-19 17 -119 90q-14 10 -14 14q0 5 5 10zM522 -17q-217 0 -343 109 q-124 109 -124 295q0 66 26.5 140.5t90.5 133.5q116 106 316 106q68 0 145 -10q18 -2 51 -8.5t49 -8.5q15 -1 15 -12q0 -3 -1 -9.5t-2 -18.5t-2 -27q-1 -16 -1.5 -57t-1.5 -51q-2 -23 -12 -23t-10 22q-2 53 -39 92q-26 27 -81 44.5t-122 17.5q-120 0 -188 -62 q-92 -84 -92 -259q0 -85 30 -155.5t77.5 -112.5t101.5 -65t106 -23q71 0 112.5 11.5t70.5 44.5q26 29 34 66q2 12 4.5 16t8.5 4q9 0 9 -15q0 -11 -7.5 -60.5t-14.5 -72.5q-6 -21 -26 -29q-58 -23 -180 -23z" horiz-adv-x="800" unicode="Č"/>
<glyph glyph-name="ccaron" d="M261 833l29 29q7 7 11 7q6 0 17 -11q13 -13 46 -40t42 -34q7 -6 13 -6q8 0 15 4q53 32 104 74q16 13 22 13q9 0 9 -10q0 -6 -9 -15q-8 -8 -64.5 -61t-67.5 -63q-13 -12 -21 -12q-3 0 -18 11q-19 17 -119 90q-14 10 -14 14q0 5 5 10zM460 -14q-192 0 -302 92t-110 251 q0 56 23.5 119.5t79.5 113.5q103 90 279 90q56 0 128 -9q11 -2 42 -7t46 -7q13 -1 13 -10q0 -3 -0.5 -8t-1.5 -15.5t-2 -23.5q-1 -16 -2 -51t-1 -41q-2 -21 -12 -21q-9 0 -9 18q-2 47 -34 79q-52 50 -170 50q-110 0 -166 -48q-81 -70 -81 -221q0 -72 26 -131t67 -94.5 t88 -54t93 -18.5q63 0 97 8.5t59 36.5t30 57q3 17 11 17q10 0 10 -15q0 -10 -6.5 -52t-12.5 -61q-5 -18 -23 -25q-47 -19 -159 -19z" horiz-adv-x="705" unicode="č"/>
<glyph glyph-name="Dcaron" d="M296 945l29 29q7 7 11 7q6 0 17 -11q13 -13 46 -40t42 -34q7 -6 13 -6q8 0 15 4q53 32 104 74q16 13 22 13q9 0 9 -10q0 -6 -9 -15q-8 -8 -64.5 -61t-67.5 -63q-13 -12 -21 -12q-3 0 -18 11q-19 17 -119 90q-14 10 -14 14q0 5 5 10zM289 479v-126q0 -164 2 -202 q3 -64 11 -76q27 -40 131 -40q147 0 230 72q84 72 84 249q0 158 -96 250q-105 100 -284 100q-51 0 -65 -7q-12 -5 -12 -20q-1 -34 -1 -200zM164 287v176q0 180 -2 212q-2 27 -10.5 39.5t-32.5 17.5q-12 3 -39 3q-17 0 -17 9t22 9q30 0 81.5 -1.5t62.5 -1.5q12 0 66 1.5 t88 1.5q65 0 103.5 -2t99.5 -11.5t110 -35t88 -65.5q97 -101 97 -254q0 -168 -109 -279q-46 -47 -128.5 -82.5t-206.5 -35.5q-39 0 -115 6t-98 6q-33 0 -57 -1q-12 0 -35.5 -1t-33.5 -1q-20 0 -20 10q0 8 16 8q18 0 36 4q22 4 29 55q5 42 5 213z" horiz-adv-x="936" unicode="Ď"/>
<glyph glyph-name="dcaron" d="M244 833l29 29q7 7 11 7q6 0 17 -11q13 -13 46 -40t42 -34q8 -6 13 -6q8 0 15 4q53 32 104 74q16 13 22 13q9 0 9 -10q0 -6 -9 -15q-8 -8 -64.5 -61t-67.5 -63q-13 -12 -21 -12q-3 0 -18 11q-19 17 -119 90q-14 10 -14 14q0 5 5 10zM262 407v-107q0 -138 2 -172 q2 -50 10 -60q23 -34 115 -34q122 0 192 58q75 62 75 211q0 74 -24 128t-58 84q-91 81 -246 81q-44 0 -54 -6q-11 -4 -11 -17q-1 -29 -1 -166zM144 244v150q0 153 -1 180q-1 22 -9 31t-29 15q-11 3 -35 3q-15 0 -15 9q0 8 20 8q26 0 71.5 -1t55.5 -1t61.5 1t81.5 1 q57 0 91 -2t88 -10t97.5 -29.5t77.5 -55.5q83 -83 83 -216q0 -143 -96 -237q-39 -39 -113 -69.5t-182 -30.5q-17 0 -105 5q-58 5 -89 5q-4 0 -21 -0.5t-29 -0.5q-42 -2 -61 -2q-17 0 -17 9t14 9q19 0 31 3q21 5 26 45q4 36 4 181z" horiz-adv-x="831" unicode="ď"/>
<glyph glyph-name="Dcroat" d="M289 406h200q9 0 7 -12l-6 -33q-2 -9 -12 -9h-189v-46q0 -116 2 -154q3 -64 11 -76q28 -41 131 -41q151 0 234 75q80 72 80 246q0 158 -96 250q-105 100 -284 100q-51 0 -65 -7q-12 -5 -12 -20q-1 -34 -1 -200v-73zM164 353h-101q-7 0 -5 12l5 30q1 10 13 10h88v58 q0 180 -2 212q-2 27 -10.5 39.5t-32.5 17.5q-12 3 -39 3q-17 0 -17 9t22 9q30 0 81.5 -1.5t62.5 -1.5q12 0 66 1.5t88 1.5q65 0 103.5 -2t99.5 -11.5t110 -35t88 -65.5q97 -101 97 -254q0 -169 -108 -281q-42 -43 -129 -79.5t-191 -36.5q-38 0 -128 6q-88 6 -101 6 q-33 0 -57 -1q-12 0 -35.5 -1t-33.5 -1q-20 0 -20 10q0 8 16 8q18 0 36 4q22 4 29 55q5 42 5 213v66z" horiz-adv-x="936" unicode="Đ"/>
<glyph glyph-name="dcroat" d="M262 347h176q7 0 6 -10l-5 -32q-2 -8 -10 -8h-167v-39q0 -93 2 -125q3 -53 10 -64q25 -35 114 -35q69 0 115.5 13.5t84.5 46.5q70 60 70 209q0 135 -84 212q-87 81 -239 81q-45 0 -61 -6q-11 -4 -11 -17q-1 -29 -1 -166v-60zM144 298h-89q-6 0 -4 10l4 30q1 8 12 8h77v48 q0 153 -1 180q-1 22 -9 31t-29 15q-11 3 -35 3q-15 0 -15 9q0 8 20 8q26 0 71.5 -1t55.5 -1t61.5 1t81.5 1q57 0 91 -2t88 -10t97.5 -29.5t77.5 -55.5q85 -85 85 -216q0 -144 -95 -239q-37 -36 -114 -67t-168 -31q-47 0 -117 5q-16 1 -37.5 2t-35 2t-20.5 1q-4 0 -21 -0.5 t-29 -0.5q-42 -2 -61 -2q-17 0 -17 9t14 9q19 0 31 3q21 5 26 45q4 36 4 181v54z" horiz-adv-x="833" unicode="đ"/>
<glyph glyph-name="Emacron" d="M450 857h-240q-5 0 -7 1.5t-1 5.5l8 36q3 9 11 9h240q11 0 8 -10l-8 -36q-1 -6 -11 -6zM164 287v176q0 180 -2 212q-2 27 -10.5 39.5t-32.5 17.5q-12 3 -39 3q-17 0 -17 9t22 9q14 0 41.5 -0.5t39.5 -0.5q52 -2 63 -2q231 0 250 1q33 3 43 6q1 0 7 2t9 2q6 0 6 -9 q0 -2 -1.5 -8.5t-3.5 -21.5t-3 -35q0 -2 -2 -30.5t-3 -35.5q-2 -11 -10 -11q-9 0 -9 14q0 22 -6 36q-6 15 -19 23.5t-48 12.5q-34 4 -142 4q-7 0 -7 -10v-253q0 -11 7 -11q137 0 160 2q37 3 48 15q11 13 16 13q7 0 7 -8q0 -2 -1 -9.5t-3 -24.5t-4 -39q0 -8 -1 -24t-2 -28 t-1 -15q0 -19 -9 -19t-9 9q-3 33 -4 36q-8 34 -56 39q-28 3 -142 3q-6 0 -6 -10v-79v-109v-46q2 -53 23.5 -68.5t96.5 -15.5q68 0 94 12q35 16 45 74q3 15 11 15t8 -18q0 -59 -13 -111q-5 -18 -14 -22t-40 -4q-44 0 -173 3q-64 3 -104 3q-33 0 -57 -1q-12 0 -35.5 -1 t-33.5 -1q-20 0 -20 10q0 8 16 8q18 0 36 4q22 4 29 55q5 42 5 213z" unicode="Ē"/>
<glyph glyph-name="emacron" d="M422 745h-240q-5 0 -7 1.5t-1 5.5l8 36q3 9 11 9h240q11 0 8 -10l-8 -36q-1 -6 -11 -6zM144 244v150q0 153 -1 180q-1 22 -9 31t-29 15q-11 3 -35 3q-15 0 -15 9q0 8 20 8q26 0 71.5 -1t55.5 -1h176h64q4 0 37 5q2 0 7 2t7 2q6 0 6 -8q0 -2 -1.5 -7.5t-3 -18t-2.5 -29.5 q0 -1 -2 -25.5t-3 -30.5q-3 -14 -10 -14t-7 11q0 19 -6 31q-6 14 -17 21t-41 10q-30 4 -138 4q-6 0 -6 -8v-210q0 -9 6 -9q134 0 154 2q33 3 42 13q13 11 14 11q7 0 7 -9q0 -2 -7 -62q-4 -34 -4 -57q0 -19 -9 -19q-8 0 -8 7q0 2 -1 13.5t-2 17.5q-9 29 -49 33q-32 4 -138 4 q-5 0 -5 -9v-68v-89v-37q1 -43 25.5 -57t93.5 -14q58 0 83 11q29 13 38 63q3 13 10 13q8 0 8 -20q0 -53 -12 -94q-4 -16 -12 -19t-35 -3q-97 0 -162 3q-86 2 -102 2q-4 0 -21 -0.5t-29 -0.5q-42 -2 -61 -2q-17 0 -17 9t14 9q19 0 31 3q21 5 26 45q4 36 4 181z" horiz-adv-x="576" unicode="ē"/>
<glyph glyph-name="Edotaccent" d="M340 830q-28 0 -42 17t-14 39t14.5 40t41.5 18q25 0 41 -15t16 -39q0 -25 -16 -42.5t-41 -17.5zM164 287v176q0 180 -2 212q-2 27 -10.5 39.5t-32.5 17.5q-12 3 -39 3q-17 0 -17 9t22 9q14 0 41.5 -0.5t39.5 -0.5q52 -2 63 -2q231 0 250 1q33 3 43 6q1 0 7 2t9 2 q6 0 6 -9q0 -2 -1.5 -8.5t-3.5 -21.5t-3 -35q0 -2 -2 -30.5t-3 -35.5q-2 -11 -10 -11q-9 0 -9 14q0 22 -6 36q-6 15 -19 23.5t-48 12.5q-34 4 -142 4q-7 0 -7 -10v-253q0 -11 7 -11q137 0 160 2q37 3 48 15q11 13 16 13q7 0 7 -8q0 -2 -1 -9.5t-3 -24.5t-4 -39q0 -8 -1 -24 t-2 -28t-1 -15q0 -19 -9 -19t-9 9q-3 33 -4 36q-8 34 -56 39q-28 3 -142 3q-6 0 -6 -10v-79v-109v-46q2 -53 23.5 -68.5t96.5 -15.5q68 0 94 12q35 16 45 74q3 15 11 15t8 -18q0 -59 -13 -111q-5 -18 -14 -22t-40 -4q-44 0 -173 3q-64 3 -104 3q-33 0 -57 -1q-12 0 -35.5 -1 t-33.5 -1q-20 0 -20 10q0 8 16 8q18 0 36 4q22 4 29 55q5 42 5 213z" unicode="Ė"/>
<glyph glyph-name="edotaccent" d="M317 718q-28 0 -42 17t-14 39t14.5 40t41.5 18q25 0 41 -15t16 -39q0 -25 -16 -42.5t-41 -17.5zM144 244v150q0 153 -1 180q-1 22 -9 31t-29 15q-11 3 -35 3q-15 0 -15 9q0 8 20 8q26 0 71.5 -1t55.5 -1h176h64q4 0 37 5q2 0 7 2t7 2q6 0 6 -8q0 -2 -1.5 -7.5t-3 -18 t-2.5 -29.5q0 -1 -2 -25.5t-3 -30.5q-3 -14 -10 -14t-7 11q0 19 -6 31q-6 14 -17 21t-41 10q-30 4 -138 4q-6 0 -6 -8v-210q0 -9 6 -9q134 0 154 2q33 3 42 13q13 11 14 11q7 0 7 -9q0 -2 -7 -62q-4 -34 -4 -57q0 -19 -9 -19q-8 0 -8 7q0 2 -1 13.5t-2 17.5q-9 29 -49 33 q-32 4 -138 4q-5 0 -5 -9v-68v-89v-37q1 -43 25.5 -57t93.5 -14q58 0 83 11q29 13 38 63q3 13 10 13q8 0 8 -20q0 -53 -12 -94q-4 -16 -12 -19t-35 -3q-97 0 -162 3q-86 2 -102 2q-4 0 -21 -0.5t-29 -0.5q-42 -2 -61 -2q-17 0 -17 9t14 9q19 0 31 3q21 5 26 45q4 36 4 181z " horiz-adv-x="576" unicode="ė"/>
<glyph glyph-name="Eogonek" d="M480 -170q22 0 43 16.5t23 16.5q9 0 9 -8q0 -6 -8 -16q-60 -66 -124 -66q-46 0 -68.5 18t-22.5 58q0 35 36 79.5t68 65.5q-57 1 -108 3q-17 0 -52 1.5t-52 1.5q-33 0 -57 -1q-12 0 -35.5 -1t-33.5 -1q-20 0 -20 10q0 8 16 8q18 0 36 4q22 4 29 55q5 42 5 213v176 q0 180 -2 212q-2 27 -10.5 39.5t-32.5 17.5q-12 3 -39 3q-17 0 -17 9t22 9q14 0 41.5 -0.5t39.5 -0.5q52 -2 63 -2q231 0 250 1q33 3 43 6q1 0 7 2t9 2q6 0 6 -9q0 -2 -1.5 -8.5t-3.5 -21.5t-3 -35q0 -2 -2 -30.5t-3 -35.5q-2 -11 -10 -11q-9 0 -9 14q0 22 -6 36 q-6 15 -19 23.5t-48 12.5q-34 4 -142 4q-7 0 -7 -10v-253q0 -11 7 -11q137 0 160 2q37 3 48 15q11 13 16 13q7 0 7 -8q0 -2 -1 -9.5t-3 -24.5t-4 -39q0 -8 -1 -24t-2 -28t-1 -15q0 -19 -9 -19t-9 9q-3 33 -4 36q-8 34 -56 39q-28 3 -142 3q-6 0 -6 -10v-79v-109v-46 q2 -53 23.5 -68.5t96.5 -15.5q68 0 94 12q35 16 45 74q3 15 11 15t8 -18q0 -59 -13 -111q-2 -9 -9.5 -14t-14.5 -6.5t-19.5 -2.5t-19.5 -3q-29 -6 -49.5 -42.5t-20.5 -72.5q0 -49 58 -49z" unicode="Ę"/>
<glyph glyph-name="eogonek" d="M433 -170q22 0 43 16.5t23 16.5q9 0 9 -8q0 -6 -8 -16q-60 -66 -124 -66q-46 0 -68.5 18t-22.5 58q0 36 38 81.5t68 65.5q-16 0 -47 0.5t-45 1.5q-86 2 -102 2q-4 0 -21 -0.5t-29 -0.5q-11 0 -31.5 -1t-29.5 -1q-17 0 -17 9t14 9q19 0 31 3q21 5 26 45q4 36 4 181v150 q0 153 -1 180q-1 22 -9 31t-29 15q-11 3 -35 3q-15 0 -15 9q0 8 20 8q26 0 71.5 -1t55.5 -1h176h64q4 0 37 5q2 0 7 2t7 2q6 0 6 -8q0 -2 -1.5 -7.5t-3 -18t-2.5 -29.5q0 -1 -2 -25.5t-3 -30.5q-3 -14 -10 -14t-7 11q0 19 -6 31q-6 14 -17 21t-41 10q-30 4 -138 4 q-6 0 -6 -8v-210q0 -9 6 -9q134 0 154 2q33 3 42 13q13 11 14 11q7 0 7 -9q0 -2 -7 -62q-4 -34 -4 -57q0 -19 -9 -19q-8 0 -8 7q0 2 -1 13.5t-2 17.5q-9 29 -49 33q-32 4 -138 4q-5 0 -5 -9v-68v-89v-37q1 -43 25.5 -57t93.5 -14q58 0 83 11q29 13 38 63q3 13 10 13 q8 0 8 -20q0 -53 -12 -94q-2 -8 -7.5 -12t-11 -5t-18 -2t-21.5 -3q-33 -6 -54 -40.5t-21 -75.5q0 -49 58 -49z" horiz-adv-x="576" unicode="ę"/>
<glyph glyph-name="Ecaron" d="M194 945l29 29q7 7 11 7q6 0 17 -11q13 -13 46 -40t42 -34q8 -6 13 -6q8 0 15 4q53 32 104 74q16 13 22 13q9 0 9 -10q0 -6 -9 -15q-8 -8 -64.5 -61t-67.5 -63q-13 -12 -21 -12q-3 0 -18 11q-19 17 -119 90q-14 10 -14 14q0 5 5 10zM164 287v176q0 180 -2 212 q-2 27 -10.5 39.5t-32.5 17.5q-12 3 -39 3q-17 0 -17 9t22 9q14 0 41.5 -0.5t39.5 -0.5q52 -2 63 -2q231 0 250 1q33 3 43 6q1 0 7 2t9 2q6 0 6 -9q0 -2 -1.5 -8.5t-3.5 -21.5t-3 -35q0 -2 -2 -30.5t-3 -35.5q-2 -11 -10 -11q-9 0 -9 14q0 22 -6 36q-6 15 -19 23.5t-48 12.5 q-34 4 -142 4q-7 0 -7 -10v-253q0 -11 7 -11q137 0 160 2q37 3 48 15q11 13 16 13q7 0 7 -8q0 -2 -1 -9.5t-3 -24.5t-4 -39q0 -8 -1 -24t-2 -28t-1 -15q0 -19 -9 -19t-9 9q-3 33 -4 36q-8 34 -56 39q-28 3 -142 3q-6 0 -6 -10v-79v-109v-46q2 -53 23.5 -68.5t96.5 -15.5 q68 0 94 12q35 16 45 74q3 15 11 15t8 -18q0 -59 -13 -111q-5 -18 -14 -22t-40 -4q-44 0 -173 3q-64 3 -104 3q-33 0 -57 -1q-12 0 -35.5 -1t-33.5 -1q-20 0 -20 10q0 8 16 8q18 0 36 4q22 4 29 55q5 42 5 213z" unicode="Ě"/>
<glyph glyph-name="ecaron" d="M166 833l29 29q7 7 11 7q6 0 17 -11q13 -13 46 -40t42 -34q7 -6 13 -6q8 0 15 4q53 32 104 74q16 13 22 13q9 0 9 -10q0 -6 -9 -15q-8 -8 -64.5 -61t-67.5 -63q-13 -12 -21 -12q-3 0 -18 11q-19 17 -119 90q-14 10 -14 14q0 5 5 10zM144 244v150q0 153 -1 180 q-1 22 -9 31t-29 15q-11 3 -35 3q-15 0 -15 9q0 8 20 8q26 0 71.5 -1t55.5 -1h176h64q4 0 37 5q2 0 7 2t7 2q6 0 6 -8q0 -2 -1.5 -7.5t-3 -18t-2.5 -29.5q0 -1 -2 -25.5t-3 -30.5q-3 -14 -10 -14t-7 11q0 19 -6 31q-6 14 -17 21t-41 10q-30 4 -138 4q-6 0 -6 -8v-210 q0 -9 6 -9q134 0 154 2q33 3 42 13q13 11 14 11q7 0 7 -9q0 -2 -7 -62q-4 -34 -4 -57q0 -19 -9 -19q-8 0 -8 7q0 2 -1 13.5t-2 17.5q-9 29 -49 33q-32 4 -138 4q-5 0 -5 -9v-68v-89v-37q1 -43 25.5 -57t93.5 -14q58 0 83 11q29 13 38 63q3 13 10 13q8 0 8 -20q0 -53 -12 -94 q-4 -16 -12 -19t-35 -3q-97 0 -162 3q-86 2 -102 2q-4 0 -21 -0.5t-29 -0.5q-42 -2 -61 -2q-17 0 -17 9t14 9q19 0 31 3q21 5 26 45q4 36 4 181z" horiz-adv-x="576" unicode="ě"/>
<glyph glyph-name="Gbreve" d="M330 906q0 5 8 10l33 26q8 7 13 7q3 0 6 -3.5t7.5 -9.5l7.5 -10q38 -44 92 -44q48 0 88 28q13 10 23 20t14 13.5t7 3.5q8 0 8 -9q0 -11 -22.5 -36.5t-40.5 -37.5q-51 -34 -108 -34q-56 0 -99 36q-37 30 -37 40zM771 174v-110q0 -20 -2 -25.5t-11 -10.5q-86 -45 -241 -45 q-95 0 -176 23t-146 69t-102.5 123t-37.5 177q0 113 49.5 197.5t124.5 129.5q65 39 128.5 52t140.5 13q97 0 177 -16q51 -10 79 -11q14 -1 14 -12q0 -1 -2 -17t-3.5 -54t-1.5 -93q0 -21 -11 -21q-8 0 -10 13q-7 54 -34 83q-28 29 -87 53.5t-136 24.5q-123 0 -198 -62 q-92 -77 -92 -245q0 -164 96 -270t252 -106q61 0 85 11q19 9 19 37v94q0 88 -1 118q-1 26 -10 39t-33 18q-12 3 -39 3q-15 0 -15 8q0 10 21 10q29 0 81 -1.5t64 -1.5q15 0 57.5 1.5t59.5 1.5q20 0 20 -10q0 -8 -13 -8q-9 0 -27 -3q-37 -7 -38 -57q-1 -30 -1 -120z" horiz-adv-x="886" unicode="Ğ"/>
<glyph glyph-name="gbreve" d="M268 794q0 5 8 10l33 26q8 7 13 7q3 0 6 -3.5t7.5 -9.5l7.5 -10q38 -44 92 -44q48 0 88 28q13 10 23 20t14 13.5t7 3.5q8 0 8 -9q0 -11 -22.5 -36.5t-40.5 -37.5q-51 -34 -108 -34q-56 0 -99 36q-37 30 -37 40zM681 148v-94q0 -18 -1.5 -22t-9.5 -8q-77 -38 -215 -38 q-113 0 -202 33t-147 110t-58 190q0 96 43.5 167.5t110.5 110.5q94 55 237 55q93 0 156 -14q48 -8 70 -9q12 -1 12 -10q0 -1 -1.5 -14.5t-3 -46t-1.5 -79.5q0 -19 -12 -19q-7 0 -9 11q-5 43 -30 70q-24 25 -74 45t-117 20q-32 0 -53 -2t-55 -13.5t-62 -34.5 q-81 -66 -81 -207q0 -139 83.5 -227.5t222.5 -88.5q41 0 62 9q17 8 17 30v78q0 74 -1 100q-1 21 -9 30.5t-29 15.5q-11 3 -34 3q-14 0 -14 9q0 8 19 8q25 0 75 -1t60 -1q14 0 51 1t52 1q18 0 18 -8q0 -9 -11 -9q-9 0 -24 -3q-33 -5 -34 -46q-1 -26 -1 -102z" horiz-adv-x="783" unicode="ğ"/>
<glyph glyph-name="Gcommaaccent" d="M551 -118q0 -16 -11 -42q-30 -71 -68 -114q-12 -10 -15 -10q-7 0 -7 9l7 14q25 43 25 75q0 21 -9 37t-18 24.5t-9 12.5q0 22 22 41t42 19q6 0 9.5 -4t12.5 -18q19 -30 19 -44zM771 174v-110q0 -20 -2 -25.5t-11 -10.5q-86 -45 -241 -45q-95 0 -176 23t-146 69t-102.5 123 t-37.5 177q0 113 49.5 197.5t124.5 129.5q65 39 128.5 52t140.5 13q97 0 177 -16q51 -10 79 -11q14 -1 14 -12q0 -1 -2 -17t-3.5 -54t-1.5 -93q0 -21 -11 -21q-8 0 -10 13q-7 54 -34 83q-28 29 -87 53.5t-136 24.5q-123 0 -198 -62q-92 -77 -92 -245q0 -164 96 -270 t252 -106q61 0 85 11q19 9 19 37v94q0 88 -1 118q-1 26 -10 39t-33 18q-12 3 -39 3q-15 0 -15 8q0 10 21 10q29 0 81 -1.5t64 -1.5q15 0 57.5 1.5t59.5 1.5q20 0 20 -10q0 -8 -13 -8q-9 0 -27 -3q-37 -7 -38 -57q-1 -30 -1 -120z" horiz-adv-x="886" unicode="Ģ"/>
<glyph glyph-name="gcommaaccent" d="M494 -118q0 -16 -11 -42q-30 -71 -68 -114q-12 -10 -15 -10q-7 0 -7 9l7 14q25 43 25 75q0 21 -9 37t-18 24.5t-9 12.5q0 22 21.5 41t42.5 19q6 0 9.5 -4t12.5 -18q19 -30 19 -44zM681 148v-94q0 -18 -1.5 -22t-9.5 -8q-77 -38 -215 -38q-113 0 -202 33t-147 110t-58 190 q0 96 43.5 167.5t110.5 110.5q94 55 237 55q93 0 156 -14q48 -8 70 -9q12 -1 12 -10q0 -1 -1.5 -14.5t-3 -46t-1.5 -79.5q0 -19 -12 -19q-7 0 -9 11q-5 43 -30 70q-24 25 -74 45t-117 20q-32 0 -53 -2t-55 -13.5t-62 -34.5q-81 -66 -81 -207q0 -139 83.5 -227.5t222.5 -88.5 q41 0 62 9q17 8 17 30v78q0 74 -1 100q-1 21 -9 30.5t-29 15.5q-11 3 -34 3q-14 0 -14 9q0 8 19 8q25 0 75 -1t60 -1q14 0 51 1t52 1q18 0 18 -8q0 -9 -11 -9q-9 0 -24 -3q-33 -5 -34 -46q-1 -26 -1 -102z" horiz-adv-x="783" unicode="ģ"/>
<glyph glyph-name="Imacron" d="M341 857h-240q-5 0 -7 1.5t-1 5.5l8 36q3 9 11 9h240q11 0 8 -10l-8 -36q-2 -6 -11 -6zM164 287v176q0 180 -2 212q-3 49 -34 56q-15 4 -36 4q-16 0 -16 10q0 8 24 8q20 0 68.5 -1.5t61.5 -1.5q11 0 56 1.5t66 1.5t21 -8q0 -10 -16 -10q-12 0 -30 -3q-20 -4 -27.5 -17 t-9.5 -40q-2 -32 -2 -212v-176q0 -176 4 -219q3 -23 11 -34.5t29 -14.5q28 -4 51 -4q16 0 16 -8q0 -10 -19 -10q-38 0 -92.5 1.5t-63.5 1.5t-56.5 -1.5t-69.5 -1.5q-20 0 -20 10q0 8 16 8q18 0 36 4q24 5 29 50q5 42 5 218z" horiz-adv-x="452" unicode="Ī"/>
<glyph glyph-name="imacron" d="M318 745h-240q-5 0 -7 1.5t-1 5.5l8 36q3 9 11 9h240q11 0 8 -10l-8 -36q-1 -6 -11 -6zM144 244v150q0 153 -1 180q-1 21 -8 30.5t-22 14.5q-13 4 -32 4q-14 0 -14 10q0 7 21 7q18 0 62.5 -1t55.5 -1q10 0 52 1t61 1q18 0 18 -7q0 -10 -14 -10q-11 0 -26 -3 q-18 -3 -24.5 -13t-8.5 -33q-2 -27 -2 -180v-150q0 -150 4 -186q2 -19 9.5 -28t25.5 -12t45 -3q14 0 14 -9t-17 -9q-33 0 -83.5 1.5t-58.5 1.5t-52 -1.5t-63 -1.5q-17 0 -17 9t14 9q19 0 31 3q22 5 26 41q4 35 4 185z" horiz-adv-x="407" unicode="ī"/>
<glyph glyph-name="Iogonek" d="M276 -170q22 0 43 16.5t23 16.5q9 0 9 -8q0 -6 -8 -16q-60 -66 -124 -66q-46 0 -68.5 18t-22.5 58q0 39 46 91t68 60h-18q-33 0 -57 -1q-12 0 -35.5 -1t-33.5 -1q-20 0 -20 10q0 8 16 8q18 0 36 4q24 5 29 50q5 42 5 218v176q0 180 -2 212q-3 49 -34 56q-15 4 -36 4 q-16 0 -16 10q0 8 24 8q20 0 68.5 -1.5t61.5 -1.5q11 0 56 1.5t66 1.5t21 -8q0 -10 -16 -10q-12 0 -30 -3q-20 -4 -27.5 -17t-9.5 -40q-2 -32 -2 -212v-176q0 -176 4 -219q3 -23 11 -34.5t29 -14.5q28 -4 51 -4q16 0 16 -8q0 -10 -19 -10q-11 0 -31.5 1.5t-29.5 1.5 q-23 0 -38 -7q-27 -14 -45 -48t-18 -66q0 -49 58 -49z" horiz-adv-x="452" unicode="Į"/>
<glyph glyph-name="iogonek" d="M251 -170q23 0 44 16.5t22 16.5q9 0 9 -8q0 -6 -8 -16q-60 -66 -124 -66q-46 0 -68.5 18t-22.5 58q0 39 46.5 91.5t67.5 59.5h-16q-3 0 -21 -0.5t-31 -0.5q-44 -2 -63 -2q-17 0 -17 9t14 9q19 0 31 3q22 5 26 41q4 35 4 185v150q0 153 -1 180q-1 21 -8 30.5t-22 14.5 q-13 4 -32 4q-14 0 -14 10q0 7 21 7q18 0 62.5 -1t55.5 -1q10 0 52 1t61 1q18 0 18 -7q0 -10 -14 -10q-11 0 -26 -3q-18 -3 -24.5 -13t-8.5 -33q-2 -27 -2 -180v-150q0 -150 4 -186q2 -19 9.5 -28t25.5 -12t45 -3q14 0 14 -9t-17 -9q-9 0 -26 1t-26 1q-24 0 -37 -7 q-26 -15 -43.5 -48.5t-17.5 -64.5q0 -49 58 -49z" horiz-adv-x="407" unicode="į"/>
<glyph glyph-name="Idotaccent" d="M226 830q-28 0 -42 17t-14 39t14.5 40t41.5 18q25 0 41 -15t16 -39q0 -25 -16 -42.5t-41 -17.5zM164 287v176q0 180 -2 212q-3 49 -34 56q-15 4 -36 4q-16 0 -16 10q0 8 24 8q20 0 68.5 -1.5t61.5 -1.5q11 0 56 1.5t66 1.5t21 -8q0 -10 -16 -10q-12 0 -30 -3 q-20 -4 -27.5 -17t-9.5 -40q-2 -32 -2 -212v-176q0 -176 4 -219q3 -23 11 -34.5t29 -14.5q28 -4 51 -4q16 0 16 -8q0 -10 -19 -10q-38 0 -92.5 1.5t-63.5 1.5t-56.5 -1.5t-69.5 -1.5q-20 0 -20 10q0 8 16 8q18 0 36 4q24 5 29 50q5 42 5 218z" horiz-adv-x="452" unicode="İ"/>
<glyph glyph-name="dotlessi" d="M144 244v150q0 153 -1 180q-1 21 -8 30.5t-22 14.5q-13 4 -32 4q-14 0 -14 10q0 7 21 7q18 0 62.5 -1t55.5 -1q10 0 52 1t61 1q18 0 18 -7q0 -10 -14 -10q-11 0 -26 -3q-18 -3 -24.5 -13t-8.5 -33q-2 -27 -2 -180v-150q0 -150 4 -186q2 -19 9.5 -28t25.5 -12t45 -3 q14 0 14 -9t-17 -9q-33 0 -83.5 1.5t-58.5 1.5t-52 -1.5t-63 -1.5q-17 0 -17 9t14 9q19 0 31 3q22 5 26 41q4 35 4 185z" horiz-adv-x="407" unicode="ı"/>
<glyph glyph-name="Kcommaaccent" d="M511 -98q0 -16 -11 -42q-30 -71 -68 -114q-12 -10 -15 -10q-7 0 -7 9l7 14q25 43 25 75q0 21 -9 37t-18 24.5t-9 12.5q0 22 22 41t42 19q6 0 9.5 -4t12.5 -18q19 -30 19 -44zM286 463v-44h5q11 12 101.5 106.5t107.5 113.5q50 59 50 75q0 17 -14 20q-13 3 -13 10 q0 9 16 9q10 0 49.5 -1.5t53.5 -1.5q16 0 59 1.5t58 1.5q17 0 17 -9t-15 -9q-28 0 -58 -11q-52 -20 -108 -75q-140 -135 -216 -216q25 -33 132 -149t139 -146q74 -70 110 -92q17 -10 33 -16q38 -15 62 -15q13 0 13 -8q0 -10 -24 -10h-87q-48 0 -69 2q-37 3 -62 17.5 t-62 47.5q-30 26 -136 149t-126 150l-11 15h-5v-91q0 -171 3 -214q3 -49 36 -54q28 -4 49 -4q13 0 13 -8q0 -10 -19 -10q-32 0 -83.5 1.5t-60.5 1.5t-56.5 -1.5t-69.5 -1.5q-20 0 -20 10q0 8 16 8q18 0 36 4q22 4 29 55q5 42 5 213v176q0 180 -2 212q-2 27 -10.5 39.5 t-32.5 17.5q-12 3 -39 3q-17 0 -17 9t22 9q30 0 81 -1.5t59 -1.5q11 0 57 1.5t64 1.5q21 0 21 -9t-14 -9q-10 0 -28 -3q-20 -4 -27.5 -17t-9.5 -40q-2 -32 -2 -212z" horiz-adv-x="768" unicode="Ķ"/>
<glyph glyph-name="kcommaaccent" d="M465 -118q0 -16 -11 -42q-30 -71 -68 -114q-12 -10 -15 -10q-7 0 -7 9l7 14q25 43 25 75q0 21 -9 37t-18 24.5t-9 12.5q0 22 22 41t42 19q6 0 9.5 -4t12.5 -18q19 -30 19 -44zM259 394v-38h4q13 14 91.5 92.5t92.5 94.5q44 49 44 63t-12 17t-12 9q0 8 14 8q9 0 43.5 -1 t47.5 -1t51 1t52 1q15 0 15 -8q0 -9 -13 -9q-24 0 -51 -10q-42 -15 -93 -63q-148 -138 -186 -181q21 -28 114.5 -126t123.5 -126q4 -3 27 -24.5t31.5 -28.5t26.5 -19t35 -19q26 -11 54 -11q12 0 12 -9t-21 -9h-77q-42 0 -61 2q-33 3 -58 15.5t-56 39.5q-26 22 -117 126.5 t-109 128.5l-9 12h-4v-77q0 -145 2 -182q3 -39 32 -44q18 -3 43 -3q12 0 12 -9t-17 -9q-28 0 -77 1.5t-57 1.5t-50 -1.5t-61 -1.5q-17 0 -17 9t14 9q19 0 31 3q21 5 26 45q4 36 4 181v150q0 153 -1 180q-1 22 -9 31t-29 15q-11 3 -35 3q-15 0 -15 9q0 8 20 8q26 0 71 -1 t52 -1q10 0 54 1t59 1q19 0 19 -8q0 -9 -12 -9q-8 0 -25 -3q-18 -3 -24.5 -13t-8.5 -33q-1 -27 -1 -180z" horiz-adv-x="685" unicode="ķ"/>
<glyph glyph-name="Lacute" d="M414 972q10 -18 29 -60q7 -15 -5 -15q-1 0 -6.5 0.5t-10.5 0.5q-10 0 -17 -1q-38 -5 -88.5 -23.5t-82.5 -35.5q-16 -8 -17 -8q-6 0 -6 6q0 4 9 13q27 25 86 70.5t75 55.5q13 9 20 9t14 -12zM289 463v-176q0 -113 3.5 -158t17.5 -57q25 -22 121 -22q48 0 74 5t43 23 q22 24 26 60q2 15 11 15q8 0 8 -17q0 -12 -5 -54t-10 -61q-5 -17 -15 -22t-48 -5q-34 0 -169 3q-68 3 -122 3q-33 0 -57 -1q-12 0 -35.5 -1t-33.5 -1q-20 0 -20 10q0 8 16 8q18 0 36 4q22 4 29 55q5 42 5 213v176q0 180 -2 212q-2 27 -10.5 39.5t-32.5 17.5q-12 3 -33 3 q-17 0 -17 9t22 9q26 0 76 -1.5t61 -1.5q10 0 62.5 1.5t73.5 1.5t21 -9t-18 -9q-21 0 -39 -3q-20 -4 -27.5 -17t-9.5 -40q-2 -32 -2 -212z" horiz-adv-x="605" unicode="Ĺ"/>
<glyph glyph-name="lacute" d="M392 860q10 -18 29 -60q7 -15 -5 -15q-1 0 -6.5 0.5t-10.5 0.5q-10 0 -17 -1q-38 -5 -88.5 -23.5t-82.5 -35.5q-16 -8 -17 -8q-6 0 -6 6q0 4 9 13q27 25 86 70.5t75 55.5q13 9 20 9t14 -12zM262 394v-150q0 -95 3 -131.5t16 -47.5q21 -18 117 -18q42 0 65 4t38 20 q18 18 22 51q2 13 10 13t8 -19q0 -11 -4 -46t-9 -52q-5 -15 -14 -19t-42 -4q-92 0 -158 3q-88 2 -117 2q-4 0 -21 -0.5t-29 -0.5q-42 -2 -61 -2q-17 0 -17 9t14 9q19 0 31 3q21 5 26 45q4 36 4 181v150q0 153 -1 180q-1 22 -9 31t-29 15q-11 3 -29 3q-15 0 -15 9q0 8 19 8 q23 0 67 -1t54 -1q9 0 58.5 1t68.5 1t19 -8q0 -9 -16 -9q-19 0 -34 -3q-18 -3 -24.5 -13t-8.5 -33q-2 -27 -2 -180z" horiz-adv-x="552" unicode="ĺ"/>
<glyph glyph-name="Lcommaaccent" d="M425 -118q0 -16 -11 -42q-30 -71 -68 -114q-12 -10 -15 -10q-7 0 -7 9l7 14q25 43 25 75q0 21 -9 37t-18 24.5t-9 12.5q0 22 22 41t42 19q6 0 9.5 -4t12.5 -18q19 -30 19 -44zM289 463v-176q0 -113 3.5 -158t17.5 -57q25 -22 121 -22q48 0 74 5t43 23q22 24 26 60 q2 15 11 15q8 0 8 -17q0 -12 -5 -54t-10 -61q-5 -17 -15 -22t-48 -5q-34 0 -169 3q-68 3 -122 3q-33 0 -57 -1q-12 0 -35.5 -1t-33.5 -1q-20 0 -20 10q0 8 16 8q18 0 36 4q22 4 29 55q5 42 5 213v176q0 180 -2 212q-2 27 -10.5 39.5t-32.5 17.5q-12 3 -33 3q-17 0 -17 9 t22 9q26 0 76 -1.5t61 -1.5q10 0 62.5 1.5t73.5 1.5t21 -9t-18 -9q-21 0 -39 -3q-20 -4 -27.5 -17t-9.5 -40q-2 -32 -2 -212z" horiz-adv-x="605" unicode="Ļ"/>
<glyph glyph-name="lcommaaccent" d="M388 -118q0 -16 -11 -42q-30 -71 -68 -114q-12 -10 -15 -10q-7 0 -7 9l7 14q25 43 25 75q0 21 -9 37t-18 24.5t-9 12.5q0 22 21.5 41t42.5 19q6 0 9.5 -4t12.5 -18q19 -30 19 -44zM262 394v-150q0 -95 3 -131.5t16 -47.5q21 -18 117 -18q42 0 65 4t38 20q18 18 22 51 q2 13 10 13t8 -19q0 -11 -4 -46t-9 -52q-5 -15 -14 -19t-42 -4q-92 0 -158 3q-88 2 -117 2q-4 0 -21 -0.5t-29 -0.5q-42 -2 -61 -2q-17 0 -17 9t14 9q19 0 31 3q21 5 26 45q4 36 4 181v150q0 153 -1 180q-1 22 -9 31t-29 15q-11 3 -29 3q-15 0 -15 9q0 8 19 8q23 0 67 -1 t54 -1q9 0 58.5 1t68.5 1t19 -8q0 -9 -16 -9q-19 0 -34 -3q-18 -3 -24.5 -13t-8.5 -33q-2 -27 -2 -180z" horiz-adv-x="552" unicode="ļ"/>
<glyph glyph-name="Lcaron" d="M585 687q0 -16 -11 -42q-30 -71 -68 -114q-12 -10 -15 -10q-7 0 -7 9l7 14q25 43 25 75q0 21 -9 37t-18 24.5t-9 12.5q0 22 22 41t42 19q6 0 9.5 -4t12.5 -18q19 -30 19 -44zM289 463v-176q0 -113 3.5 -158t17.5 -57q25 -22 121 -22q48 0 74 5t43 23q22 24 26 60 q2 15 11 15q8 0 8 -17q0 -12 -5 -54t-10 -61q-5 -17 -15 -22t-48 -5q-34 0 -169 3q-68 3 -122 3q-33 0 -57 -1q-12 0 -35.5 -1t-33.5 -1q-20 0 -20 10q0 8 16 8q18 0 36 4q22 4 29 55q5 42 5 213v176q0 180 -2 212q-2 27 -10.5 39.5t-32.5 17.5q-12 3 -33 3q-17 0 -17 9 t22 9q26 0 76 -1.5t61 -1.5q10 0 62.5 1.5t73.5 1.5t21 -9t-18 -9q-21 0 -39 -3q-20 -4 -27.5 -17t-9.5 -40q-2 -32 -2 -212z" horiz-adv-x="605" unicode="Ľ"/>
<glyph glyph-name="lcaron" d="M539 582q0 -16 -11 -42q-30 -71 -68 -114q-12 -10 -15 -10q-7 0 -7 9l7 14q25 43 25 75q0 21 -9 37t-18 24.5t-9 12.5q0 22 22 41t42 19q6 0 9.5 -4t12.5 -18q19 -30 19 -44zM262 394v-150q0 -95 3 -131.5t16 -47.5q21 -18 117 -18q42 0 65 4t38 20q18 18 22 51 q2 13 10 13t8 -19q0 -11 -4 -46t-9 -52q-5 -15 -14 -19t-42 -4q-92 0 -158 3q-88 2 -117 2q-4 0 -21 -0.5t-29 -0.5q-42 -2 -61 -2q-17 0 -17 9t14 9q19 0 31 3q21 5 26 45q4 36 4 181v150q0 153 -1 180q-1 22 -9 31t-29 15q-11 3 -29 3q-15 0 -15 9q0 8 19 8q23 0 67 -1 t54 -1q9 0 58.5 1t68.5 1t19 -8q0 -9 -16 -9q-19 0 -34 -3q-18 -3 -24.5 -13t-8.5 -33q-2 -27 -2 -180z" horiz-adv-x="552" unicode="ľ"/>
<glyph glyph-name="Lslash" d="M289 380v-93q0 -113 3.5 -158t17.5 -57q25 -22 121 -22q48 0 74 5t43 23q22 24 26 60q2 18 11 18q8 0 8 -20q0 -12 -5 -54t-10 -61q-5 -17 -15 -22t-48 -5q-34 0 -169 3q-68 3 -122 3q-33 0 -57 -1q-12 0 -35.5 -1t-33.5 -1q-20 0 -20 10q0 8 16 8q18 0 36 4q22 4 29 55 q5 42 5 213v42l-83 -44q-7 -4 -11 4l-16 34q-3 6 3 9l107 54v77q0 180 -2 212q-2 27 -10.5 39.5t-32.5 17.5q-12 3 -34 3q-17 0 -17 9t22 9q27 0 77 -1.5t61 -1.5q10 0 60 1.5t71 1.5t21 -9t-18 -9q-16 0 -34 -3q-20 -4 -27.5 -17t-9.5 -40q-2 -32 -2 -212v-24l133 65 q13 6 16 -3l12 -33q4 -10 -7 -14z" horiz-adv-x="605" unicode="Ł"/>
<glyph glyph-name="lslash" d="M262 320v-76q0 -95 3 -131.5t16 -47.5q21 -18 118 -18q30 0 44 1t31.5 6t27.5 16q17 17 21 51q2 16 10 16q9 0 9 -21q0 -11 -4 -46t-9 -52q-5 -15 -14 -19t-42 -4q-93 0 -159 3q-88 2 -117 2q-4 0 -21 -0.5t-29 -0.5q-42 -2 -61 -2q-17 0 -17 9t14 9q19 0 31 3 q21 5 26 45q4 36 4 174v36l-73 -38q-7 -2 -9 4l-14 32q-2 5 2 7l94 46v70q0 153 -1 180q-1 22 -9 31t-29 15q-11 3 -30 3q-15 0 -15 9q0 8 19 8q23 0 67.5 -1t54.5 -1q9 0 56.5 1t66.5 1q18 0 18 -8q0 -9 -15 -9t-30 -3q-18 -3 -24.5 -13t-8.5 -33q-2 -27 -2 -180v-21 l117 55q11 6 14 -2l11 -31q3 -8 -6 -12z" horiz-adv-x="552" unicode="ł"/>
<glyph glyph-name="Nacute" d="M595 947q11 -18 29 -60q8 -15 -5 -15q-1 0 -6.5 0.5t-10.5 0.5q-10 0 -17 -1q-38 -5 -88.5 -23.5t-82.5 -35.5q-16 -8 -17 -8q-6 0 -6 6q0 4 9 13q27 25 86 70.5t75 55.5q13 9 20 9t14 -12zM209 553l11 -420q3 -100 35 -111q20 -7 52 -7q17 0 17 -8q0 -10 -23 -10 q-38 0 -79 1.5t-45 1.5q-3 0 -19 -0.5t-41 -1.5t-48 -1q-22 0 -22 10q0 8 16 8q27 0 45 5q19 6 24.5 31t6.5 93l9 592q0 34 13 34q3 0 6 -1.5t7 -4.5t6.5 -6t8.5 -9t9 -10q146 -158 310 -321q29 -29 81 -83t92 -96.5t47 -48.5h5l-10 449q-1 45 -8.5 63.5t-25.5 26.5 q-15 6 -53 6q-16 0 -16 9t26 9q30 0 72 -1.5t49 -1.5q1 0 35 1.5t63 1.5q23 0 23 -9t-18 -9t-30 -3q-21 -6 -28.5 -24t-8.5 -61l-11 -631q0 -31 -13 -31q-12 0 -34 22q-36 34 -147.5 146t-147.5 148q-38 37 -81 82t-72 77t-55.5 60.5t-29.5 32.5h-3z" horiz-adv-x="947" unicode="Ń"/>
<glyph glyph-name="nacute" d="M557 860q11 -18 29 -60q8 -15 -5 -15q-1 0 -6.5 0.5t-10.5 0.5q-10 0 -17 -1q-38 -5 -88.5 -23.5t-82.5 -35.5q-16 -8 -17 -8q-6 0 -6 6q0 4 9 13q27 25 86 70.5t75 55.5q13 9 20 9t14 -12zM189 460l10 -347q2 -82 30 -92q18 -6 46 -6q15 0 15 -9t-20 -9q-34 0 -72.5 1.5 t-41.5 1.5q-2 0 -17 -0.5t-36.5 -1.5t-41.5 -1t-20 9t14 9q24 0 40 4q17 4 21.5 24.5t5.5 78.5l8 504q0 29 15 29q10 0 38 -28l29 -29q29 -30 62.5 -64t84.5 -84.5t95 -93.5q25 -25 70.5 -71t80 -80.5l39.5 -39.5h4l-9 378q-1 38 -7.5 53.5t-22.5 21.5q-13 5 -46 5 q-14 0 -14 9q0 8 22 8q26 0 66 -1t46 -1q1 0 30.5 1t55.5 1q20 0 20 -8q0 -9 -15 -9q-16 0 -27 -3q-18 -5 -24.5 -19.5t-7.5 -50.5l-9 -536q0 -27 -15 -27q-18 0 -36 18q-90 84 -257 245q-42 40 -90 89.5t-79 82.5t-37 38h-3z" horiz-adv-x="841" unicode="ń"/>
<glyph glyph-name="Ncommaaccent" d="M536 -88q0 -16 -11 -42q-30 -71 -68 -114q-12 -10 -15 -10q-7 0 -7 9l7 14q25 43 25 75q0 21 -9 37t-18 24.5t-9 12.5q0 22 21.5 41t42.5 19q6 0 9.5 -4t12.5 -18q19 -30 19 -44zM209 553l11 -420q3 -100 35 -111q20 -7 52 -7q17 0 17 -8q0 -10 -23 -10q-38 0 -79 1.5 t-45 1.5q-3 0 -19 -0.5t-41 -1.5t-48 -1q-22 0 -22 10q0 8 16 8q27 0 45 5q19 6 24.5 31t6.5 93l9 592q0 34 13 34q3 0 6 -1.5t7 -4.5t6.5 -6t8.5 -9t9 -10q146 -158 310 -321q29 -29 81 -83t92 -96.5t47 -48.5h5l-10 449q-1 45 -8.5 63.5t-25.5 26.5q-15 6 -53 6 q-16 0 -16 9t26 9q30 0 72 -1.5t49 -1.5q1 0 35 1.5t63 1.5q23 0 23 -9t-18 -9t-30 -3q-21 -6 -28.5 -24t-8.5 -61l-11 -631q0 -31 -13 -31q-12 0 -34 22q-36 34 -147.5 146t-147.5 148q-38 37 -81 82t-72 77t-55.5 60.5t-29.5 32.5h-3z" horiz-adv-x="947" unicode="Ņ"/>
<glyph glyph-name="ncommaaccent" d="M473 -88q0 -16 -11 -42q-30 -71 -68 -114q-12 -10 -15 -10q-7 0 -7 9l7 14q25 43 25 75q0 21 -9 37t-18 24.5t-9 12.5q0 22 22 41t42 19q6 0 9.5 -4t12.5 -18q19 -30 19 -44zM189 460l10 -347q2 -82 30 -92q18 -6 46 -6q15 0 15 -9t-20 -9q-34 0 -72.5 1.5t-41.5 1.5 q-2 0 -17 -0.5t-36.5 -1.5t-41.5 -1t-20 9t14 9q24 0 40 4q17 4 21.5 24.5t5.5 78.5l8 504q0 29 15 29q10 0 38 -28l29 -29q29 -30 62.5 -64t84.5 -84.5t95 -93.5q25 -25 70.5 -71t80 -80.5l39.5 -39.5h4l-9 378q-1 38 -7.5 53.5t-22.5 21.5q-13 5 -46 5q-14 0 -14 9 q0 8 22 8q26 0 66 -1t46 -1q1 0 30.5 1t55.5 1q20 0 20 -8q0 -9 -15 -9q-16 0 -27 -3q-18 -5 -24.5 -19.5t-7.5 -50.5l-9 -536q0 -27 -15 -27q-18 0 -36 18q-90 84 -257 245q-42 40 -90 89.5t-79 82.5t-37 38h-3z" horiz-adv-x="841" unicode="ņ"/>
<glyph glyph-name="Ncaron" d="M327 925l29 29q7 7 11 7q6 0 17 -11q13 -13 46 -40t42 -34q7 -6 13 -6q8 0 15 4q53 32 104 74q16 13 22 13q9 0 9 -10q0 -6 -9 -15q-8 -8 -64.5 -61t-67.5 -63q-13 -12 -21 -12q-3 0 -18 11q-19 17 -119 90q-14 10 -14 14q0 5 5 10zM209 553l11 -420q3 -100 35 -111 q20 -7 52 -7q17 0 17 -8q0 -10 -23 -10q-38 0 -79 1.5t-45 1.5q-3 0 -19 -0.5t-41 -1.5t-48 -1q-22 0 -22 10q0 8 16 8q27 0 45 5q19 6 24.5 31t6.5 93l9 592q0 34 13 34q3 0 6 -1.5t7 -4.5t6.5 -6t8.5 -9t9 -10q146 -158 310 -321q29 -29 81 -83t92 -96.5t47 -48.5h5 l-10 449q-1 45 -8.5 63.5t-25.5 26.5q-15 6 -53 6q-16 0 -16 9t26 9q30 0 72 -1.5t49 -1.5q1 0 35 1.5t63 1.5q23 0 23 -9t-18 -9t-30 -3q-21 -6 -28.5 -24t-8.5 -61l-11 -631q0 -31 -13 -31q-12 0 -34 22q-36 34 -147.5 146t-147.5 148q-38 37 -81 82t-72 77t-55.5 60.5 t-29.5 32.5h-3z" horiz-adv-x="947" unicode="Ň"/>
<glyph glyph-name="ncaron" d="M269 833l29 29q7 7 11 7q6 0 17 -11q13 -13 46 -40t42 -34q8 -6 13 -6q8 0 15 4q53 32 104 74q16 13 22 13q9 0 9 -10q0 -6 -9 -15q-8 -8 -64.5 -61t-67.5 -63q-13 -12 -21 -12q-3 0 -18 11q-19 17 -119 90q-14 10 -14 14q0 5 5 10zM189 460l10 -347q2 -82 30 -92 q18 -6 46 -6q15 0 15 -9t-20 -9q-34 0 -72.5 1.5t-41.5 1.5q-2 0 -17 -0.5t-36.5 -1.5t-41.5 -1t-20 9t14 9q24 0 40 4q17 4 21.5 24.5t5.5 78.5l8 504q0 29 15 29q10 0 38 -28l29 -29q29 -30 62.5 -64t84.5 -84.5t95 -93.5q25 -25 70.5 -71t80 -80.5l39.5 -39.5h4l-9 378 q-1 38 -7.5 53.5t-22.5 21.5q-13 5 -46 5q-14 0 -14 9q0 8 22 8q26 0 66 -1t46 -1q1 0 30.5 1t55.5 1q20 0 20 -8q0 -9 -15 -9q-16 0 -27 -3q-18 -5 -24.5 -19.5t-7.5 -50.5l-9 -536q0 -27 -15 -27q-18 0 -36 18q-90 84 -257 245q-42 40 -90 89.5t-79 82.5t-37 38h-3z" horiz-adv-x="841" unicode="ň"/>
<glyph glyph-name="Omacron" d="M578 857h-240q-5 0 -7 1.5t-1 5.5l8 36q3 9 11 9h240q11 0 8 -10l-8 -36q-1 -6 -11 -6zM500 33q26 0 51.5 5.5t60 25.5t59.5 53t43 95t18 144q0 164 -83.5 263.5t-209.5 99.5q-47 0 -87.5 -14.5t-78 -48t-59 -97.5t-21.5 -153q0 -161 83.5 -267t223.5 -106zM458 -17 q-103 0 -183.5 36t-126.5 94.5t-69.5 125t-23.5 136.5q0 53 14 106.5t45.5 105.5t78 91.5t117.5 64t158 24.5q186 0 295 -101t109 -273q0 -176 -113.5 -293t-300.5 -117z" horiz-adv-x="927" unicode="Ō"/>
<glyph glyph-name="omacron" d="M538 745h-240q-5 0 -7 1.5t-1 5.5l8 36q3 9 11 9h240q11 0 8 -10l-8 -36q-1 -6 -11 -6zM444 32q23 0 45.5 4.5t52 21.5t51.5 44.5t37.5 79.5t15.5 121q0 138 -73 221t-182 83q-40 0 -75 -12t-67.5 -39.5t-51.5 -81.5t-19 -129q0 -135 72 -224t194 -89zM408 -14 q-92 0 -163.5 30.5t-113 80t-62.5 106.5t-21 116q0 45 12.5 90.5t41 89.5t70 77.5t105 54.5t140.5 21q166 0 263 -86t97 -232q0 -150 -101 -249t-268 -99z" horiz-adv-x="827" unicode="ō"/>
<glyph glyph-name="Ohungarumlaut" d="M613 961q21 24 25 24q8 0 19 -4q23 -9 46 -29q11 -9 2 -14q-22 -6 -39 -14q-83 -38 -136 -82q-15 -12 -22 -12q-10 0 -5 10q2 4 26 30.5t52 56t32 34.5zM440 961q21 24 25 24q8 0 19 -4q22 -9 46 -29q11 -9 2 -14q-22 -6 -39 -14q-83 -38 -136 -82q-15 -12 -22 -12 q-10 0 -5 10q2 4 26 30.5t52 56t32 34.5zM500 33q26 0 51.5 5.5t60 25.5t59.5 53t43 95t18 144q0 164 -83.5 263.5t-209.5 99.5q-47 0 -87.5 -14.5t-78 -48t-59 -97.5t-21.5 -153q0 -161 83.5 -267t223.5 -106zM458 -17q-103 0 -183.5 36t-126.5 94.5t-69.5 125t-23.5 136.5 q0 53 14 106.5t45.5 105.5t78 91.5t117.5 64t158 24.5q186 0 295 -101t109 -273q0 -176 -113.5 -293t-300.5 -117z" horiz-adv-x="927" unicode="Ő"/>
<glyph glyph-name="ohungarumlaut" d="M548 849q21 24 25 24q8 0 19 -4q23 -9 46 -29q11 -9 2 -14q-22 -6 -39 -14q-83 -38 -136 -82q-15 -12 -22 -12q-10 0 -5 10q2 4 26 30.5t52 56t32 34.5zM375 849q21 24 25 24q8 0 19 -4q22 -9 46 -29q11 -9 2 -14q-22 -6 -39 -14q-83 -38 -136 -82q-15 -12 -22 -12 q-10 0 -5 10q2 4 26 30.5t52 56t32 34.5zM444 32q23 0 45.5 4.5t52 21.5t51.5 44.5t37.5 79.5t15.5 121q0 138 -73 221t-182 83q-40 0 -75 -12t-67.5 -39.5t-51.5 -81.5t-19 -129q0 -135 72 -224t194 -89zM408 -14q-92 0 -163.5 30.5t-113 80t-62.5 106.5t-21 116 q0 45 12.5 90.5t41 89.5t70 77.5t105 54.5t140.5 21q166 0 263 -86t97 -232q0 -150 -101 -249t-268 -99z" horiz-adv-x="827" unicode="ő"/>
<glyph glyph-name="OE" d="M191 406q0 -172 87 -273t211 -101q110 0 174.5 77.5t64.5 230.5q0 106 -33.5 190.5t-101.5 136t-160 51.5q-103 0 -172.5 -79t-69.5 -233zM848 367v-80v-109v-45q2 -53 23.5 -69t96.5 -16q68 0 94 12q35 16 45 74q3 15 11 15t8 -18q0 -59 -13 -111q-5 -18 -14 -22t-40 -4 q-42 0 -174 3q-66 3 -113 3q-4 0 -10.5 -0.5t-9.5 -0.5q-10 -2 -14 -2q-10 0 -10 7q0 4 1.5 13.5t1.5 16.5q1 11 1 55q-109 -106 -288 -106q-80 0 -146.5 24t-110.5 63t-74.5 90.5t-44 105.5t-13.5 110q0 57 14 112t45 106t76.5 89t112 61t147.5 23q180 0 279 -114h3 q0 59 -1 71q0 3 -1 9.5t-1 10.5q0 9 10 9q1 0 5 -0.5t9 -0.5q14 -2 34 -2q231 0 250 1q33 3 43 6q1 0 7 2t9 2q6 0 6 -9q0 -2 -1.5 -8.5t-3.5 -21.5t-3 -35q0 -2 -2 -30.5t-3 -35.5q-2 -11 -10 -11q-9 0 -9 14q0 22 -6 36q-6 15 -19 23.5t-48 12.5q-34 4 -142 4q-7 0 -7 -10 v-252q0 -11 7 -11q137 0 160 2q37 3 48 15q11 13 16 13q7 0 7 -9q0 -2 -1 -9.5t-3 -24.5t-4 -39q0 -8 -1 -24t-2 -28t-1 -15q0 -19 -9 -19t-9 9q-3 33 -4 36q-8 34 -56 39q-38 4 -142 4q-6 0 -6 -10z" horiz-adv-x="1190" unicode="Œ"/>
<glyph glyph-name="oe" d="M176 345q0 -146 75 -228.5t185 -82.5q89 0 150.5 65.5t61.5 189.5q0 135 -73 226t-188 91q-91 0 -151 -65t-60 -196zM754 310v-68v-88v-37q1 -44 25.5 -58t92.5 -14q58 0 81 10q31 14 39 63q3 13 10 13q9 0 9 -20q0 -53 -12 -94q-4 -16 -12 -19t-35 -3q-126 0 -165 2 q-59 3 -103 3q-8 0 -17.5 -1.5t-12.5 -1.5q-8 0 -8 6q0 2 2 26q1 9 1 53q-101 -96 -258 -96q-87 0 -155.5 30t-108 80t-59.5 107t-20 117q0 62 20.5 119t61 105.5t109.5 78t157 29.5q92 0 150 -27t101 -76h2q0 56 -1 66q0 3 -0.5 8.5t-0.5 8.5q0 8 8 8q1 0 6 -0.5t14.5 -1 t22.5 -0.5h235q19 0 37 5q2 0 7 2t7 2q6 0 6 -8q0 -2 -1.5 -7.5t-3 -18t-2.5 -29.5q0 -1 -2 -25.5t-3 -30.5q-3 -13 -10 -13q-8 0 -8 11q0 19 -6 31q-4 10 -8 14.5t-16 9.5t-33 7q-22 3 -137 3q-6 0 -6 -8v-209q0 -9 6 -9q113 0 153 2q33 2 42 12q11 11 15 11q6 0 6 -7 q0 -4 -7 -64q-4 -34 -4 -57q0 -18 -9 -18q-8 0 -8 7q0 2 -1 13.5t-2 17.5q-9 29 -49 33q-24 3 -136 3q-6 0 -6 -8z" horiz-adv-x="1067" unicode="œ"/>
<glyph glyph-name="Racute" d="M494 972q10 -18 29 -60q7 -15 -5 -15q-1 0 -6.5 0.5t-10.5 0.5q-10 0 -17 -1q-38 -5 -88.5 -23.5t-82.5 -35.5q-16 -8 -17 -8q-6 0 -6 6q0 4 9 13q27 25 86 70.5t75 55.5q13 9 20 9t14 -12zM282 688v-304q0 -14 9 -18q30 -10 76 -10q47 0 71 17q59 43 59 150 q0 95 -48.5 139t-104.5 44q-40 0 -53 -4q-9 -3 -9 -14zM164 287v176q0 180 -2 212q-2 27 -10.5 39.5t-32.5 17.5q-12 3 -39 3q-17 0 -17 9t22 9q31 0 81 -1.5t56 -1.5q17 0 71.5 1.5t69.5 1.5q121 0 184 -43q25 -17 46.5 -54t21.5 -83q0 -59 -29.5 -112t-102.5 -112 q168 -212 217 -263q55 -57 112 -68q17 -3 28 -3q12 0 12 -8q0 -10 -19 -10h-95q-72 0 -107 19q-30 16 -60 49.5t-77 97.5q-16 22 -39.5 55t-38.5 54.5t-21 28.5t-18 7l-87 2q-8 0 -8 -8v-14q0 -172 5 -214q3 -25 10.5 -38.5t28.5 -16.5q30 -4 49 -4q12 0 12 -8 q0 -10 -20 -10q-34 0 -89.5 1.5t-57.5 1.5q-7 0 -53 -1.5t-69 -1.5q-20 0 -20 10q0 8 16 8q18 0 36 4q22 4 29 55q5 42 5 213z" horiz-adv-x="755" unicode="Ŕ"/>
<glyph glyph-name="racute" d="M469 860q11 -18 29 -60q8 -15 -5 -15q-1 0 -6.5 0.5t-10.5 0.5q-10 0 -17 -1q-38 -5 -88.5 -23.5t-82.5 -35.5q-16 -8 -17 -8q-6 0 -6 6q0 4 9 13q27 25 86 70.5t75 55.5q13 9 20 9t14 -12zM256 581v-253q0 -11 8 -15q25 -8 67 -8q43 0 62 14q57 40 57 126 q0 80 -42 115.5t-92 35.5q-38 0 -52 -3q-8 -3 -8 -12zM144 244v150q0 153 -1 180q-1 22 -9 31t-29 15q-11 3 -35 3q-15 0 -15 9q0 8 20 8q27 0 71 -1t49 -1q15 0 69.5 1t67.5 1q112 0 167 -36q23 -16 42.5 -47t19.5 -70q0 -47 -29 -91.5t-93 -96.5q143 -176 193 -226 q46 -46 94 -56q9 -2 21 -2q11 0 11 -9t-17 -9h-84q-63 0 -96 17q-27 13 -53 41.5t-67 83.5q-19 25 -48.5 67.5t-34.5 48.5q-6 6 -16 6l-79 2q-7 0 -7 -7v-12q0 -136 5 -181q3 -22 9 -32t25 -13t43 -3q11 0 11 -9t-18 -9q-30 0 -82.5 1.5t-54.5 1.5q-6 0 -47 -1.5t-61 -1.5 q-17 0 -17 9t14 9q19 0 31 3q21 5 26 45q4 36 4 181z" horiz-adv-x="686" unicode="ŕ"/>
<glyph glyph-name="Rcommaaccent" d="M505 -98q0 -16 -11 -42q-30 -71 -68 -114q-12 -10 -15 -10q-7 0 -7 9l7 14q25 43 25 75q0 21 -9 37t-18 24.5t-9 12.5q0 22 22 41t42 19q6 0 9.5 -4t12.5 -18q19 -30 19 -44zM282 688v-304q0 -14 9 -18q30 -10 76 -10q47 0 71 17q59 43 59 150q0 95 -48.5 139t-104.5 44 q-40 0 -53 -4q-9 -3 -9 -14zM164 287v176q0 180 -2 212q-2 27 -10.5 39.5t-32.5 17.5q-12 3 -39 3q-17 0 -17 9t22 9q31 0 81 -1.5t56 -1.5q17 0 71.5 1.5t69.5 1.5q121 0 184 -43q25 -17 46.5 -54t21.5 -83q0 -59 -29.5 -112t-102.5 -112q168 -212 217 -263q55 -57 112 -68 q17 -3 28 -3q12 0 12 -8q0 -10 -19 -10h-95q-72 0 -107 19q-30 16 -60 49.5t-77 97.5q-16 22 -39.5 55t-38.5 54.5t-21 28.5t-18 7l-87 2q-8 0 -8 -8v-14q0 -172 5 -214q3 -25 10.5 -38.5t28.5 -16.5q30 -4 49 -4q12 0 12 -8q0 -10 -20 -10q-34 0 -89.5 1.5t-57.5 1.5 q-7 0 -53 -1.5t-69 -1.5q-20 0 -20 10q0 8 16 8q18 0 36 4q22 4 29 55q5 42 5 213z" horiz-adv-x="755" unicode="Ŗ"/>
<glyph glyph-name="rcommaaccent" d="M455 -118q0 -16 -11 -42q-30 -71 -68 -114q-12 -10 -15 -10q-7 0 -7 9l7 14q25 43 25 75q0 21 -9 37t-18 24.5t-9 12.5q0 22 22 41t42 19q6 0 9.5 -4t12.5 -18q19 -30 19 -44zM256 581v-253q0 -11 8 -15q25 -8 67 -8q43 0 62 14q57 40 57 126q0 80 -42 115.5t-92 35.5 q-38 0 -52 -3q-8 -3 -8 -12zM144 244v150q0 153 -1 180q-1 22 -9 31t-29 15q-11 3 -35 3q-15 0 -15 9q0 8 20 8q27 0 71 -1t49 -1q15 0 69.5 1t67.5 1q112 0 167 -36q23 -16 42.5 -47t19.5 -70q0 -47 -29 -91.5t-93 -96.5q143 -176 193 -226q46 -46 94 -56q9 -2 21 -2 q11 0 11 -9t-17 -9h-84q-63 0 -96 17q-27 13 -53 41.5t-67 83.5q-19 25 -48.5 67.5t-34.5 48.5q-6 6 -16 6l-79 2q-7 0 -7 -7v-12q0 -136 5 -181q3 -22 9 -32t25 -13t43 -3q11 0 11 -9t-18 -9q-30 0 -82.5 1.5t-54.5 1.5q-6 0 -47 -1.5t-61 -1.5q-17 0 -17 9t14 9q19 0 31 3 q21 5 26 45q4 36 4 181z" horiz-adv-x="686" unicode="ŗ"/>
<glyph glyph-name="Rcaron" d="M206 945l29 29q7 7 11 7q6 0 17 -11q13 -13 46 -40t42 -34q7 -6 13 -6q8 0 15 4q53 32 104 74q16 13 22 13q9 0 9 -10q0 -6 -9 -15q-8 -8 -64.5 -61t-67.5 -63q-13 -12 -21 -12q-3 0 -18 11q-19 17 -119 90q-14 10 -14 14q0 5 5 10zM282 688v-304q0 -14 9 -18 q30 -10 76 -10q47 0 71 17q59 43 59 150q0 95 -48.5 139t-104.5 44q-40 0 -53 -4q-9 -3 -9 -14zM164 287v176q0 180 -2 212q-2 27 -10.5 39.5t-32.5 17.5q-12 3 -39 3q-17 0 -17 9t22 9q31 0 81 -1.5t56 -1.5q17 0 71.5 1.5t69.5 1.5q121 0 184 -43q25 -17 46.5 -54 t21.5 -83q0 -59 -29.5 -112t-102.5 -112q168 -212 217 -263q55 -57 112 -68q17 -3 28 -3q12 0 12 -8q0 -10 -19 -10h-95q-72 0 -107 19q-30 16 -60 49.5t-77 97.5q-16 22 -39.5 55t-38.5 54.5t-21 28.5t-18 7l-87 2q-8 0 -8 -8v-14q0 -172 5 -214q3 -25 10.5 -38.5 t28.5 -16.5q30 -4 49 -4q12 0 12 -8q0 -10 -20 -10q-34 0 -89.5 1.5t-57.5 1.5q-7 0 -53 -1.5t-69 -1.5q-20 0 -20 10q0 8 16 8q18 0 36 4q22 4 29 55q5 42 5 213z" horiz-adv-x="755" unicode="Ř"/>
<glyph glyph-name="rcaron" d="M192 833l29 29q7 7 11 7q6 0 17 -11q13 -13 46 -40t42 -34q7 -6 13 -6q8 0 15 4q53 32 104 74q16 13 22 13q9 0 9 -10q0 -6 -9 -15q-8 -8 -64.5 -61t-67.5 -63q-13 -12 -21 -12q-3 0 -18 11q-19 17 -119 90q-14 10 -14 14q0 5 5 10zM256 581v-253q0 -11 8 -15 q25 -8 67 -8q43 0 62 14q57 40 57 126q0 80 -42 115.5t-92 35.5q-38 0 -52 -3q-8 -3 -8 -12zM144 244v150q0 153 -1 180q-1 22 -9 31t-29 15q-11 3 -35 3q-15 0 -15 9q0 8 20 8q27 0 71 -1t49 -1q15 0 69.5 1t67.5 1q112 0 167 -36q23 -16 42.5 -47t19.5 -70 q0 -47 -29 -91.5t-93 -96.5q143 -176 193 -226q46 -46 94 -56q9 -2 21 -2q11 0 11 -9t-17 -9h-84q-63 0 -96 17q-27 13 -53 41.5t-67 83.5q-19 25 -48.5 67.5t-34.5 48.5q-6 6 -16 6l-79 2q-7 0 -7 -7v-12q0 -136 5 -181q3 -22 9 -32t25 -13t43 -3q11 0 11 -9t-18 -9 q-30 0 -82.5 1.5t-54.5 1.5q-6 0 -47 -1.5t-61 -1.5q-17 0 -17 9t14 9q19 0 31 3q21 5 26 45q4 36 4 181z" horiz-adv-x="686" unicode="ř"/>
<glyph glyph-name="Sacute" d="M462 972q10 -18 29 -60q7 -15 -5 -15q-1 0 -6.5 0.5t-10.5 0.5q-10 0 -17 -1q-38 -5 -88.5 -23.5t-82.5 -35.5q-16 -8 -17 -8q-6 0 -6 6q0 4 9 13q27 25 86 70.5t75 55.5q13 9 20 9t14 -12zM255 -17q-87 0 -146 26q-12 5 -15.5 11.5t-3.5 22.5q0 51 5 131q2 26 12 26 t10 -17q0 -20 9 -51q30 -101 143 -101q63 0 98.5 35t35.5 79q0 41 -20 78t-78 82l-46 36q-80 63 -114 118.5t-34 118.5q0 83 64 136t167 53q70 0 133 -17q14 -3 14 -12q0 -4 -1 -18t-2 -41t-1 -61q0 -30 -11 -30q-10 0 -10 18q0 34 -26 66q-39 49 -109 49q-55 0 -87 -28.5 t-32 -74.5q0 -35 22.5 -66.5t83.5 -77.5l28 -21q90 -68 127 -125.5t37 -129.5q0 -113 -94 -174q-64 -41 -159 -41z" horiz-adv-x="582" unicode="Ś"/>
<glyph glyph-name="sacute" d="M426 860q10 -18 29 -60q7 -15 -5 -15q-1 0 -6.5 0.5t-10.5 0.5q-10 0 -17 -1q-38 -5 -88.5 -23.5t-82.5 -35.5q-16 -8 -17 -8q-6 0 -6 6q0 4 9 13q27 25 86 70.5t75 55.5q13 9 20 9t14 -12zM239 -14q-94 0 -143 22q-11 5 -14 10t-3 19q0 43 5 113q0 22 11 22q9 0 9 -14 q0 -20 8 -44q13 -44 53 -64t87 -20q56 0 89 31t33 77q0 33 -17 61t-70 59l-51 30q-76 44 -107 89.5t-31 103.5q0 76 64 123.5t158 47.5q71 0 125 -14q12 -3 12 -11q0 -3 -0.5 -15t-1.5 -35t-1 -52q0 -27 -11 -27q-9 0 -9 15q0 29 -23 56q-33 40 -98 40q-50 0 -85 -24.5 t-35 -66.5q0 -31 18.5 -56t74.5 -56l36 -20q83 -46 117.5 -95.5t34.5 -110.5q0 -97 -88 -159q-49 -35 -147 -35z" horiz-adv-x="540" unicode="ś"/>
<glyph glyph-name="Scedilla" d="M508 198q0 -79 -45 -130.5t-102 -68.5l-92 -68q56 -5 87 -26t31 -54q0 -39 -44 -73t-140 -34q-17 0 -17 10q0 13 26 13q28 0 56 19t28 48q0 61 -79 73q-22 3 -22 8q0 3 16 15l72 54q-8 -1 -28 -1q-87 0 -146 26q-12 5 -15.5 11.5t-3.5 22.5q0 51 5 131q2 26 12 26t10 -17 q0 -20 9 -51q30 -101 143 -101q63 0 98.5 35t35.5 79q0 41 -20 78t-78 82l-46 36q-80 63 -114 118.5t-34 118.5q0 83 64 136t167 53q70 0 133 -17q14 -3 14 -12q0 -4 -1 -18t-2 -41t-1 -61q0 -30 -11 -30q-10 0 -10 18q0 34 -26 66q-39 49 -109 49q-55 0 -87 -28.5 t-32 -74.5q0 -35 22.5 -66.5t83.5 -77.5l28 -21q90 -68 127 -125.5t37 -129.5z" horiz-adv-x="582" unicode="Ş"/>
<glyph glyph-name="scedilla" d="M474 180q0 -97 -88 -159q-29 -21 -80 -30l-81 -60q56 -5 87 -26t31 -54q0 -39 -44 -73t-140 -34q-17 0 -17 10q0 13 26 13q28 0 56 19t28 48q0 61 -79 73q-22 3 -22 8q0 3 16 15l75 56h-3q-94 0 -143 22q-11 5 -14 10t-3 19q0 43 5 113q0 22 11 22q9 0 9 -14q0 -20 8 -44 q13 -44 53 -64t87 -20q56 0 89 31t33 77q0 33 -17 61t-70 59l-51 30q-76 44 -107 89.5t-31 103.5q0 76 64 123.5t158 47.5q71 0 125 -14q12 -3 12 -11q0 -3 -0.5 -15t-1.5 -35t-1 -52q0 -27 -11 -27q-9 0 -9 15q0 29 -23 56q-33 40 -98 40q-50 0 -85 -24.5t-35 -66.5 q0 -31 18.5 -56t74.5 -56l36 -20q83 -46 117.5 -95.5t34.5 -110.5z" horiz-adv-x="540" unicode="ş"/>
<glyph glyph-name="Scaron" d="M159 945l29 29q7 7 11 7q6 0 17 -11q13 -13 46 -40t42 -34q8 -6 13 -6q8 0 15 4q53 32 104 74q16 13 22 13q9 0 9 -10q0 -6 -9 -15q-8 -8 -64.5 -61t-67.5 -63q-13 -12 -21 -12q-3 0 -18 11q-19 17 -119 90q-14 10 -14 14q0 5 5 10zM255 -17q-87 0 -146 26 q-12 5 -15.5 11.5t-3.5 22.5q0 51 5 131q2 26 12 26t10 -17q0 -20 9 -51q30 -101 143 -101q63 0 98.5 35t35.5 79q0 41 -20 78t-78 82l-46 36q-80 63 -114 118.5t-34 118.5q0 83 64 136t167 53q70 0 133 -17q14 -3 14 -12q0 -4 -1 -18t-2 -41t-1 -61q0 -30 -11 -30 q-10 0 -10 18q0 34 -26 66q-39 49 -109 49q-55 0 -87 -28.5t-32 -74.5q0 -35 22.5 -66.5t83.5 -77.5l28 -21q90 -68 127 -125.5t37 -129.5q0 -113 -94 -174q-64 -41 -159 -41z" horiz-adv-x="582" unicode="Š"/>
<glyph glyph-name="scaron" d="M148 833l29 29q7 7 11 7q6 0 17 -11q13 -13 46 -40t42 -34q7 -6 13 -6q8 0 15 4q53 32 104 74q16 13 22 13q9 0 9 -10q0 -6 -9 -15q-8 -8 -64.5 -61t-67.5 -63q-13 -12 -21 -12q-3 0 -18 11q-19 17 -119 90q-14 10 -14 14q0 5 5 10zM239 -14q-94 0 -143 22q-11 5 -14 10 t-3 19q0 43 5 113q0 22 11 22q9 0 9 -14q0 -20 8 -44q13 -44 53 -64t87 -20q56 0 89 31t33 77q0 33 -17 61t-70 59l-51 30q-76 44 -107 89.5t-31 103.5q0 76 64 123.5t158 47.5q71 0 125 -14q12 -3 12 -11q0 -3 -0.5 -15t-1.5 -35t-1 -52q0 -27 -11 -27q-9 0 -9 15 q0 29 -23 56q-33 40 -98 40q-50 0 -85 -24.5t-35 -66.5q0 -31 18.5 -56t74.5 -56l36 -20q83 -46 117.5 -95.5t34.5 -110.5q0 -97 -88 -159q-49 -35 -147 -35z" horiz-adv-x="540" unicode="š"/>
<glyph glyph-name="Tcommaaccent" d="M412 -118q0 -16 -11 -42q-30 -71 -68 -114q-12 -10 -15 -10q-7 0 -7 9l7 14q25 43 25 75q0 21 -9 37t-18 24.5t-9 12.5q0 22 21.5 41t42.5 19q6 0 9.5 -4t12.5 -18q19 -30 19 -44zM297 287v410l-149 -4q-45 -2 -65.5 -7.5t-31.5 -21.5q-13 -20 -17 -35q-3 -12 -11 -12 q-9 0 -9 16q0 31 21 115q4 19 12 19q2 0 15.5 -5.5t27.5 -6.5q48 -5 100 -5h396q32 0 69 5q25 5 27 5q8 0 8 -21q0 -10 -1.5 -56t-1.5 -60q-2 -16 -9 -16q-10 0 -11 20l-1 11q-4 53 -118 56l-126 3v-410q0 -171 5 -214q5 -50 39 -54q28 -4 51 -4q16 0 16 -8q0 -10 -19 -10 q-38 0 -93 1.5t-64 1.5t-56.5 -1.5t-69.5 -1.5q-20 0 -20 10q0 8 16 8q18 0 36 4q24 5 29 55q5 42 5 213z" horiz-adv-x="710" unicode="Ţ"/>
<glyph glyph-name="tcommaaccent" d="M369 -118q0 -16 -11 -42q-30 -71 -68 -114q-12 -10 -15 -10q-7 0 -7 9l7 14q25 43 25 75q0 21 -9 37t-18 24.5t-9 12.5q0 22 22 41t42 19q6 0 9.5 -4t12.5 -18q19 -30 19 -44zM261 244v344l-131 -3q-68 -1 -85 -26q-10 -13 -15 -29q-3 -11 -10 -11q-8 0 -8 14q0 9 8.5 52 t10.5 51q3 16 10 16q3 0 14.5 -4t23.5 -6q35 -4 88 -4h357q34 0 60 4q6 1 11.5 2t8.5 1.5t4 0.5q6 0 6 -18q0 -8 -0.5 -50t-0.5 -53q-2 -14 -8 -14q-9 0 -10 17l-1 9q-2 20 -26 34t-78 15l-111 2v-344q0 -136 5 -182q3 -21 9.5 -31t24.5 -13t45 -3q14 0 14 -9t-17 -9 q-33 0 -83.5 1.5t-58.5 1.5t-52 -1.5t-63 -1.5q-17 0 -17 9t14 9q20 0 31 3q21 5 26 45q4 36 4 181z" horiz-adv-x="633" unicode="ţ"/>
<glyph glyph-name="Tcaron" d="M208 945l29 29q7 7 11 7q6 0 17 -11q13 -13 46 -40t42 -34q8 -6 13 -6q8 0 15 4q53 32 104 74q16 13 22 13q9 0 9 -10q0 -6 -9 -15q-8 -8 -64.5 -61t-67.5 -63q-13 -12 -21 -12q-3 0 -18 11q-19 17 -119 90q-14 10 -14 14q0 5 5 10zM297 287v410l-149 -4 q-45 -2 -65.5 -7.5t-31.5 -21.5q-13 -20 -17 -35q-3 -12 -11 -12q-9 0 -9 16q0 31 21 115q4 19 12 19q2 0 15.5 -5.5t27.5 -6.5q48 -5 100 -5h396q32 0 69 5q25 5 27 5q8 0 8 -21q0 -10 -1.5 -56t-1.5 -60q-2 -16 -9 -16q-10 0 -11 20l-1 11q-4 53 -118 56l-126 3v-410 q0 -171 5 -214q5 -50 39 -54q28 -4 51 -4q16 0 16 -8q0 -10 -19 -10q-38 0 -93 1.5t-64 1.5t-56.5 -1.5t-69.5 -1.5q-20 0 -20 10q0 8 16 8q18 0 36 4q24 5 29 55q5 42 5 213z" horiz-adv-x="710" unicode="Ť"/>
<glyph glyph-name="tcaron" d="M165 833l29 29q7 7 11 7q6 0 17 -11q13 -13 46 -40t42 -34q8 -6 13 -6q8 0 15 4q53 32 104 74q16 13 22 13q9 0 9 -10q0 -6 -9 -15q-8 -8 -64.5 -61t-67.5 -63q-13 -12 -21 -12q-3 0 -18 11q-19 17 -119 90q-14 10 -14 14q0 5 5 10zM261 244v344l-131 -3q-68 -1 -85 -26 q-10 -13 -15 -29q-3 -11 -10 -11q-8 0 -8 14q0 9 8.5 52t10.5 51q3 16 10 16q3 0 14.5 -4t23.5 -6q35 -4 88 -4h357q34 0 60 4q6 1 11.5 2t8.5 1.5t4 0.5q6 0 6 -18q0 -8 -0.5 -50t-0.5 -53q-2 -14 -8 -14q-9 0 -10 17l-1 9q-2 20 -26 34t-78 15l-111 2v-344q0 -136 5 -182 q3 -21 9.5 -31t24.5 -13t45 -3q14 0 14 -9t-17 -9q-33 0 -83.5 1.5t-58.5 1.5t-52 -1.5t-63 -1.5q-17 0 -17 9t14 9q20 0 31 3q21 5 26 45q4 36 4 181z" horiz-adv-x="633" unicode="ť"/>
<glyph glyph-name="Umacron" d="M560 857h-240q-5 0 -7 1.5t-1 5.5l8 36q3 9 11 9h240q11 0 8 -10l-8 -36q-1 -6 -11 -6zM121 317v146q0 180 -2 212q-2 27 -10.5 39.5t-32.5 17.5q-12 3 -39 3q-17 0 -17 9t22 9q29 0 81.5 -1.5t64.5 -1.5q10 0 57 1.5t66 1.5q22 0 22 -9t-16 -9q-11 0 -29 -3 q-20 -4 -27.5 -17t-9.5 -40q-2 -32 -2 -212v-140q0 -103 19.5 -158.5t58.5 -87.5q50 -41 125 -41q84 0 138 54q37 37 47.5 94.5t10.5 153.5v125q0 180 -2 212q-2 27 -10.5 39.5t-32.5 17.5q-12 3 -36 3q-17 0 -17 9t21 9q14 0 31 -0.5t31.5 -0.5t26.5 -0.5t19 -1.5h7 q3 0 47 1.5t67 1.5q21 0 21 -9t-18 -9q-11 0 -29 -3q-20 -4 -27.5 -17t-9.5 -40q-2 -32 -2 -212v-107q0 -102 -19 -177t-76 -124q-84 -72 -208 -72q-146 0 -222 69q-89 80 -89 265z" horiz-adv-x="852" unicode="Ū"/>
<glyph glyph-name="umacron" d="M514 745h-240q-5 0 -7 1.5t-1 5.5l8 36q3 9 11 9h240q11 0 8 -10l-8 -36q-1 -6 -11 -6zM106 269v125v128q0 38 -1 52q-1 22 -9 31t-29 15q-11 3 -34 3q-15 0 -15 9q0 8 19 8q26 0 74 -1t58 -1t53 1t60 1q19 0 19 -8q0 -9 -14 -9q-9 0 -26 -3t-23.5 -13t-8.5 -33 q-2 -27 -2 -180v-119q0 -88 16 -133.5t51 -72.5q43 -34 111 -34q72 0 118 45q33 31 42 78.5t9 128.5v107q0 126 -2 180q-2 22 -9 31t-28 15q-10 3 -32 3q-15 0 -15 9q0 8 18 8h28t28 -0.5t24 -1t18 -0.5h7q2 0 42.5 1t60.5 1q18 0 18 -8q0 -9 -15 -9q-10 0 -26 -3 q-17 -3 -23.5 -13t-8.5 -33q-2 -54 -2 -180v-91q0 -87 -17 -151t-67 -105q-73 -61 -186 -61q-135 0 -201 58q-80 69 -80 225z" horiz-adv-x="760" unicode="ū"/>
<glyph glyph-name="Uring" d="M401 894q0 -21 15.5 -35t34.5 -14q25 0 42.5 15.5t17.5 36.5q0 19 -13.5 32.5t-39.5 13.5q-20 0 -38.5 -13t-18.5 -36zM429 820q-40 0 -64.5 17t-24.5 43q0 35 40 61.5t97 26.5q44 0 69.5 -16t25.5 -43q0 -39 -45 -64t-98 -25zM121 317v146q0 180 -2 212 q-2 27 -10.5 39.5t-32.5 17.5q-12 3 -39 3q-17 0 -17 9t22 9q29 0 81.5 -1.5t64.5 -1.5q10 0 57 1.5t66 1.5q22 0 22 -9t-16 -9q-11 0 -29 -3q-20 -4 -27.5 -17t-9.5 -40q-2 -32 -2 -212v-140q0 -103 19.5 -158.5t58.5 -87.5q50 -41 125 -41q84 0 138 54q37 37 47.5 94.5 t10.5 153.5v125q0 180 -2 212q-2 27 -10.5 39.5t-32.5 17.5q-12 3 -36 3q-17 0 -17 9t21 9q14 0 31 -0.5t31.5 -0.5t26.5 -0.5t19 -1.5h7q3 0 47 1.5t67 1.5q21 0 21 -9t-18 -9q-11 0 -29 -3q-20 -4 -27.5 -17t-9.5 -40q-2 -32 -2 -212v-107q0 -102 -19 -177t-76 -124 q-84 -72 -208 -72q-146 0 -222 69q-89 80 -89 265z" horiz-adv-x="852" unicode="Ů"/>
<glyph glyph-name="uring" d="M345 782q0 -21 15.5 -35t34.5 -14q25 0 42.5 15.5t17.5 36.5q0 19 -13.5 32.5t-39.5 13.5q-20 0 -38.5 -13t-18.5 -36zM373 708q-40 0 -64.5 17t-24.5 43q0 35 40 61.5t97 26.5q44 0 69.5 -16t25.5 -43q0 -39 -45 -64t-98 -25zM106 269v125v128q0 38 -1 52q-1 22 -9 31 t-29 15q-11 3 -34 3q-15 0 -15 9q0 8 19 8q26 0 74 -1t58 -1t53 1t60 1q19 0 19 -8q0 -9 -14 -9q-9 0 -26 -3t-23.5 -13t-8.5 -33q-2 -27 -2 -180v-119q0 -88 16 -133.5t51 -72.5q43 -34 111 -34q72 0 118 45q33 31 42 78.5t9 128.5v107q0 126 -2 180q-2 22 -9 31t-28 15 q-10 3 -32 3q-15 0 -15 9q0 8 18 8h28t28 -0.5t24 -1t18 -0.5h7q2 0 42.5 1t60.5 1q18 0 18 -8q0 -9 -15 -9q-10 0 -26 -3q-17 -3 -23.5 -13t-8.5 -33q-2 -54 -2 -180v-91q0 -87 -17 -151t-67 -105q-73 -61 -186 -61q-135 0 -201 58q-80 69 -80 225z" horiz-adv-x="760" unicode="ů"/>
<glyph glyph-name="Uhungarumlaut" d="M601 961q21 24 25 24q8 0 19 -4q23 -9 46 -29q11 -9 2 -14q-22 -6 -39 -14q-83 -38 -136 -82q-15 -12 -22 -12q-10 0 -5 10q2 4 26 30.5t52 56t32 34.5zM428 961q21 24 25 24q8 0 19 -4q22 -9 46 -29q11 -9 2 -14q-22 -6 -39 -14q-83 -38 -136 -82q-15 -12 -22 -12 q-10 0 -5 10q2 4 26 30.5t52 56t32 34.5zM121 317v146q0 180 -2 212q-2 27 -10.5 39.5t-32.5 17.5q-12 3 -39 3q-17 0 -17 9t22 9q29 0 81.5 -1.5t64.5 -1.5q10 0 57 1.5t66 1.5q22 0 22 -9t-16 -9q-11 0 -29 -3q-20 -4 -27.5 -17t-9.5 -40q-2 -32 -2 -212v-140 q0 -103 19.5 -158.5t58.5 -87.5q50 -41 125 -41q84 0 138 54q37 37 47.5 94.5t10.5 153.5v125q0 180 -2 212q-2 27 -10.5 39.5t-32.5 17.5q-12 3 -36 3q-17 0 -17 9t21 9q14 0 31 -0.5t31.5 -0.5t26.5 -0.5t19 -1.5h7q3 0 47 1.5t67 1.5q21 0 21 -9t-18 -9q-11 0 -29 -3 q-20 -4 -27.5 -17t-9.5 -40q-2 -32 -2 -212v-107q0 -102 -19 -177t-76 -124q-84 -72 -208 -72q-146 0 -222 69q-89 80 -89 265z" horiz-adv-x="852" unicode="Ű"/>
<glyph glyph-name="uhungarumlaut" d="M514 849q21 24 25 24q8 0 19 -4q23 -9 46 -29q11 -9 2 -14q-22 -6 -39 -14q-83 -38 -136 -82q-15 -12 -22 -12q-10 0 -5 10q2 4 26 30.5t52 56t32 34.5zM341 849q21 24 25 24q8 0 19 -4q22 -9 46 -29q11 -9 2 -14q-22 -6 -39 -14q-83 -38 -136 -82q-15 -12 -22 -12 q-10 0 -5 10q2 4 26 30.5t52 56t32 34.5zM106 269v125v128q0 38 -1 52q-1 22 -9 31t-29 15q-11 3 -34 3q-15 0 -15 9q0 8 19 8q26 0 74 -1t58 -1t53 1t60 1q19 0 19 -8q0 -9 -14 -9q-9 0 -26 -3t-23.5 -13t-8.5 -33q-2 -27 -2 -180v-119q0 -88 16 -133.5t51 -72.5 q43 -34 111 -34q72 0 118 45q33 31 42 78.5t9 128.5v107q0 126 -2 180q-2 22 -9 31t-28 15q-10 3 -32 3q-15 0 -15 9q0 8 18 8h28t28 -0.5t24 -1t18 -0.5h7q2 0 42.5 1t60.5 1q18 0 18 -8q0 -9 -15 -9q-10 0 -26 -3q-17 -3 -23.5 -13t-8.5 -33q-2 -54 -2 -180v-91 q0 -87 -17 -151t-67 -105q-73 -61 -186 -61q-135 0 -201 58q-80 69 -80 225z" horiz-adv-x="760" unicode="ű"/>
<glyph glyph-name="Uogonek" d="M542 -170q22 0 43 16.5t23 16.5q9 0 9 -8q0 -6 -8 -16q-60 -66 -124 -66q-46 0 -68.5 18t-22.5 58q0 31 29 70t62 65h-11q-7 0 -21 -0.5t-21 -0.5q-146 0 -222 69q-89 80 -89 265v146q0 180 -2 212q-2 27 -10.5 39.5t-32.5 17.5q-12 3 -39 3q-17 0 -17 9t22 9 q29 0 81.5 -1.5t64.5 -1.5q10 0 57 1.5t66 1.5q22 0 22 -9t-16 -9q-11 0 -29 -3q-20 -4 -27.5 -17t-9.5 -40q-2 -32 -2 -212v-140q0 -103 19.5 -158.5t58.5 -87.5q50 -41 125 -41q84 0 138 54q37 37 47.5 94.5t10.5 153.5v125q0 180 -2 212q-2 27 -10.5 39.5t-32.5 17.5 q-12 3 -36 3q-17 0 -17 9t21 9q14 0 31 -0.5t31.5 -0.5t26.5 -0.5t19 -1.5h7q3 0 47 1.5t67 1.5q21 0 21 -9t-18 -9q-11 0 -29 -3q-20 -4 -27.5 -17t-9.5 -40q-2 -32 -2 -212v-107q0 -102 -19 -177t-76 -124q-15 -13 -30.5 -23t-37.5 -22t-28 -15q-25 -15 -42.5 -50 t-17.5 -66q0 -49 58 -49z" horiz-adv-x="852" unicode="Ų"/>
<glyph glyph-name="uogonek" d="M481 -170q23 0 44 16.5t22 16.5q9 0 9 -8q0 -6 -8 -16q-60 -66 -124 -66q-46 0 -68.5 18t-22.5 58q0 33 32.5 74.5t65.5 66.5q-4 1 -10 0q-4 0 -12 -2q-14 -2 -22 -2q-135 0 -201 58q-80 69 -80 225v125v128q0 38 -1 52q-1 22 -9 31t-29 15q-11 3 -34 3q-15 0 -15 9 q0 8 19 8q26 0 74 -1t58 -1t53 1t60 1q19 0 19 -8q0 -9 -14 -9q-9 0 -26 -3t-23.5 -13t-8.5 -33q-2 -27 -2 -180v-119q0 -88 16 -133.5t51 -72.5q43 -34 111 -34q72 0 118 45q33 31 42 78.5t9 128.5v107q0 126 -2 180q-2 22 -9 31t-28 15q-10 3 -32 3q-15 0 -15 9q0 8 18 8 h28t28 -0.5t24 -1t18 -0.5h7q2 0 42.5 1t60.5 1q18 0 18 -8q0 -9 -15 -9q-10 0 -26 -3q-17 -3 -23.5 -13t-8.5 -33q-2 -54 -2 -180v-91q0 -87 -17 -151t-67 -105q-13 -11 -26.5 -19t-32 -16.5t-25.5 -12.5q-28 -15 -47 -50.5t-19 -69.5q0 -49 58 -49z" horiz-adv-x="760" unicode="ų"/>
<glyph glyph-name="Ydieresis" d="M253 830q-22 0 -33.5 14.5t-11.5 32.5q0 17 12 31.5t34 14.5q20 0 33.5 -11.5t13.5 -31.5q0 -21 -13.5 -35.5t-34.5 -14.5zM464 830q-22 0 -33.5 14.5t-11.5 32.5q0 17 12 32t34 15q20 0 33.5 -12t13.5 -32q0 -21 -13.5 -35.5t-34.5 -14.5zM276 174v82q0 54 -23 105 q-5 12 -77.5 131t-98.5 157q-37 54 -69 73q-24 13 -42 13q-15 0 -15 9t19 9q7 0 57.5 -1.5t68.5 -1.5q8 0 45 1.5t62 1.5q15 0 15 -9q0 -5 -22 -11q-14 -3 -14 -18q0 -10 12 -34q4 -8 170 -299q5 12 74 136t76 139q14 31 14 52q0 20 -21 25q-18 4 -18 10q0 9 17 9t48.5 -1.5 t45.5 -1.5q11 0 54.5 1.5t52.5 1.5q18 0 18 -8q0 -10 -19 -10q-22 0 -44 -12q-23 -11 -54 -49q-24 -29 -100.5 -157t-90.5 -161q-15 -36 -15 -100v-82q0 -58 3 -100q3 -50 41 -55q28 -4 50 -4q16 0 16 -8q0 -10 -21 -10q-36 0 -90 1.5t-63 1.5q-11 0 -58 -1.5t-67 -1.5 q-22 0 -22 10q0 8 16 8q17 0 35 4q28 6 31 55q3 42 3 100z" horiz-adv-x="670" unicode="Ÿ"/>
<glyph glyph-name="Zacute" d="M511 972q11 -18 29 -60q8 -15 -5 -15q-1 0 -6.5 0.5t-10.5 0.5q-10 0 -17 -1q-38 -5 -88.5 -23.5t-82.5 -35.5q-16 -8 -17 -8q-6 0 -6 6q0 4 9 13q27 25 86 70.5t75 55.5q13 9 20 9t14 -12zM222 55h246q128 0 157 55q12 22 18 48q3 16 10 16q10 0 10 -31q0 -51 -20 -122 q-7 -26 -30 -26q-79 0 -255.5 2.5t-281.5 2.5q-17 0 -17 10q0 7 15 30q54 84 201 311.5t222 345.5h-196q-107 0 -144 -21q-23 -12 -37 -35t-17 -43q-3 -18 -12 -18q-8 0 -8 17q0 24 20 144q3 19 12 19q3 0 14.5 -3t25.5 -4q63 -3 139 -3h45h305q17 0 17 -8q0 -5 -8 -19 q-110 -178 -431 -668z" horiz-adv-x="710" unicode="Ź"/>
<glyph glyph-name="zacute" d="M469 860q11 -18 29 -60q8 -15 -5 -15q-1 0 -6.5 0.5t-10.5 0.5q-10 0 -17 -1q-38 -5 -88.5 -23.5t-82.5 -35.5q-16 -8 -17 -8q-6 0 -6 6q0 4 9 13q27 25 86 70.5t75 55.5q13 9 20 9t14 -12zM201 51h211q111 0 136 44q12 22 16 39q3 14 10 14q9 0 9 -26q0 -44 -17 -104 q-7 -22 -27 -22q-70 0 -225.5 2t-248.5 2q-15 0 -15 9q0 8 11 25q211 318 370 554h-166q-97 0 -125 -15q-20 -11 -32.5 -29.5t-14.5 -35.5q-3 -15 -11 -15q-9 0 -9 14q0 29 18 123q1 16 10 16q3 0 12.5 -2.5t22.5 -3.5q50 -2 114 -2h48h271q15 0 15 -7q0 -6 -5 -16 q-150 -235 -378 -564z" horiz-adv-x="625" unicode="ź"/>
<glyph glyph-name="Zdotaccent" d="M369 830q-28 0 -42 17t-14 39t14.5 40t41.5 18q25 0 41 -15t16 -39q0 -25 -16 -42.5t-41 -17.5zM222 55h246q128 0 157 55q12 22 18 48q3 16 10 16q10 0 10 -31q0 -51 -20 -122q-7 -26 -30 -26q-79 0 -255.5 2.5t-281.5 2.5q-17 0 -17 10q0 7 15 30q54 84 201 311.5 t222 345.5h-196q-107 0 -144 -21q-23 -12 -37 -35t-17 -43q-3 -18 -12 -18q-8 0 -8 17q0 24 20 144q3 19 12 19q3 0 14.5 -3t25.5 -4q63 -3 139 -3h45h305q17 0 17 -8q0 -5 -8 -19q-110 -178 -431 -668z" horiz-adv-x="710" unicode="Ż"/>
<glyph glyph-name="zdotaccent" d="M332 718q-28 0 -42 17t-14 39t14.5 40t41.5 18q25 0 41 -15t16 -39q0 -25 -16 -42.5t-41 -17.5zM201 51h211q111 0 136 44q12 22 16 39q3 14 10 14q9 0 9 -26q0 -44 -17 -104q-7 -22 -27 -22q-70 0 -225.5 2t-248.5 2q-15 0 -15 9q0 8 11 25q211 318 370 554h-166 q-97 0 -125 -15q-20 -11 -32.5 -29.5t-14.5 -35.5q-3 -15 -11 -15q-9 0 -9 14q0 29 18 123q1 16 10 16q3 0 12.5 -2.5t22.5 -3.5q50 -2 114 -2h48h271q15 0 15 -7q0 -6 -5 -16q-150 -235 -378 -564z" horiz-adv-x="625" unicode="ż"/>
<glyph glyph-name="Zcaron" d="M208 945l29 29q7 7 11 7q6 0 17 -11q13 -13 46 -40t42 -34q8 -6 13 -6q8 0 15 4q53 32 104 74q16 13 22 13q9 0 9 -10q0 -6 -9 -15q-8 -8 -64.5 -61t-67.5 -63q-13 -12 -21 -12q-3 0 -18 11q-19 17 -119 90q-14 10 -14 14q0 5 5 10zM222 55h246q128 0 157 55q12 22 18 48 q3 16 10 16q10 0 10 -31q0 -51 -20 -122q-7 -26 -30 -26q-79 0 -255.5 2.5t-281.5 2.5q-17 0 -17 10q0 7 15 30q54 84 201 311.5t222 345.5h-196q-107 0 -144 -21q-23 -12 -37 -35t-17 -43q-3 -18 -12 -18q-8 0 -8 17q0 24 20 144q3 19 12 19q3 0 14.5 -3t25.5 -4 q63 -3 139 -3h45h305q17 0 17 -8q0 -5 -8 -19q-110 -178 -431 -668z" horiz-adv-x="710" unicode="Ž"/>
<glyph glyph-name="zcaron" d="M181 833l29 29q7 7 11 7q6 0 17 -11q13 -13 46 -40t42 -34q7 -6 13 -6q8 0 15 4q53 32 104 74q16 13 22 13q9 0 9 -10q0 -6 -9 -15q-8 -8 -64.5 -61t-67.5 -63q-13 -12 -21 -12q-3 0 -18 11q-19 17 -119 90q-14 10 -14 14q0 5 5 10zM201 51h211q111 0 136 44q12 22 16 39 q3 14 10 14q9 0 9 -26q0 -44 -17 -104q-7 -22 -27 -22q-70 0 -225.5 2t-248.5 2q-15 0 -15 9q0 8 11 25q211 318 370 554h-166q-97 0 -125 -15q-20 -11 -32.5 -29.5t-14.5 -35.5q-3 -15 -11 -15q-9 0 -9 14q0 29 18 123q1 16 10 16q3 0 12.5 -2.5t22.5 -3.5q50 -2 114 -2h48 h271q15 0 15 -7q0 -6 -5 -16q-150 -235 -378 -564z" horiz-adv-x="625" unicode="ž"/>
<glyph glyph-name="florin" d="M364 339h-62q-3 -24 -12 -93.5t-18 -133t-20 -111.5q-20 -89 -51.5 -137.5t-94.5 -77.5q-39 -18 -89 -18q-37 0 -37 11t7 11q16 0 25 1q64 7 93 52q35 55 53 218l31 279l-34 2h-3q-9 0 -37.5 -2.5t-29.5 -2.5q-11 0 -8 9l9 31q3 12 12 12q1 0 18.5 -1t34.5 -1h44 q21 209 100 299q71 81 187 81q58 0 102 -18q12 -5 12 -22q0 -27 -11 -110q-3 -22 -12 -22t-9 22q0 37 -18 67q-26 42 -87 42q-30 0 -58 -19.5t-46 -56.5q-27 -55 -50 -263h113q20 0 36 0.5t24.5 1.5t10.5 1q10 0 5 -15l-11 -30q-4 -10 -21 -10q-2 0 -18 1t-38.5 2t-41.5 1z " horiz-adv-x="600" unicode="ƒ"/>
<glyph glyph-name="Scommaaccent" d="M344 -118q0 -16 -11 -42q-30 -71 -68 -114q-12 -10 -15 -10q-7 0 -7 9l7 14q25 43 25 75q0 21 -9 37t-18 24.5t-9 12.5q0 22 21.5 41t42.5 19q6 0 9.5 -4t12.5 -18q19 -30 19 -44zM255 -17q-87 0 -146 26q-12 5 -15.5 11.5t-3.5 22.5q0 51 5 131q2 26 12 26t10 -17 q0 -20 9 -51q30 -101 143 -101q63 0 98.5 35t35.5 79q0 41 -20 78t-78 82l-46 36q-80 63 -114 118.5t-34 118.5q0 83 64 136t167 53q70 0 133 -17q14 -3 14 -12q0 -4 -1 -18t-2 -41t-1 -61q0 -30 -11 -30q-10 0 -10 18q0 34 -26 66q-39 49 -109 49q-55 0 -87 -28.5 t-32 -74.5q0 -35 22.5 -66.5t83.5 -77.5l28 -21q90 -68 127 -125.5t37 -129.5q0 -113 -94 -174q-64 -41 -159 -41z" horiz-adv-x="582" unicode="Ș"/>
<glyph glyph-name="scommaaccent" d="M323 -118q0 -16 -11 -42q-30 -71 -68 -114q-12 -10 -15 -10q-7 0 -7 9l7 14q25 43 25 75q0 21 -9 37t-18 24.5t-9 12.5q0 22 22 41t42 19q6 0 9.5 -4t12.5 -18q19 -30 19 -44zM239 -14q-94 0 -143 22q-11 5 -14 10t-3 19q0 43 5 113q0 22 11 22q9 0 9 -14q0 -20 8 -44 q13 -44 53 -64t87 -20q56 0 89 31t33 77q0 33 -17 61t-70 59l-51 30q-76 44 -107 89.5t-31 103.5q0 76 64 123.5t158 47.5q71 0 125 -14q12 -3 12 -11q0 -3 -0.5 -15t-1.5 -35t-1 -52q0 -27 -11 -27q-9 0 -9 15q0 29 -23 56q-33 40 -98 40q-50 0 -85 -24.5t-35 -66.5 q0 -31 18.5 -56t74.5 -56l36 -20q83 -46 117.5 -95.5t34.5 -110.5q0 -97 -88 -159q-49 -35 -147 -35z" horiz-adv-x="540" unicode="ș"/>
<glyph glyph-name="uni021A" d="M412 -118q0 -16 -11 -42q-30 -71 -68 -114q-12 -10 -15 -10q-7 0 -7 9l7 14q25 43 25 75q0 21 -9 37t-18 24.5t-9 12.5q0 22 21.5 41t42.5 19q6 0 9.5 -4t12.5 -18q19 -30 19 -44zM297 287v410l-149 -4q-45 -2 -65.5 -7.5t-31.5 -21.5q-13 -20 -17 -35q-3 -12 -11 -12 q-9 0 -9 16q0 31 21 115q4 19 12 19q2 0 15.5 -5.5t27.5 -6.5q48 -5 100 -5h396q32 0 69 5q25 5 27 5q8 0 8 -21q0 -10 -1.5 -56t-1.5 -60q-2 -16 -9 -16q-10 0 -11 20l-1 11q-4 53 -118 56l-126 3v-410q0 -171 5 -214q5 -50 39 -54q28 -4 51 -4q16 0 16 -8q0 -10 -19 -10 q-38 0 -93 1.5t-64 1.5t-56.5 -1.5t-69.5 -1.5q-20 0 -20 10q0 8 16 8q18 0 36 4q24 5 29 55q5 42 5 213z" horiz-adv-x="710" unicode="Ț"/>
<glyph glyph-name="uni021B" d="M369 -118q0 -16 -11 -42q-30 -71 -68 -114q-12 -10 -15 -10q-7 0 -7 9l7 14q25 43 25 75q0 21 -9 37t-18 24.5t-9 12.5q0 22 22 41t42 19q6 0 9.5 -4t12.5 -18q19 -30 19 -44zM261 244v344l-131 -3q-68 -1 -85 -26q-10 -13 -15 -29q-3 -11 -10 -11q-8 0 -8 14q0 9 8.5 52 t10.5 51q3 16 10 16q3 0 14.5 -4t23.5 -6q35 -4 88 -4h357q34 0 60 4q6 1 11.5 2t8.5 1.5t4 0.5q6 0 6 -18q0 -8 -0.5 -50t-0.5 -53q-2 -14 -8 -14q-9 0 -10 17l-1 9q-2 20 -26 34t-78 15l-111 2v-344q0 -136 5 -182q3 -21 9.5 -31t24.5 -13t45 -3q14 0 14 -9t-17 -9 q-33 0 -83.5 1.5t-58.5 1.5t-52 -1.5t-63 -1.5q-17 0 -17 9t14 9q20 0 31 3q21 5 26 45q4 36 4 181z" horiz-adv-x="633" unicode="ț"/>
<glyph glyph-name="circumflex" d="M469 981q3 0 18 -11q19 -17 119 -90q14 -10 14 -14q0 -5 -5 -10l-29 -29q-7 -7 -13 -7q-4 0 -15 11q-12 13 -45 40t-43 34q-8 6 -13 6t-15 -5q-61 -35 -106 -74q-13 -12 -20 -12q-9 0 -9 10q0 4 9 15q8 8 64.5 61t67.5 63q13 12 21 12z" horiz-adv-x="927" unicode="ˆ"/>
<glyph glyph-name="caron" d="M312 945l29 29q7 7 11 7q6 0 17 -11q13 -13 46 -40t42 -34q7 -6 13 -6q8 0 15 4q53 32 104 74q16 13 22 13q9 0 9 -10q0 -6 -9 -15q-8 -8 -64.5 -61t-67.5 -63q-13 -12 -21 -12q-3 0 -18 11q-19 17 -119 90q-14 10 -14 14q0 5 5 10z" horiz-adv-x="927" unicode="ˇ"/>
<glyph glyph-name="uni02C9" d="M578 857h-240q-5 0 -7 1.5t-1 5.5l8 36q3 9 11 9h240q11 0 8 -10l-8 -36q-1 -6 -11 -6z" horiz-adv-x="927" unicode="ˉ"/>
<glyph glyph-name="breve" d="M310 906q0 5 8 10l33 26q8 7 13 7q3 0 6 -3.5t7.5 -9.5l7.5 -10q38 -44 92 -44q48 0 88 28q13 10 23 20t14 13.5t7 3.5q8 0 8 -9q0 -11 -22.5 -36.5t-40.5 -37.5q-51 -34 -108 -34q-56 0 -99 36q-37 30 -37 40z" horiz-adv-x="927" unicode="˘"/>
<glyph glyph-name="dotaccent" d="M463 830q-28 0 -42 17t-14 39t14.5 40t41.5 18q25 0 41 -15t16 -39q0 -25 -16 -42.5t-41 -17.5z" horiz-adv-x="927" unicode="˙"/>
<glyph glyph-name="ring" d="M409 894q0 -21 15.5 -35t34.5 -14q25 0 42.5 15.5t17.5 36.5q0 19 -13.5 32.5t-39.5 13.5q-20 0 -38.5 -13t-18.5 -36zM437 820q-40 0 -64.5 17t-24.5 43q0 35 40 61.5t97 26.5q44 0 69.5 -16t25.5 -43q0 -39 -45 -64t-98 -25z" horiz-adv-x="927" unicode="˚"/>
<glyph glyph-name="ogonek" d="M498 -170q22 0 43 16.5t23 16.5q9 0 9 -8q0 -6 -8 -16q-60 -66 -124 -66q-46 0 -68.5 18t-22.5 58t48 93t67 58h38q-63 -51 -63 -121q0 -49 58 -49z" horiz-adv-x="927" unicode="˛"/>
<glyph glyph-name="tilde" d="M534 830q-37 0 -90 28q-40 22 -64 22q-36 0 -68 -36q-10 -10 -16 -10q-7 0 -7 7q0 8 8 19q17 27 45 52t59 25q7 0 14 -0.5t13.5 -3t11 -3.5t12 -4.5t9.5 -5t10.5 -6t9.5 -5.5q39 -22 72 -22q37 0 61 30q10 13 16 13q8 0 8 -8q0 -5 -6 -17q-12 -22 -40 -48.5t-58 -26.5z " horiz-adv-x="927" unicode="˜"/>
<glyph glyph-name="hungarumlaut" d="M558 961q21 24 25 24q8 0 19 -4q23 -9 46 -29q11 -9 2 -14q-22 -6 -39 -14q-83 -38 -136 -82q-15 -12 -22 -12q-10 0 -5 10q2 4 26 30.5t52 56t32 34.5zM385 961q21 24 25 24q8 0 19 -4q22 -9 46 -29q11 -9 2 -14q-22 -6 -39 -14q-83 -38 -136 -82q-15 -12 -22 -12 q-10 0 -5 10q2 4 26 30.5t52 56t32 34.5z" horiz-adv-x="927" unicode="˝"/>
<glyph glyph-name="pi" d="M520 386q-3 -17 -14.5 -23t-51.5 -6h-25q-7 -99 -7 -208q0 -87 34 -87q31 0 48 23q1 1 3 5t4 5.5t5 1.5q12 0 12 -20q0 -30 -30.5 -59t-56.5 -29q-55 0 -78 25t-23 101q0 114 8 244q-51 1 -127 1q0 -173 -21 -270q-11 -52 -39 -78t-81 -26q-21 0 -21 12q0 6 9 11 q23 19 33.5 36t21.5 48q39 114 39 267q-8 -1 -21 -1.5t-23 -2.5t-20 -8q-21 -11 -28.5 -19.5t-9.5 -23.5q-3 -19 -16 -19q-10 0 -10 16q0 44 23.5 92t57.5 50q25 2 74 2q25 0 74.5 -1t75.5 -1h20l67 1q40 1 58.5 13t23.5 40q2 14 13 14q12 0 12 -20q0 -41 -13 -106z" horiz-adv-x="555" unicode="π"/>
<glyph glyph-name="uni2010" d="M75 315h284q32 0 32 -14q0 -10 -10 -13.5t-35 -8.5q-40 -6 -137.5 -23.5t-120.5 -24.5q-10 -3 -25 -9.5t-19 -6.5q-12 0 -8 18l15 69q2 9 6.5 11t17.5 2z" horiz-adv-x="425" unicode="‐"/>
<glyph glyph-name="endash" d="M0 257v58h500v-58h-500z" horiz-adv-x="500" unicode="–"/>
<glyph glyph-name="emdash" d="M1000 257h-1000v58h1000v-58z" horiz-adv-x="1000" unicode="—"/>
<glyph glyph-name="quoteleft" d="M131 645q0 -45 24 -69q11 -11 11 -18q0 -2 -3.5 -5t-7.5 -3q-23 0 -83 19q-18 5 -23.5 11t-5.5 18q0 43 36 109.5t74 104.5q8 8 16 8q6 0 6 -6q0 -3 -5 -13q-39 -76 -39 -156z" horiz-adv-x="218" unicode="‘"/>
<glyph glyph-name="quoteright" d="M87 725q0 45 -24 69q-11 11 -11 18q0 2 3.5 5t7.5 3q23 0 83 -19q18 -5 23.5 -11t5.5 -18q0 -43 -36 -109.5t-74 -104.5q-8 -8 -16 -8q-6 0 -6 6q0 3 5 13q39 76 39 156z" horiz-adv-x="218" unicode="’"/>
<glyph glyph-name="quotesinglbase" d="M87 49q0 45 -24 69q-11 11 -11 18q0 2 3.5 5t7.5 3q23 0 83 -19q18 -5 23.5 -11t5.5 -18q0 -43 -36 -109.5t-74 -104.5q-8 -8 -16 -8q-6 0 -6 6q0 3 5 13q39 76 39 156z" horiz-adv-x="218" unicode="‚"/>
<glyph glyph-name="quotedblleft" d="M126 649q0 -22 8 -41.5t16 -26.5q11 -11 11 -18q0 -2 -4 -4.5t-7 -2.5q-16 0 -81 18q-18 6 -23.5 11t-5.5 17q0 42 35.5 107.5t72.5 102.5q7 8 15 8q6 0 6 -5q0 -4 -5 -13q-38 -78 -38 -153zM276 649q0 -22 8 -41.5t16 -26.5q11 -11 11 -18q0 -2 -4 -4.5t-7 -2.5 q-16 0 -81 18q-18 6 -23.5 11t-5.5 17q0 42 35.5 107.5t72.5 102.5q7 8 15 8q7 0 7 -5q0 -3 -6 -13q-38 -78 -38 -153z" horiz-adv-x="360" unicode="“"/>
<glyph glyph-name="quotedblright" d="M234 727q0 22 -8 41.5t-16 26.5q-11 11 -11 18q0 2 4 4.5t7 2.5q16 0 81 -18q18 -6 23.5 -11t5.5 -17q0 -42 -35 -108t-72 -103q-8 -7 -16 -7q-6 0 -6 5q0 4 5 13q38 63 38 153zM170 774q0 -42 -35.5 -107.5t-72.5 -103.5q-8 -7 -16 -7q-6 0 -6 5q0 3 6 13q38 63 38 153 q0 22 -8 41.5t-16 26.5q-11 11 -11 18q0 2 4 4.5t7 2.5q16 0 81 -18q18 -6 23.5 -11t5.5 -17z" horiz-adv-x="360" unicode="”"/>
<glyph glyph-name="quotedblbase" d="M232 49q0 45 -24 69q-11 11 -11 18q0 2 3.5 5t7.5 3q23 0 83 -19q18 -5 23.5 -11t5.5 -18q0 -43 -36 -109.5t-74 -104.5q-8 -8 -16 -8q-6 0 -6 6q0 3 5 13q39 76 39 156zM84 49q0 45 -24 69q-11 11 -11 18q0 2 3.5 5t7.5 3q23 0 83 -19q18 -5 23.5 -11t5.5 -18 q0 -43 -36 -109.5t-74 -104.5q-8 -8 -16 -8q-6 0 -6 6q0 3 5 13q39 76 39 156z" horiz-adv-x="360" unicode="„"/>
<glyph glyph-name="dagger" d="M259 444q-1 64 -7 137.5t-10 87.5q-4 16 -4 19q0 6 5 14q9 13 46.5 32t65.5 29q11 4 18 4q8 0 8 -10q0 -2 -2.5 -19t-6 -49t-5.5 -64q0 -1 -1.5 -25.5t-4 -68.5t-3.5 -87l114 5q33 1 56 3t32 3.5t11 1.5q9 0 5 -15l-18 -63q-3 -10 -20 -10q-1 0 -15 3.5t-40.5 7 t-59.5 4.5l-66 2q-5 -101 -11 -245.5t-10.5 -239.5t-4.5 -101q-2 -32 -22 -32q-22 0 -26 52q-1 13 -5 126.5t-9 249.5t-8 190l-26 -1q-39 -2 -96.5 -7.5t-76.5 -7.5q-5 -1 -7 2.5t0 11.5l16 61q4 12 14 12q1 0 9 -1.5t27.5 -4t46.5 -3.5z" horiz-adv-x="625" unicode="†"/>
<glyph glyph-name="daggerdbl" d="M345 140q-8 -277 -14 -340q-1 -12 -7.5 -22t-16.5 -10q-25 0 -26 52q-5 89 -10 320h-28q-38 0 -73 -3.5t-62 -7.5t-35 -5q-5 -1 -7 2.5t0 11.5l13 57q2 12 14 12q2 0 8 -1.5t16 -3.5t20 -2l131 -5q0 49 -1 105t-2 93t-1 45l-47 -1q-42 -1 -153 -15q-5 -1 -7 2.5t0 11.5 l15 58q4 12 14 12q1 0 9.5 -2t26 -4.5t39.5 -3.5l101 -3q-9 184 -10 191q0 4 -2 10t-2 9q0 9 5 14q10 10 47 27.5t54 20.5q14 2 17 2q7 0 7 -10q0 -3 -2 -16t-5.5 -43.5t-5.5 -72.5q0 -2 -1.5 -24t-3 -54.5t-2.5 -53.5l143 3q20 0 35 2.5t23 5t10 2.5q9 0 5 -15l-18 -59 q-3 -10 -20 -10q-2 0 -16 3t-39 6.5t-52 4.5l-73 2q-1 -35 -9 -243l145 6q20 1 34.5 2.5t21.5 3t9 1.5q9 0 5 -15l-15 -57q-3 -10 -20 -10q-2 0 -14 2.5t-30 5.5t-34 3z" horiz-adv-x="625" unicode="‡"/>
<glyph glyph-name="bullet" d="M167 388q0 33 -12.5 52.5t-27.5 25.5q-16 9 -16 12q0 10 20 10q31 0 138 -22q32 -8 37 -13q4 -3 4 -12q0 -10 -8 -23q-31 -46 -126 -133q-20 -15 -22 -15q-6 0 -6 6q0 1 6 22q13 39 13 90z" horiz-adv-x="428" unicode="•"/>
<glyph glyph-name="ellipsis" d="M832 0q-28 0 -43 18t-15 41q0 21 15.5 39.5t43.5 18.5q25 0 42 -15.5t17 -40.5q0 -26 -16.5 -43.5t-43.5 -17.5zM499 0q-28 0 -43 18t-15 41q0 21 15.5 39.5t43.5 18.5q25 0 42 -15.5t17 -40.5q0 -26 -16.5 -43.5t-43.5 -17.5zM166 0q-28 0 -43 18t-15 41q0 21 15.5 39.5 t43.5 18.5q25 0 42 -15.5t17 -40.5q0 -26 -16.5 -43.5t-43.5 -17.5z" horiz-adv-x="1000" unicode="…"/>
<glyph glyph-name="perthousand" d="M314 559q0 59 -27.5 107.5t-70.5 48.5q-45 0 -69 -40.5t-24 -102.5q0 -59 26.5 -107.5t68.5 -48.5q45 0 70.5 39.5t25.5 103.5zM618 769q0 -1 -11 -29l-287 -732q-4 -11 -10 -12l-63 -8q-10 -1 -12 1.5t2 11.5q43 96 121 275t135.5 312t61.5 141q-143 -12 -220 -16v-2 q27 -16 45.5 -54t18.5 -84q0 -77 -47 -134t-138 -57q-87 0 -132 54t-45 122q0 77 48 134.5t141 57.5q75 0 163.5 6t149.5 11.5t69 5.5q10 0 10 -4zM745 177q0 59 -27.5 107.5t-70.5 48.5q-45 0 -69 -40.5t-24 -102.5q0 -59 26.5 -107.5t68.5 -48.5q45 0 70.5 39.5 t25.5 103.5zM831 191q0 -77 -47 -134t-139 -57q-87 0 -132 54t-45 122q0 78 46 134.5t138 56.5q88 0 133.5 -54t45.5 -122zM1164 177q0 59 -27.5 107.5t-70.5 48.5q-45 0 -69 -40.5t-24 -102.5q0 -59 26.5 -107.5t68.5 -48.5q45 0 70.5 39.5t25.5 103.5zM1250 191 q0 -77 -47 -134t-139 -57q-87 0 -132 54t-45 122q0 78 46 134.5t138 56.5q88 0 133.5 -54t45.5 -122z" horiz-adv-x="1287" unicode="‰"/>
<glyph glyph-name="guilsinglleft" d="M276 127l-38 -43q-7 -7 -10 -7q-4 0 -32 33q-96 108 -141 153q-18 18 -18 24t19 22q9 7 97.5 88t95.5 86q14 11 19 11q12 0 12 -8q0 -7 -6 -13q-21 -23 -77.5 -91.5t-70.5 -89.5q29 -39 140 -143q14 -13 14 -15q0 -3 -4 -7z" horiz-adv-x="382" unicode="‹"/>
<glyph glyph-name="guilsinglright" d="M106 444l38 43q7 7 10 7q4 0 32 -33q96 -108 141 -153q18 -18 18 -24t-19 -22q-9 -7 -97.5 -88t-95.5 -86q-14 -11 -19 -11q-12 0 -12 8q0 7 6 13q21 23 77.5 91.5t70.5 89.5q-29 39 -140 143q-14 13 -14 15q0 3 4 7z" horiz-adv-x="382" unicode="›"/>
<glyph glyph-name="fraction" d="M337 744q5 -3 -1 -12l-540 -742q-7 -9 -12 -5l-29 21q-7 5 2 17l537 737q6 8 13 4z" horiz-adv-x="92" unicode="⁄"/>
<glyph glyph-name="four.superior" d="M276 475v177h-4l-162 -177h166zM349 475h54q8 0 15.5 1.5t12 3.5t5.5 2q6 0 6 -7q0 -1 -2 -8.5t-5 -17.5t-4 -14q-3 -8 -13 -8h-69v-31q0 -31 1 -45q2 -14 7.5 -20.5t20.5 -7.5q27 -3 29 -3q6 0 6 -8q0 -9 -10 -9q-16 0 -41.5 0.5t-45 1t-20.5 0.5t-13.5 -0.5t-31 -1 t-34.5 -0.5q-8 0 -8 9q0 8 8 8q2 0 7 0.5t11.5 1.5t10.5 1q16 1 22 7.5t7 20.5q1 27 1 76h-227q-14 0 -14 11q0 7 10 17q24 28 276 301q9 11 18 11q10 0 10 -10v-282z" horiz-adv-x="481" unicode="⁴"/>
<glyph glyph-name="Euro" d="M580 729q0 -3 -1 -9t-2 -18t-2 -28q-2 -52 -2 -73v-5t-0.5 -5t-0.5 -4.5t-1 -4.5t-2.5 -3t-3.5 -1q-7 0 -12 29q-8 35 -25 56q-49 60 -141 60q-41 0 -68 -15t-55 -47q-50 -58 -63 -192h312q12 0 8 -11l-9 -28q-3 -9 -14 -9h-301q-1 -8 -1 -21q0 -5 2 -51h268q12 0 8 -11 l-11 -28q-5 -9 -18 -9h-240q25 -130 78 -197.5t126 -67.5q101 0 136 93q9 26 17 26q6 0 6 -13q0 -11 -3 -26q-1 -3 -4.5 -34t-8.5 -47q-4 -14 -8 -18.5t-18 -10.5q-53 -23 -114 -23q-78 0 -134 24.5t-108 82.5q-66 76 -85 211h-78q-12 0 -8 13l9 28q2 7 14 7h60q0 5 -1 14 t-1.5 16.5t-0.5 14.5t2 27h-70q-12 0 -8 13l9 28q2 7 10 7h65q18 123 78 193q45 54 95 79.5t131 25.5q53 0 100 -12q52 -14 76 -15q13 -1 13 -11z" horiz-adv-x="600" unicode="€"/>
<glyph glyph-name="uni2113" d="M299 708q0 40 -9.5 58t-33.5 18q-54 0 -54 -282v-82q42 61 69.5 146t27.5 142zM435 106q-33 -55 -82.5 -86.5t-108.5 -31.5q-152 0 -152 209v110l-53 -35q-4 -2 -6 -2q-5 0 -10 5t-5 11q0 7 8 14l66 50v82q0 255 60 327q53 64 124 64q54 0 77.5 -36.5t23.5 -89.5 q0 -76 -52.5 -166.5t-122.5 -155.5v-154q0 -155 94 -155q34 0 65.5 17t51.5 45q12 16 23 16q9 0 9 -11t-10 -27z" horiz-adv-x="450" unicode="ℓ"/>
<glyph glyph-name="trademark" d="M114 651l17 107q2 7 4 7q3 0 6 -5l48 -91l46 92q1 4 5 4q2 0 4 -6l16 -104q2 -16 10 -16h4q3 0 3 -3t-4 -3q-25 0 -33 2q-4 0 -4 4l-10 73h-1l-36 -69q-5 -9 -7 -9t-7 9l-36 71h-1l-7 -63v-7q0 -5 4 -5h4q4 0 4 -3t-3 -3t-10.5 0.5t-9.5 0.5t-7.5 -0.5t-8.5 -0.5 q-4 0 -4 3t5 3h3q5 0 6 12zM23 762h66h11h4l1 1q2 0 2 -6q0 -2 -0.5 -10t-0.5 -9q-1 -7 -4 -7t-3 9q0 8 -16 8h-18v-66q0 -27 1 -33q2 -10 8 -10h4q5 0 5 -3t-5 -3q-3 0 -13 0.5t-12 0.5q-3 0 -13 -0.5t-14 -0.5q-5 0 -5 3t5 3h5q6 1 8 10q0 1 0.5 12t0.5 21v66h-21 q-15 0 -17 -10q-1 -5 -4 -5q-2 0 -2 5q0 3 2 12.5t2 10.5l2 4q1 0 2.5 -0.5l4.5 -1.5q5 -1 14 -1z" horiz-adv-x="274" unicode="™"/>
<glyph glyph-name="Omega" d="M55 396q0 74 27 137t71 105t100 72t113 43.5t112 13.5q176 0 275 -96t99 -256q0 -176 -186 -321h77q75 0 99 28q16 17 22 57q3 15 11 15t8 -18q0 -21 -4.5 -79.5t-8.5 -73.5q-5 -18 -14 -22t-40 -4q-105 0 -234 3q-23 -2 -35 -2q-7 0 -7 11v48q54 34 88.5 71.5t58.5 105 t24 160.5q0 68 -14.5 125t-44.5 102.5t-81.5 71.5t-120.5 26q-58 0 -103.5 -20t-74 -51t-47 -72.5t-25.5 -81.5t-7 -82q0 -107 47.5 -210.5t125.5 -144.5v-48q0 -11 -7 -11q-12 0 -35 2q-129 -3 -234 -3q-22 0 -30 1t-14 6.5t-10 18.5q-3 14 -8 73.5t-5 79.5q0 18 8 18 t11 -15q5 -33 18 -52q22 -33 91 -33h79q-85 49 -130 130.5t-45 171.5z" horiz-adv-x="907" unicode="Ω"/>
<glyph glyph-name="estimated" d="M761 393v214q0 14 -12 26q-109 111 -262 111q-155 0 -267 -115q-11 -11 -11 -27v-209q0 -6 6 -6h541q5 0 5 6zM920 365h-705q-6 0 -6 -5v-213q0 -13 10 -25q109 -115 268 -115q168 0 279 129h64q-61 -71 -151 -112t-194 -41q-181 0 -308.5 115t-127.5 278t127.5 277 t308.5 114t308 -114t127 -277v-11z" horiz-adv-x="969" unicode="℮"/>
<glyph glyph-name="partialdiff" d="M358 358q-46 31 -86 31q-60 -1 -94 -70t-34 -150q0 -63 22.5 -106.5t62.5 -43.5q79 0 119 109q29 79 43 199q-12 17 -33 31zM357 21q-52 -42 -120 -42q-81 0 -139 62t-58 170q0 86 56.5 155.5t146.5 69.5q89 0 158 -60q5 46 5 135q0 47 -9.5 95.5t-28.5 95.5t-55.5 77 t-84.5 30q-45 0 -85 -15q-5 -2 -17 -9t-17 -7q-13 0 -13 9t17 22q61 49 145 49q58 0 103 -21.5t73 -57t45.5 -86t24.5 -103.5t7 -115q0 -123 -38 -257.5t-116 -196.5z" horiz-adv-x="559" unicode="∂"/>
<glyph glyph-name="Delta" d="M106 63h419q7 0 5 6l-194 512q-2 9 -5 9q-1 0 -6 -9l-223 -511q-2 -7 4 -7zM364 774q14 0 31 -43l277 -696q8 -18 8 -27q0 -3 -1 -4q-4 -4 -28 -4h-9h-600q-26 0 -28 4q-3 4 7 28l314 701q17 37 24 40q3 1 5 1z" horiz-adv-x="688" unicode="∆"/>
<glyph glyph-name="product" d="M862 -240q0 -10 -20 -10q-37 0 -84.5 1.5t-56.5 1.5t-56 -1.5t-69 -1.5q-21 0 -21 10q0 8 16 8q18 0 36 4q22 4 29 55q5 42 5 460v409q0 6 -6 6h-412q-6 0 -6 -11v-404q0 -418 5 -461q5 -50 39 -54q28 -4 51 -4q16 0 16 -8q0 -10 -20 -10q-37 0 -92 1.5t-64 1.5t-49 -1.5 t-62 -1.5q-20 0 -20 10q0 8 16 8q18 0 36 4q22 4 29 55q5 42 5 460v176q0 180 -2 212q-2 27 -10.5 39.5t-32.5 17.5q-12 3 -39 3q-17 0 -17 9t21 9q14 0 41.5 -0.5t40.5 -0.5q52 -2 62 -2h519q5 0 24.5 1t32.5 1q24 1 69 1q21 0 21 -9t-18 -9q-11 0 -29 -3q-20 -4 -27.5 -17 t-9.5 -40q-2 -32 -2 -212v-176q0 -418 5 -461q5 -50 39 -54q28 -4 51 -4q16 0 16 -8z" horiz-adv-x="868" unicode="∏"/>
<glyph glyph-name="summation" d="M679 88q0 -24 -7.5 -84t-12.5 -79q-7 -26 -30 -26q-79 0 -275.5 1.5t-301.5 1.5q-17 0 -17 10t8 21q45 60 146.5 196.5t132.5 178.5q-85 124 -280 415q-8 14 -8 19q0 8 17 8h327h45q76 0 139 3q14 1 25.5 4t14.5 3q9 0 12 -19q20 -120 20 -144q0 -17 -8 -17q-9 0 -12 18 q-3 20 -17 43t-37 35q-37 21 -144 21h-226q102 -155 226 -335q-164 -232 -262 -362h330q128 0 157 55q12 22 18 48q3 16 10 16q10 0 10 -31z" horiz-adv-x="713" unicode="∑"/>
<glyph glyph-name="minus" d="M509 223h-469v61h469v-61z" horiz-adv-x="549" unicode="−"/>
<glyph glyph-name="uni2215" d="M337 744q5 -3 -1 -12l-540 -742q-7 -9 -12 -5l-29 21q-7 5 2 17l537 737q6 8 13 4z" horiz-adv-x="92" unicode="∕"/>
<glyph glyph-name="uni2219" d="M124 207q-29 0 -44.5 18.5t-15.5 42.5q0 22 16 41.5t45 19.5q26 0 43.5 -16t17.5 -42q0 -27 -17 -45.5t-45 -18.5z" horiz-adv-x="250" unicode="∙"/>
<glyph glyph-name="radical" d="M534 962l-164 -1153l-234 650l-98 -48l-15 37l182 87l155 -444h2l124 876z" horiz-adv-x="549" unicode="√"/>
<glyph glyph-name="infinity" d="M631 261q0 31 -22.5 58t-60.5 27q-19 0 -39 -7q-42 -15 -112 -75q44 -44 65.5 -59t61.5 -24q7 -2 21 -2q35 0 60.5 24t25.5 58zM169 179q11 0 21 3q41 10 63 25t64 57q-72 62 -112 76q-20 7 -38 7q-39 0 -61.5 -27.5t-22.5 -58.5q0 -34 25.5 -58t60.5 -24zM26 279 q6 53 46.5 89t94.5 36q32 0 61 -13q33 -15 56.5 -32t72.5 -62q49 45 72.5 62t56.5 32q29 13 60 13q54 0 95 -36t47 -89q1 -5 1 -15q0 -55 -39 -97.5t-95 -42.5q-2 0 -6.5 0.5t-7.5 0.5q-29 3 -55.5 12.5t-47.5 23.5t-35 26t-28.5 26.5l-17.5 17.5l-17.5 -17.5t-28.5 -26.5 t-35 -26t-47.5 -23.5t-55.5 -12.5q-2 0 -6.5 -0.5t-6.5 -0.5q-57 0 -96 44.5t-39 97.5q0 2 0.5 6.5t0.5 6.5z" horiz-adv-x="713" unicode="∞"/>
<glyph glyph-name="integral" d="M96 388v149q0 124 6 189t23 114q27 77 91 77q40 0 59.5 -18.5t19.5 -40.5q0 -18 -16 -30.5t-35 -12.5q-17 0 -30 13q-11 12 -22 12q-18 0 -18 -27q0 -11 11 -126.5t11 -190.5v-8l-1 -216q-1 -192 -40 -307t-106 -115q-50 0 -67 45q-3 9 -3 16q0 25 27 39q10 5 17 5 q17 0 40 -25q8 -8 14 -8q13 0 19.5 29t6.5 68v13q-7 173 -7 356z" horiz-adv-x="274" unicode="∫"/>
<glyph glyph-name="approxequal" d="M475 226l48 -43q-62 -78 -157 -78q-25 0 -49 8l-99 36q-27 10 -52 10q-10 0 -20 -2t-17.5 -4.5t-15 -7.5t-12.5 -8t-11 -9l-8.5 -8.5t-7.5 -8.5l-4 -6l-52 42q66 82 154 82q32 0 59 -10l103 -36q17 -5 32 -5q64 0 109 48zM475 401l48 -43q-68 -80 -154 -80q-28 0 -52 9 l-99 35q-27 10 -51 10q-12 0 -22.5 -2t-19.5 -6.5t-16 -8.5t-14 -10.5t-10.5 -9.5t-9 -9t-5.5 -7l-52 41q66 82 154 82q27 0 59 -10l103 -35q17 -5 32 -5q64 0 109 49z" horiz-adv-x="549" unicode="≈"/>
<glyph glyph-name="notequal" d="M509 128h-270l-71 -128l-52 30l54 98h-130v61h164l70 128h-234v61h268l70 126l52 -30l-54 -96h133v-61h-166l-71 -128h237v-61z" horiz-adv-x="549" unicode="≠"/>
<glyph glyph-name="lessequal" d="M509 0h-469v61h469v-61zM509 127l-469 200v70l469 200v-67l-393 -168l393 -168v-67z" horiz-adv-x="549" unicode="≤"/>
<glyph glyph-name="greaterequal" d="M509 0h-469v61h469v-61zM509 327l-469 -200v67l393 168l-393 168v67l469 -200v-70z" horiz-adv-x="549" unicode="≥"/>
<glyph glyph-name="lozenge" d="M391 377l-148 281l-147 -281l147 -289zM472 377l-196 -377h-65l-196 377l196 368h65z" horiz-adv-x="494" unicode="◊"/>
<glyph glyph-name="Euro.fitted" d="M817 168q0 -11 -7.5 -60.5t-14.5 -72.5q-6 -21 -26 -29q-57 -23 -180 -23q-217 0 -343 109q-79 69 -107 167q-69 0 -107 -1q-7 0 -4 8l11 32q3 10 10 10l80 -1q-7 39 -7 80v10q-14 0 -44 -0.5t-46 -0.5q-7 0 -4 8l11 32q3 10 10 10l77 -1q20 130 113 216q116 106 316 106 q68 0 145 -10q18 -2 51 -8.5t49 -8.5q15 -1 15 -12q0 -3 -1 -9.5t-2 -18.5t-2 -27q-1 -16 -1.5 -57t-1.5 -51q-2 -23 -12 -23t-10 22q-2 62 -36 97q-59 62 -208 62q-127 0 -199 -62q-42 -36 -68.5 -96t-31.5 -121q31 0 97 -0.5t101 -0.5q103 0 283 2q12 0 9 -8l-10 -32 q-2 -9 -9 -9h-76q-57 0 -196 0.5t-201 0.5q0 -43 10 -90q288 0 406 1q12 0 9 -8l-10 -33q-2 -9 -9 -9h-112q-180 0 -271 1q37 -102 127 -162.5t191 -60.5q75 0 112.5 11t68.5 47q24 26 33 69q2 12 4.5 16t8.5 4q9 0 9 -15z" horiz-adv-x="888" unicode=""/>
<glyph glyph-name="cent.fitted" d="M287 182l45 403h-9q-66 0 -112.5 -52.5t-46.5 -125.5q0 -90 40 -150t83 -75zM382 585l-45 -414q23 -4 42 -4q51 0 81.5 17.5t43.5 68.5q4 16 13 16q8 0 8 -12q0 -41 -13 -109q-2 -13 -14 -17q-58 -17 -123 -17q-31 0 -45 1l-14 -134q-1 -10 -8 -11l-37 -5q-11 -1 -9 6 l18 150q-102 18 -163.5 85.5t-61.5 173.5q0 64 24.5 112t53.5 72q80 68 206 68l11 100q1 9 10 10l32 4q6 1 9 -0.5t2 -5.5l-14 -108q65 0 132 -26q7 -3 7 -21q0 -25 -6 -103q-1 -11 -10 -11q-7 0 -9 11q-3 39 -24 66q-30 37 -97 37z" horiz-adv-x="589" unicode=""/>
<glyph glyph-name="dollar.fitted" d="M299 311l-27 -265q50 3 82.5 38.5t32.5 89.5q0 77 -88 137zM271 475l27 242q-17 0 -34.5 -4.5t-37 -15.5t-32 -35t-12.5 -57q0 -37 22.5 -65.5t66.5 -64.5zM265 0l-9 -81q-1 -6 -10 -8l-31 -6q-4 -1 -6 1.5t-1 8.5l10 85q-73 0 -126 21q-22 9 -28 16.5t-6 26.5 q0 56 15 121q6 24 15 24q8 0 7 -27v-9q0 -50 29 -82q41 -45 98 -45l32 295q-88 67 -125.5 118.5t-37.5 119.5q0 85 67 132.5t145 47.5l10 80q1 7 11 9l30 7q4 1 6.5 0t1.5 -5l-12 -91q61 0 110 -19q11 -4 14 -8.5t3 -16.5q0 -53 -12 -110q-3 -14 -11 -14q-10 0 -10 19 q-2 49 -30 77q-12 13 -33 21.5t-35 8.5l-31 -271q84 -56 125 -109.5t41 -130.5q0 -44 -15 -80.5t-38 -59t-53 -38t-57.5 -22t-52.5 -6.5z" horiz-adv-x="559" unicode=""/>
<glyph glyph-name="florin.fitted" d="M323 339h-62q-3 -24 -12 -93.5t-18 -133t-20 -111.5q-20 -89 -51.5 -137.5t-94.5 -77.5q-39 -18 -89 -18q-37 0 -37 11t7 11q16 0 25 1q64 7 93 52q35 55 53 218l31 279l-34 2h-3q-9 0 -37.5 -2.5t-29.5 -2.5q-11 0 -8 9l9 31q3 12 12 12q1 0 18.5 -1t34.5 -1h44 q21 209 100 299q71 81 187 81q59 0 102 -18q12 -5 12 -22q0 -27 -11 -110q-3 -22 -12 -22t-9 22q0 37 -18 67q-26 42 -87 42q-30 0 -58 -19.5t-46 -56.5q-27 -55 -50 -263h113q20 0 36 0.5t24.5 1.5t10.5 1q10 0 5 -15l-11 -30q-4 -10 -21 -10q-2 0 -18 1t-38.5 2t-41.5 1z " horiz-adv-x="555" unicode=""/>
<glyph glyph-name="i.dot" d="M203 718q-28 0 -42 17t-14 39t14.5 40t41.5 18q25 0 41 -15t16 -39q0 -25 -16 -42.5t-41 -17.5zM144 244v150q0 153 -1 180q-1 21 -8 30.5t-22 14.5q-13 4 -32 4q-14 0 -14 10q0 7 21 7q18 0 62.5 -1t55.5 -1q10 0 52 1t61 1q18 0 18 -7q0 -10 -14 -10q-11 0 -26 -3 q-18 -3 -24.5 -13t-8.5 -33q-2 -27 -2 -180v-150q0 -150 4 -186q2 -19 9.5 -28t25.5 -12t45 -3q14 0 14 -9t-17 -9q-33 0 -83.5 1.5t-58.5 1.5t-52 -1.5t-63 -1.5q-17 0 -17 9t14 9q19 0 31 3q22 5 26 41q4 35 4 185z" horiz-adv-x="407" unicode=""/>
<glyph glyph-name="sterling.fitted" d="M407 359h-146l-5 -45q-6 -53 -32 -120t-78 -110l2 -7l253 3q75 1 105 19t38 66q3 12 11 12q9 0 9 -16q0 -17 -5.5 -66.5t-13.5 -79.5q-3 -13 -12.5 -16.5t-50.5 -3.5q-50 0 -108 3q-76 2 -149 2h-202q-30 0 -30 12t30 20q53 12 77 66.5t36 153.5l13 108h-71q-8 0 -14 -1 t-8 -1q-6 0 -3 12l10 29q2 7 15 7h77l8 53q27 178 109 246q43 37 83 49.5t90 12.5q54 0 90 -12q22 -5 27 -5q10 -1 10 -21q0 -75 -8 -118q-2 -14 -10 -14q-10 0 -10 16q-3 48 -24 74q-29 37 -92 37q-54 0 -91.5 -45.5t-50.5 -136.5l-19 -135h126q12 0 21.5 1t15.5 2t7 1 q11 0 7 -10l-12 -34q-3 -8 -25 -8z" horiz-adv-x="606" unicode=""/>
<glyph glyph-name="sterling.oldstyle" d="M543 620q0 -78 -7 -113q-2 -13 -10 -13q-9 0 -9 15q-3 46 -23 71q-27 35 -87 35q-100 0 -135 -173l-18 -87h119q11 0 20.5 0.5t14.5 1.5t7 1q11 0 7 -9l-12 -32q-3 -8 -23 -8h-139l-5 -43q-13 -110 -104 -186l2 -7l240 3q71 1 99.5 18t36.5 63q2 11 10 11q9 0 9 -15 t-5.5 -62.5t-12.5 -76.5q-3 -13 -12.5 -16t-47.5 -3q-21 0 -58.5 1.5t-44.5 1.5q-72 2 -141 2h-192q-29 0 -29 11t29 19q26 6 44 22t30 48t18 58.5t15 77.5l13 74h-68q-7 0 -13 -1t-8 -1q-6 0 -3 11l10 28q2 7 14 7h73l8 45q13 71 34 114.5t69 83.5q41 35 79.5 47t85.5 12 q51 0 85 -12q24 -5 26 -5q9 -1 9 -19z" horiz-adv-x="576" unicode=""/>
<glyph glyph-name="yen.fitted" d="M368 286v-121q0 -72 1 -94q1 -45 46 -52q21 -3 50 -3q14 0 14 -10q0 -9 -14 -9q-39 0 -92 1.5t-57 1.5t-56 -1.5t-90 -1.5q-15 0 -15 9q0 10 13 10q30 0 51 3q46 7 47 52q1 22 1 94v121h-162q-8 0 -6 8l9 34q2 6 11 6h142q-6 12 -181 317q-30 53 -63 71q-23 12 -46 12 q-13 0 -13 9q0 10 17 10q10 0 55.5 -1.5t54.5 -1.5q10 0 45.5 1.5t61.5 1.5q14 0 14 -10q0 -8 -19 -11q-17 -3 -17 -18q0 -10 11 -34q6 -12 78.5 -145.5t80.5 -150.5q21 37 76 144t66 130q13 30 13 54q0 14 -25 20q-16 5 -16 11q0 10 14 10q20 0 50 -1.5t39 -1.5q6 0 48 1.5 t53 1.5q16 0 16 -9q0 -10 -15 -10q-29 0 -46 -9q-20 -8 -52 -50q-22 -29 -90.5 -154t-98.5 -187h161q10 0 8 -10l-7 -30q-2 -8 -13 -8h-153z" horiz-adv-x="640" unicode=""/>
<glyph glyph-name="space_uni0326" d="M516 -118q0 -16 -11 -42q-30 -71 -68 -114q-12 -10 -15 -10q-7 0 -7 9l7 14q25 43 25 75q0 21 -9 37t-18 24.5t-9 12.5q0 22 21.5 41t42.5 19q6 0 9.5 -4t12.5 -18q19 -30 19 -44z" horiz-adv-x="927" unicode=""/>
<glyph glyph-name="Lslash.sc" d="M262 320v-76q0 -95 3 -131.5t16 -47.5q21 -18 118 -18q30 0 44 1t31.5 6t27.5 16q17 17 21 51q2 16 10 16q9 0 9 -21q0 -11 -4 -46t-9 -52q-5 -15 -14 -19t-42 -4q-93 0 -159 3q-88 2 -117 2q-8 0 -50 -1.5t-61 -1.5q-17 0 -17 9t14 9q19 0 31 3q21 5 26 45q4 36 4 174 v36l-73 -38q-7 -2 -9 4l-14 32q-2 5 2 7l94 46v70q0 153 -1 180q-1 22 -9 31t-29 15q-11 3 -30 3q-15 0 -15 9q0 8 19 8q23 0 67.5 -1t54.5 -1q9 0 56.5 1t66.5 1q18 0 18 -8q0 -9 -15 -9t-30 -3q-18 -3 -24.5 -13t-8.5 -33q-2 -27 -2 -180v-21l117 55q11 6 14 -2l11 -31 q3 -8 -6 -12z" horiz-adv-x="552" unicode=""/>
<glyph glyph-name="OE.sc" d="M176 345q0 -146 75 -228.5t185 -82.5q89 0 150.5 65.5t61.5 189.5q0 135 -73 226t-188 91q-91 0 -151 -65t-60 -196zM754 310v-68v-88v-37q1 -44 25.5 -58t92.5 -14q58 0 81 10q31 14 39 63q3 13 10 13q9 0 9 -20q0 -53 -12 -94q-4 -16 -12 -19t-35 -3q-126 0 -165 2 q-59 3 -103 3q-8 0 -17.5 -1.5t-12.5 -1.5q-8 0 -8 6q0 2 2 26q1 9 1 53q-101 -96 -258 -96q-87 0 -155.5 30t-108 80t-59.5 107t-20 117q0 62 20.5 119t61 105.5t109.5 78t157 29.5q92 0 150 -27t101 -76h2q0 56 -1 66q0 3 -0.5 8.5t-0.5 8.5q0 8 8 8q1 0 6 -0.5t14.5 -1 t22.5 -0.5h235q19 0 37 5q2 0 7 2t7 2q6 0 6 -8q0 -2 -1.5 -7.5t-3 -18t-2.5 -29.5q0 -1 -2 -25.5t-3 -30.5q-3 -13 -10 -13q-8 0 -8 11q0 19 -6 31q-4 10 -8 14.5t-16 9.5t-33 7q-22 3 -137 3q-6 0 -6 -8v-209q0 -9 6 -9q113 0 153 2q33 2 42 12q11 11 15 11q6 0 6 -7 q0 -4 -7 -64q-4 -34 -4 -57q0 -18 -9 -18q-8 0 -8 7q0 2 -1 13.5t-2 17.5q-9 29 -49 33q-24 3 -136 3q-6 0 -6 -8z" horiz-adv-x="1067" unicode=""/>
<glyph glyph-name="Scaron.sc" d="M148 833l29 29q7 7 11 7q6 0 17 -11q13 -13 46 -40t42 -34q7 -6 13 -6q8 0 15 4q53 32 104 74q16 13 22 13q9 0 9 -10q0 -6 -9 -15q-8 -8 -64.5 -61t-67.5 -63q-13 -12 -21 -12q-3 0 -18 11q-19 17 -119 90q-14 10 -14 14q0 5 5 10zM239 -14q-94 0 -143 22q-11 5 -14 10 t-3 19q0 43 5 113q0 22 11 22q9 0 9 -14q0 -20 8 -44q13 -44 53 -64t87 -20q56 0 89 31t33 77q0 33 -17 61t-70 59l-51 30q-76 44 -107 89.5t-31 103.5q0 76 64 123.5t158 47.5q71 0 125 -14q12 -3 12 -11q0 -3 -0.5 -15t-1.5 -35t-1 -52q0 -27 -11 -27q-9 0 -9 15 q0 29 -23 56q-33 40 -98 40q-50 0 -85 -24.5t-35 -66.5q0 -31 18.5 -56t74.5 -56l36 -20q83 -46 117.5 -95.5t34.5 -110.5q0 -97 -88 -159q-49 -35 -147 -35z" horiz-adv-x="540" unicode=""/>
<glyph glyph-name="Zcaron.sc" d="M181 833l29 29q7 7 11 7q6 0 17 -11q13 -13 46 -40t42 -34q7 -6 13 -6q8 0 15 4q53 32 104 74q16 13 22 13q9 0 9 -10q0 -6 -9 -15q-8 -8 -64.5 -61t-67.5 -63q-13 -12 -21 -12q-3 0 -18 11q-19 17 -119 90q-14 10 -14 14q0 5 5 10zM201 51h211q111 0 136 44q12 22 16 39 q3 14 10 14q9 0 9 -26q0 -44 -17 -104q-7 -22 -27 -22q-70 0 -225.5 2t-248.5 2q-15 0 -15 9q0 8 11 25q211 318 370 554h-166q-97 0 -125 -15q-20 -11 -32.5 -29.5t-14.5 -35.5q-3 -15 -11 -15q-9 0 -9 14q0 29 18 123q1 16 10 16q3 0 12.5 -2.5t22.5 -3.5q50 -2 114 -2h48 h271q15 0 15 -7q0 -6 -5 -16q-150 -235 -378 -564z" horiz-adv-x="625" unicode=""/>
<glyph glyph-name="exclam.sc" d="M158 164q-12 0 -15 36q-19 225 -25 272q-9 129 -21 180q-1 5 -4.5 14t-3.5 12q0 8 5 16q31 39 90 63q22 10 38 10q9 0 9 -13q0 -3 -2.5 -19.5t-6.5 -47t-7 -62.5q-1 -6 -20.5 -210.5t-21.5 -218.5q-3 -32 -15 -32zM160 -17q-27 0 -41 17t-14 39q0 21 14.5 39t41.5 18 q24 0 40 -14.5t16 -38.5q0 -25 -16 -42.5t-41 -17.5z" horiz-adv-x="320" unicode=""/>
<glyph glyph-name="ampersand.sc" d="M446 94q-106 93 -150 141q-64 69 -84 100q-27 -20 -37 -42.5t-12.5 -48t-7.5 -35.5q0 -77 45.5 -121t114.5 -44q78 0 131 50zM779 5q0 -8 -26 -8h-65q-76 0 -110.5 10t-87.5 50q-76 -71 -204 -71q-65 0 -113.5 18.5t-74 48t-37.5 60t-12 60.5q0 67 44.5 124.5t91.5 80.5 q-44 59 -44 120q0 58 54.5 106t155.5 48q57 0 103 -18q14 -6 14 -22q0 -50 -9 -109q-2 -14 -10 -14q-6 0 -6 16q0 42 -25 71q-27 32 -94 32q-33 0 -57.5 -21.5t-24.5 -70.5q0 -23 6 -44t23.5 -46t27.5 -37.5t40 -44.5t39 -42q20 -22 74.5 -76t69.5 -67q40 56 40 124 q0 24 -14 37q-16 15 -41 15q-11 0 -11 7q0 8 14 8q44 0 102 -6q29 -4 29 -17q0 -102 -80 -197q79 -65 115 -87q19 -11 48 -20.5t43 -9.5q12 0 12 -8z" horiz-adv-x="706" unicode=""/>
<glyph glyph-name="zero.oldstyle" d="M465 309q0 58 -9.5 111.5t-28 99.5t-51 74t-73.5 28q-63 0 -100 -75t-37 -211q0 -80 15 -148.5t52.5 -117.5t92.5 -49q64 0 101.5 76.5t37.5 211.5zM579 342q0 -159 -69 -259t-202 -100q-72 0 -125 31t-80 81.5t-39 102.5t-12 106q0 159 68.5 257.5t202.5 98.5 q59 0 105.5 -21t74 -53.5t45.5 -76t24.5 -84.5t6.5 -83z" horiz-adv-x="631" unicode=""/>
<glyph glyph-name="one.oldstyle" d="M410 7q0 -10 -15 -10q-42 0 -96.5 1.5t-61.5 1.5q-6 0 -67 -1.5t-96 -1.5q-15 0 -15 10q0 9 7 9q49 0 76 6q21 4 28.5 14t9.5 31q4 37 4 189v143q0 25 -0.5 62t-0.5 49q0 18 -2 24.5t-12 6.5q-8 0 -29.5 -8t-49 -19.5t-31.5 -13.5q-7 -3 -13 -3q-7 0 -7 9q0 8 9 12 q2 1 49 29t101.5 60t69.5 42q18 11 25 11q10 0 10 -18q0 -1 -0.5 -12.5t-1.5 -31t-1.5 -45t-1 -61t-0.5 -71.5v-165q0 -152 4 -189q2 -22 9.5 -32t28.5 -14q23 -5 63 -5q7 0 7 -9z" horiz-adv-x="448" unicode=""/>
<glyph glyph-name="two.oldstyle" d="M498 156q0 -11 -10.5 -60t-17.5 -70q-6 -17 -21 -21.5t-61 -4.5h-373q-13 0 -13 12q0 7 19 22q49 36 86 65.5t84 74.5t77 86.5t51.5 94.5t21.5 104q0 47 -13 80.5t-34 49t-40.5 22t-40.5 6.5q-68 0 -101 -28q-16 -14 -28 -39t-12 -42q0 -16 -12 -16q-7 0 -9 16 q-5 40 -5 103q0 10 11 17q70 32 172 32q119 0 179.5 -51t60.5 -130q0 -47 -22 -96.5t-51 -87t-77 -81t-80 -68t-81 -59.5q-10 -6 1 -6h48q119 0 163 5q92 10 109 73q4 13 11 13q8 0 8 -16z" horiz-adv-x="547" unicode=""/>
<glyph glyph-name="three.oldstyle" d="M497 203q0 -93 -83.5 -156.5t-218.5 -63.5q-104 0 -144 20q-16 7 -16 24q0 74 7 107q3 16 10 16q9 0 9 -12q0 -45 37 -77.5t105 -32.5q75 0 122 35.5t47 108.5q0 40 -17.5 72t-44 50t-50 27.5t-45.5 13.5q-31 5 -31 15q0 9 17 12q27 5 57.5 20t59 50t28.5 81 q0 36 -29.5 69t-94.5 33q-56 0 -94 -25.5t-38 -62.5q0 -13 -8 -13q-7 0 -8 12q-7 47 -7 86q0 10 14 16q79 32 168 32q64 0 110 -14t68 -35.5t31 -41t9 -37.5q0 -55 -49.5 -99.5t-91.5 -57.5v-2q65 -13 118 -56.5t53 -113.5z" horiz-adv-x="555" unicode=""/>
<glyph glyph-name="four.oldstyle" d="M371 236v266h-2q-7 -8 -117.5 -126t-128.5 -140h248zM598 234q0 -6 -6 -25.5t-11 -27.5q-7 -12 -25 -12h-84v-30q0 -46 3 -71q3 -22 10.5 -33.5t29.5 -15.5q13 -3 43 -3q8 0 8 -9q0 -10 -15 -10q-31 0 -79.5 1.5t-54.5 1.5q-10 0 -55.5 -1.5t-74.5 -1.5q-15 0 -15 10 q0 9 7 9q30 0 45 2q25 3 34 15.5t11 34.5t2 64v37h-324q-24 0 -24 13q0 10 12 22q3 3 200.5 219.5t201.5 220.5q14 16 25 16t11 -15q0 -1 -0.5 -48.5t-0.5 -80.5v-280h73q15 0 29 4t15 4q9 0 9 -10z" horiz-adv-x="639" unicode=""/>
<glyph glyph-name="five.oldstyle" d="M474 223q0 -96 -80.5 -168t-233.5 -72q-57 0 -90 15q-18 8 -18 33v29q0 59 4 79q4 16 10 16q9 0 9 -15q0 -63 35 -85.5t94 -22.5q65 0 109.5 36.5t44.5 114.5q0 39 -17.5 72.5t-44 55.5t-60 38.5t-62 25t-53.5 11.5q-18 2 -17 17l21 226q1 12 18 12h233q20 0 53 3 q3 0 6.5 0.5t5.5 1t4 0.5h3q10 0 10 -16q0 -47 -12 -113q-2 -11 -11 -11q-8 0 -8 12q0 15 -4 23.5t-23.5 16t-55.5 7.5h-173l-13 -101q57 -8 110 -25.5t100.5 -46t76.5 -72.5t29 -97z" horiz-adv-x="547" unicode=""/>
<glyph glyph-name="six.oldstyle" d="M553 203q0 -98 -72 -159t-178 -61q-112 0 -182.5 65.5t-70.5 180.5q0 126 100.5 245.5t254.5 175.5q15 5 21 5q11 0 11 -8q0 -6 -24 -18q-96 -49 -168 -154.5t-72 -246.5q0 -82 37 -143.5t105 -61.5q53 0 85.5 35.5t32.5 106.5q0 83 -39.5 127t-92.5 44q-23 0 -49 -6 q-20 -5 -21 -5q-8 0 -8 8q0 7 11 13q52 32 123 32q93 0 144.5 -54.5t51.5 -120.5z" horiz-adv-x="603" unicode=""/>
<glyph glyph-name="seven.oldstyle" d="M514 634q0 -9 -7 -16q-59 -75 -144.5 -271.5t-96.5 -279.5q-1 -5 -1 -12q0 -3 0.5 -10t0.5 -11q0 -13 -44 -32t-76 -19q-13 0 -13 10q0 15 7 35q24 73 105.5 233.5t171.5 296.5h-244q-63 0 -89 -16q-12 -7 -21 -21.5t-11 -25.5t-9 -11q-8 0 -8 13q0 18 7 78.5t7 61.5 q0 12 10 12q1 0 4 -0.5t9.5 -1.5t14.5 -2q38 -4 100 -4h304q23 0 23 -7z" horiz-adv-x="509" unicode=""/>
</font>
</defs>
</svg>
